# Blender 4.3.2
# www.blender.org
mtllib ground_tutorial_snowy.mtl
o Plane
v -40.086823 23.098528 40.086823
v 40.086823 23.098528 40.086823
v -40.086823 23.098528 -40.086823
v 40.086823 23.098528 -40.086823
v -43.876667 23.098528 -35.899090
v -47.828289 23.098530 -30.436184
v -51.609882 23.098530 -23.459034
v -54.693741 23.098532 -14.916473
v -56.458508 23.098532 -5.132590
v -56.458508 23.098532 5.132593
v -54.693741 23.098532 14.916473
v -51.609886 23.098530 23.459040
v -47.828289 23.098530 30.436184
v -43.876667 23.098528 35.899090
v -35.899090 23.098528 43.876667
v -30.436184 23.098530 47.828289
v -23.459038 23.098530 51.609886
v -14.916472 23.098532 54.693741
v -5.132590 23.098532 56.458508
v 5.132593 23.098532 56.458508
v 14.916475 23.098532 54.693741
v 23.459038 23.098530 51.609882
v 30.436184 23.098530 47.828289
v 35.899090 23.098528 43.876667
v 43.876667 23.098528 35.899090
v 47.828289 23.098530 30.436184
v 51.609886 23.098530 23.459038
v 54.693741 23.098532 14.916472
v 56.458508 23.098532 5.132590
v 56.458508 23.098532 -5.132593
v 54.693741 23.098532 -14.916475
v 51.609882 23.098530 -23.459038
v 47.828289 23.098530 -30.436184
v 43.876667 23.098528 -35.899090
v 35.899090 23.098528 -43.876667
v 30.436184 23.098530 -47.828289
v 23.459034 23.098530 -51.609882
v 14.916473 23.098532 -54.693741
v 5.132590 23.098532 -56.458508
v -5.132593 23.098532 -56.458508
v -14.916473 23.098532 -54.693741
v -23.459040 23.098530 -51.609886
v -30.436184 23.098530 -47.828289
v -35.899090 23.098528 -43.876667
v 40.342793 23.098530 -40.342793
v -40.086823 31.182415 40.086823
v 40.086823 31.182415 40.086823
v -40.086823 31.182415 -40.086823
v -43.876667 31.182415 -35.899090
v -47.828289 31.182415 -30.436184
v -51.609882 31.182417 -23.459034
v -54.693741 31.182417 -14.916473
v -56.458508 31.182419 -5.132590
v -56.458508 31.182419 5.132593
v -54.693741 31.182417 14.916473
v -51.609886 31.182417 23.459040
v -47.828289 31.182415 30.436184
v -43.876667 31.182415 35.899090
v -35.899090 31.182415 43.876667
v -30.436184 32.270866 45.976433
v -23.459038 32.270866 49.758034
v -14.916472 32.270866 52.841885
v -5.132590 32.270866 54.606651
v 5.132593 31.182419 56.458508
v 14.916475 31.182417 54.693741
v 23.459038 31.182417 51.609882
v 30.436184 31.182415 47.828289
v 35.899090 31.182415 43.876667
v 43.876667 31.182415 35.899090
v 47.828289 31.182415 30.436184
v 51.609886 31.182417 23.459038
v 54.693741 31.182417 14.916472
v 56.458508 31.182419 5.132590
v 56.458508 32.427971 -5.132593
v 54.693741 32.427967 -14.916475
v 51.609882 32.427967 -23.459038
v 47.828289 31.182415 -30.436184
v 43.876667 31.182415 -35.899090
v 35.899090 31.182415 -43.876667
v 30.436184 31.182415 -47.828289
v 23.459034 31.182417 -51.609882
v 14.916473 31.182417 -54.693741
v 5.132590 31.182419 -56.458508
v -5.132593 31.182419 -56.458508
v -14.916473 31.182417 -54.693741
v -23.459040 32.546375 -51.609886
v -30.436184 32.546375 -47.828289
v -35.899090 32.546375 -43.876667
v -40.342793 32.270866 38.490936
v -40.342793 32.270866 29.525871
v -40.342793 32.270866 20.560808
v -40.342793 32.270866 11.595742
v -40.342793 32.270866 2.630677
v -40.342793 34.575924 -6.334387
v -40.342793 34.575924 -15.299452
v -40.342793 34.851433 -22.412663
v -40.342793 34.851433 -31.377728
v -40.342793 32.546375 -40.342793
v -31.377728 32.270866 38.490936
v -31.377728 32.270866 29.525871
v -31.377728 32.270866 20.560808
v -31.377728 32.270866 11.595742
v -31.377728 32.270866 2.630677
v -31.377728 34.575924 -6.334387
v -31.377728 35.939884 -15.299452
v -31.377728 36.404507 -22.412663
v -31.377728 36.404507 -31.377728
v -31.377728 34.099449 -40.342793
v -22.412663 32.270866 38.490936
v -22.412663 32.270866 29.525871
v -22.412663 32.270866 20.560808
v -22.412663 31.182415 13.447597
v -22.412663 32.270866 2.630677
v -22.412663 34.575924 -6.334387
v -22.412663 35.939884 -15.299452
v -22.412663 36.404507 -22.412663
v -22.412663 34.099449 -31.377728
v -22.412663 34.099449 -40.342793
v -13.447597 32.270866 38.490936
v -13.447597 32.270866 29.525871
v -13.447597 31.182415 22.412663
v -13.447597 31.182415 13.447597
v -13.447597 31.182415 4.482532
v -13.447597 31.182415 -4.482533
v -13.447597 32.546375 -13.447598
v -13.447597 34.099449 -22.412663
v -13.447597 34.099449 -31.377728
v -13.447597 34.099449 -40.342793
v -4.482532 32.270866 38.490936
v -4.482533 31.182415 31.377728
v -4.482533 31.182415 22.412663
v -4.482533 31.182415 13.447597
v -4.482533 31.182415 4.482532
v -4.482533 31.182415 -4.482533
v -4.482533 31.182415 -13.447598
v -4.482533 31.182415 -22.412663
v -4.482533 31.182415 -31.377728
v -4.482534 31.182415 -40.342793
v 4.482533 31.182415 40.342793
v 3.971213 32.414165 27.510738
v 3.971213 32.414165 18.545673
v 3.971213 32.414165 9.580608
v 4.482532 31.182415 4.482532
v 4.482532 31.182415 -4.482533
v 4.482532 31.182415 -13.447598
v 4.482532 31.182415 -22.412663
v 4.482531 31.182415 -31.377728
v 4.482531 31.182415 -40.342793
v 12.936277 32.414165 36.475803
v 12.936277 32.414165 27.510738
v 12.936277 32.414165 18.545673
v 12.936277 32.414165 9.580608
v 13.447598 31.182415 4.482532
v 13.447598 31.182415 -4.482533
v 13.447598 33.120274 -13.447598
v 13.447598 33.120274 -22.412663
v 13.447598 33.120274 -31.377728
v 13.447597 33.120274 -40.342793
v 21.901342 32.414165 36.475803
v 21.901342 32.414165 27.510738
v 21.901342 32.414165 18.545673
v 21.901342 32.414165 9.580608
v 22.412663 32.427967 4.482532
v 22.412663 32.427967 -4.482533
v 22.412663 34.365826 -13.447598
v 22.412663 34.365826 -22.412663
v 22.412663 33.120274 -31.377728
v 22.412663 33.120274 -40.342793
v 31.377728 31.182415 40.342793
v 30.866407 32.414165 27.510738
v 30.866407 32.414165 18.545673
v 31.377728 31.182415 13.447597
v 31.377728 32.427967 4.482532
v 31.377728 32.427967 -4.482533
v 31.377728 34.365826 -13.447598
v 31.377728 34.365826 -22.412663
v 31.377728 33.120274 -31.377728
v 31.377728 33.120274 -40.342793
v 40.342793 31.182415 40.342793
v 40.342793 31.182415 31.377728
v 40.342793 31.182415 22.412663
v 40.342793 31.182415 13.447597
v 40.342793 32.427967 4.482532
v 40.342793 32.427967 -4.482533
v 40.342793 32.427967 -13.447598
v 40.342793 32.427967 -22.412663
v 40.342793 31.182415 -31.377728
v 40.342793 31.182415 -40.342793
vn -0.0000 -1.0000 -0.0000
vn -0.8792 -0.0000 -0.4765
vn -0.0837 0.1063 0.9908
vn 0.8792 -0.0000 -0.4765
vn -0.8102 -0.0000 -0.5861
vn -0.1741 0.1949 0.9653
vn 0.9406 -0.0000 -0.3396
vn -0.7415 -0.0000 -0.6710
vn -0.3336 0.1866 0.9241
vn 0.9841 -0.0000 -0.1775
vn -0.6710 -0.0000 -0.7415
vn -0.5861 -0.0000 -0.8102
vn -0.4692 0.1748 0.8656
vn 1.0000 -0.0000 -0.0000
vn -0.4765 -0.0000 -0.8792
vn -0.4895 0.0930 0.8670
vn 0.9841 -0.0000 0.1775
vn 0.6710 -0.0000 0.7415
vn -0.3396 -0.0000 -0.9406
vn -0.6710 -0.0000 0.7415
vn 0.9406 -0.0000 0.3396
vn -0.7415 -0.0000 0.6710
vn -0.1775 -0.0000 -0.9841
vn -0.8102 -0.0000 0.5861
vn 0.8792 -0.0000 0.4765
vn -0.0000 -0.0000 -1.0000
vn -0.8792 -0.0000 0.4765
vn 0.8102 -0.0000 0.5861
vn 0.1775 -0.0000 -0.9841
vn -0.9406 -0.0000 0.3396
vn 0.7415 -0.0000 0.6710
vn 0.3396 -0.0000 -0.9406
vn -0.9841 -0.0000 0.1775
vn 0.5861 -0.0000 0.8102
vn 0.4765 -0.0000 -0.8792
vn -1.0000 -0.0000 -0.0000
vn 0.6224 -0.0000 -0.7827
vn 0.4765 -0.0000 0.8792
vn 0.7827 -0.0000 -0.6224
vn 0.5861 -0.0000 -0.8102
vn -0.9841 -0.0000 -0.1775
vn 0.3396 -0.0000 0.9406
vn -0.9406 -0.0000 -0.3396
vn 0.1775 -0.0000 0.9841
vn 0.8102 -0.0000 -0.5861
vn -0.6612 -0.2564 -0.7050
vn -0.1626 0.9629 -0.2152
vn -0.0387 0.9859 -0.1631
vn 0.0456 0.9833 -0.1761
vn 0.1433 0.9842 -0.1042
vn -0.0000 1.0000 -0.0000
vn -0.0961 0.9929 -0.0698
vn 0.0259 0.9888 -0.1470
vn 0.0479 0.9782 -0.2019
vn 0.1989 0.9440 -0.2632
vn -0.5333 0.6566 0.5333
vn -0.2016 0.9779 0.0552
vn -0.1100 0.9936 0.0261
vn -0.0812 0.9966 0.0143
vn -0.0700 0.9975 0.0066
vn -0.1234 0.9853 0.1181
vn -0.2184 0.9756 -0.0206
vn -0.2648 0.9637 -0.0352
vn -0.3626 0.9280 -0.0860
vn -0.5059 0.8194 -0.2695
vn -0.0923 0.9882 0.1222
vn -0.0000 0.9685 0.2490
vn -0.0756 0.9943 0.0756
vn -0.1604 0.9857 0.0513
vn -0.1707 0.9853 -0.0000
vn -0.1655 0.9551 -0.2456
vn 0.0674 0.9954 -0.0674
vn 0.0549 0.9970 0.0549
vn -0.0000 0.9886 0.1504
vn -0.0000 0.9979 0.0652
vn 0.1265 0.9839 -0.1265
vn 0.2163 0.9683 0.1245
vn 0.3246 0.9351 0.1423
vn 0.2895 0.9497 0.1192
vn 0.0756 0.9943 0.0756
vn 0.2314 0.9692 0.0840
vn 0.3094 0.9509 -0.0000
vn 0.1125 0.9937 -0.0000
vn -0.0074 0.9999 0.0074
vn -0.1442 0.9896 -0.0000
vn -0.0902 0.9918 -0.0902
vn -0.0550 0.9977 0.0400
vn -0.0577 0.9967 0.0577
vn -0.0000 0.9720 -0.2349
vn -0.1068 0.9885 0.1068
vn -0.2113 0.9774 -0.0000
vn 0.0127 0.9973 0.0723
vn -0.0688 0.9898 -0.1251
vn -0.1376 0.9905 -0.0000
vn -0.1346 0.9685 0.2094
vn -0.0691 0.9952 -0.0691
vn 0.0743 0.9959 0.0522
vn 0.0550 0.9970 0.0550
vn 0.0839 0.9929 -0.0839
vn 0.0474 0.9947 0.0908
vn -0.0000 0.9774 0.2113
vn -0.0000 0.9905 -0.1376
vn 0.1289 0.9917 -0.0000
vn -0.0000 0.9905 0.1376
vn 0.1068 0.9885 0.1068
vn 0.2113 0.9774 -0.0000
vn 0.2094 0.9685 -0.1346
vn 0.0359 0.9969 0.0696
vn 0.0385 0.9972 0.0646
vn -0.0009 0.9880 -0.1542
vt 0.909091 0.909091
vt 1.000000 0.909091
vt 1.000000 1.000000
vt 0.909091 1.000000
vt 0.000000 0.000000
vt 0.000000 0.909091
vt 0.090909 0.909091
vt 0.090909 1.000000
vt 0.000000 1.000000
vt 0.181818 0.909091
vt 0.181818 1.000000
vt 0.272727 0.909091
vt 0.272727 1.000000
vt 0.363636 0.909091
vt 0.363636 1.000000
vt 0.454545 0.909091
vt 0.454545 1.000000
vt 0.545455 0.909091
vt 0.545455 1.000000
vt 0.636364 0.909091
vt 0.636364 1.000000
vt 0.727273 0.909091
vt 0.727273 1.000000
vt 0.818182 0.909091
vt 0.818182 1.000000
vt 0.090909 0.000000
vt 0.090909 0.090909
vt 0.000000 0.090909
vt 0.090909 0.181818
vt 0.000000 0.181818
vt 0.090909 0.272727
vt 0.000000 0.272727
vt 0.090909 0.363636
vt 0.000000 0.363636
vt 0.090909 0.454545
vt 0.000000 0.454545
vt 0.090909 0.545455
vt 0.000000 0.545455
vt 0.090909 0.636364
vt 0.000000 0.636364
vt 0.090909 0.727273
vt 0.000000 0.727273
vt 0.090909 0.818182
vt 0.000000 0.818182
vt 0.181818 0.000000
vt 0.181818 0.090909
vt 0.181818 0.181818
vt 0.181818 0.272727
vt 0.181818 0.363636
vt 0.181818 0.454545
vt 0.181818 0.545455
vt 0.181818 0.636364
vt 0.181818 0.727273
vt 0.181818 0.818182
vt 0.272727 0.000000
vt 0.272727 0.090909
vt 0.272727 0.181818
vt 0.272727 0.272727
vt 0.272727 0.363636
vt 0.272727 0.454545
vt 0.272727 0.545455
vt 0.272727 0.636364
vt 0.272727 0.727273
vt 0.272727 0.818182
vt 0.363636 0.000000
vt 0.363636 0.090909
vt 0.363636 0.181818
vt 0.363636 0.272727
vt 0.363636 0.363636
vt 0.363636 0.454545
vt 0.363636 0.545455
vt 0.363636 0.636364
vt 0.363636 0.727273
vt 0.363636 0.818182
vt 0.454545 0.000000
vt 0.454545 0.090909
vt 0.454545 0.181818
vt 0.454545 0.272727
vt 0.454545 0.363636
vt 0.454545 0.454545
vt 0.454545 0.545455
vt 0.454545 0.636364
vt 0.454545 0.727273
vt 0.454545 0.818182
vt 0.545455 0.000000
vt 0.545455 0.090909
vt 0.545455 0.181818
vt 0.545455 0.272727
vt 0.545455 0.363636
vt 0.545455 0.454545
vt 0.545455 0.545455
vt 0.545455 0.636364
vt 0.545455 0.727273
vt 0.545455 0.818182
vt 0.636364 0.000000
vt 0.636364 0.090909
vt 0.636364 0.181818
vt 0.636364 0.272727
vt 0.636364 0.363636
vt 0.636364 0.454545
vt 0.636364 0.545455
vt 0.636364 0.636364
vt 0.636364 0.727273
vt 0.636364 0.818182
vt 0.727273 0.000000
vt 0.727273 0.090909
vt 0.727273 0.181818
vt 0.727273 0.272727
vt 0.727273 0.363636
vt 0.727273 0.454545
vt 0.727273 0.545455
vt 0.727273 0.636364
vt 0.727273 0.727273
vt 0.727273 0.818182
vt 0.818182 0.000000
vt 0.818182 0.090909
vt 0.818182 0.181818
vt 0.818182 0.272727
vt 0.818182 0.363636
vt 0.818182 0.454545
vt 0.818182 0.545455
vt 0.818182 0.636364
vt 0.818182 0.727273
vt 0.818182 0.818182
vt 0.909091 0.000000
vt 0.909091 0.090909
vt 0.909091 0.181818
vt 0.909091 0.272727
vt 0.909091 0.363636
vt 0.909091 0.454545
vt 0.909091 0.545455
vt 0.909091 0.636364
vt 0.909091 0.727273
vt 0.909091 0.818182
vt 1.000000 0.000000
vt 1.000000 0.090909
vt 1.000000 0.181818
vt 1.000000 0.272727
vt 1.000000 0.363636
vt 1.000000 0.454545
vt 1.000000 0.545455
vt 1.000000 0.636364
vt 1.000000 0.727273
vt 1.000000 0.818182
s 0
usemtl Material
f 45/1/1 34/2/1 4/3/1 35/4/1
f 98/7/47 108/10/47 87/11/47 88/8/47
f 108/10/48 118/12/48 86/13/48 87/11/48
f 118/12/49 128/14/49 85/15/49 86/13/49
f 128/14/50 138/16/50 84/17/50 85/15/50
f 138/16/51 148/18/51 83/19/51 84/17/51
f 148/18/52 158/20/52 82/21/52 83/19/52
f 158/20/53 168/22/53 81/23/53 82/21/53
f 168/22/54 178/24/54 80/25/54 81/23/54
f 178/24/55 188/1/55 79/4/55 80/25/55
f 46/5/56 59/26/56 89/27/56 58/28/56
f 58/28/57 89/27/57 90/29/57 57/30/57
f 57/30/58 90/29/58 91/31/58 56/32/58
f 56/32/59 91/31/59 92/33/59 55/34/59
f 55/34/60 92/33/60 93/35/60 54/36/60
f 54/36/61 93/35/61 94/37/61 53/38/61
f 53/38/62 94/37/62 95/39/62 52/40/62
f 52/40/63 95/39/63 96/41/63 51/42/63
f 51/42/64 96/41/64 97/43/64 50/44/64
f 50/44/65 97/43/65 98/7/65 49/6/65
f 59/26/66 60/45/66 99/46/66 89/27/66
f 89/27/51 99/46/51 100/47/51 90/29/51
f 90/29/51 100/47/51 101/48/51 91/31/51
f 91/31/51 101/48/51 102/49/51 92/33/51
f 92/33/51 102/49/51 103/50/51 93/35/51
f 93/35/67 103/50/67 104/51/67 94/37/67
f 94/37/68 104/51/68 105/52/68 95/39/68
f 95/39/69 105/52/69 106/53/69 96/41/69
f 96/41/70 106/53/70 107/54/70 97/43/70
f 97/43/71 107/54/71 108/10/71 98/7/71
f 60/45/51 61/55/51 109/56/51 99/46/51
f 99/46/51 109/56/51 110/57/51 100/47/51
f 100/47/51 110/57/51 111/58/51 101/48/51
f 101/48/72 111/58/72 112/59/72 102/49/72
f 103/50/67 113/60/67 114/61/67 104/51/67
f 104/51/74 114/61/74 115/62/74 105/52/74
f 105/52/75 115/62/75 116/63/75 106/53/75
f 106/53/76 116/63/76 117/64/76 107/54/76
f 107/54/76 117/64/76 118/12/76 108/10/76
f 61/55/51 62/65/51 119/66/51 109/56/51
f 109/56/51 119/66/51 120/67/51 110/57/51
f 110/57/72 120/67/72 121/68/72 111/58/72
f 113/60/77 123/70/77 124/71/77 114/61/77
f 114/61/78 124/71/78 125/72/78 115/62/78
f 115/62/79 125/72/79 126/73/79 116/63/79
f 116/63/76 126/73/76 127/74/76 117/64/76
f 117/64/51 127/74/51 128/14/51 118/12/51
f 62/65/51 63/75/51 129/76/51 119/66/51
f 119/66/72 129/76/72 130/77/72 120/67/72
f 120/67/72 130/77/72 131/78/72 121/68/72
f 125/72/81 135/82/81 136/83/81 126/73/81
f 126/73/82 136/83/82 137/84/82 127/74/82
f 127/74/82 137/84/82 138/16/82 128/14/82
f 63/75/83 64/85/83 139/86/83 129/76/83
f 129/76/84 139/86/84 140/87/84 130/77/84
f 130/77/85 140/87/85 141/88/85 131/78/85
f 131/78/85 141/88/85 142/89/85 132/79/85
f 137/84/51 147/94/51 148/18/51 138/16/51
f 64/85/87 65/95/87 149/96/87 139/86/87
f 139/86/88 149/96/88 150/97/88 140/87/88
f 140/87/51 150/97/51 151/98/51 141/88/51
f 141/88/51 151/98/51 152/99/51 142/89/51
f 145/92/91 155/102/91 156/103/91 146/93/91
f 146/93/91 156/103/91 157/104/91 147/94/91
f 147/94/91 157/104/91 158/20/91 148/18/91
f 65/95/92 66/105/92 159/106/92 149/96/92
f 149/96/51 159/106/51 160/107/51 150/97/51
f 150/97/51 160/107/51 161/108/51 151/98/51
f 151/98/51 161/108/51 162/109/51 152/99/51
f 152/99/93 162/109/93 163/110/93 153/100/93
f 154/101/95 164/111/95 165/112/95 155/102/95
f 155/102/94 165/112/94 166/113/94 156/103/94
f 156/103/96 166/113/96 167/114/96 157/104/96
f 157/104/51 167/114/51 168/22/51 158/20/51
f 66/105/97 67/115/97 169/116/97 159/106/97
f 159/106/98 169/116/98 170/117/98 160/107/98
f 160/107/51 170/117/51 171/118/51 161/108/51
f 161/108/99 171/118/99 172/119/99 162/109/99
f 162/109/100 172/119/100 173/120/100 163/110/100
f 164/111/101 174/121/101 175/122/101 165/112/101
f 165/112/51 175/122/51 176/123/51 166/113/51
f 166/113/102 176/123/102 177/124/102 167/114/102
f 167/114/51 177/124/51 178/24/51 168/22/51
f 67/115/51 68/125/51 179/126/51 169/116/51
f 169/116/98 179/126/98 180/127/98 170/117/98
f 170/117/103 180/127/103 181/128/103 171/118/103
f 171/118/99 181/128/99 182/129/99 172/119/99
f 172/119/104 182/129/104 183/130/104 173/120/104
f 173/120/51 183/130/51 184/131/51 174/121/51
f 174/121/105 184/131/105 185/132/105 175/122/105
f 175/122/106 185/132/106 186/133/106 176/123/106
f 176/123/107 186/133/107 187/134/107 177/124/107
f 177/124/106 187/134/106 188/1/106 178/24/106
f 68/125/1 47/135/1 69/136/1 179/126/1
f 181/128/51 71/138/51 72/139/51 182/129/51
f 182/129/108 72/139/108 73/140/108 183/130/108
f 183/130/109 73/140/109 74/141/109 184/131/109
f 184/131/51 74/141/51 75/142/51 185/132/51
f 185/132/51 75/142/51 76/143/51 186/133/51
f 186/133/110 76/143/110 77/144/110 187/134/110
f 187/134/51 77/144/51 78/2/51 188/1/51
usemtl Material.001
f 13/5/1 12/5/1 11/5/1 10/5/1 9/5/1 8/5/1 7/5/1 6/5/1 5/5/1 3/5/1 44/5/1 43/5/1 42/5/1 41/5/1 40/5/1 39/5/1 38/5/1 37/5/1 36/5/1 35/5/1 4/3/1 34/2/1 33/5/1 32/5/1 31/5/1 30/5/1 29/5/1 28/5/1 27/5/1 26/5/1 25/5/1 2/5/1 24/5/1 23/5/1 22/5/1 21/5/1 20/5/1 19/5/1 18/5/1 17/5/1 16/5/1 15/5/1 1/5/1 14/5/1
f 102/49/73 112/59/73 113/60/73 103/50/73
f 111/58/72 121/68/72 122/69/72 112/59/72
f 112/59/73 122/69/73 123/70/73 113/60/73
f 121/68/51 131/78/51 132/79/51 122/69/51
f 122/69/51 132/79/51 133/80/51 123/70/51
f 123/70/51 133/80/51 134/81/51 124/71/51
f 124/71/80 134/81/80 135/82/80 125/72/80
f 132/79/86 142/89/86 143/90/86 133/80/86
f 133/80/51 143/90/51 144/91/51 134/81/51
f 134/81/51 144/91/51 145/92/51 135/82/51
f 135/82/51 145/92/51 146/93/51 136/83/51
f 136/83/51 146/93/51 147/94/51 137/84/51
f 142/89/89 152/99/89 153/100/89 143/90/89
f 143/90/51 153/100/51 154/101/51 144/91/51
f 144/91/90 154/101/90 155/102/90 145/92/90
f 153/100/94 163/110/94 164/111/94 154/101/94
f 163/110/51 173/120/51 174/121/51 164/111/51
f 179/126/51 69/136/51 70/137/51 180/127/51
f 180/127/51 70/137/51 71/138/51 181/128/51
usemtl Material.002
f 6/5/2 7/5/2 51/5/2 50/5/2
f 19/5/3 20/5/3 64/5/3 63/5/3
f 32/5/4 33/5/4 77/5/4 76/5/4
f 5/5/5 6/5/5 50/5/5 49/5/5
f 18/5/6 19/5/6 63/5/6 62/5/6
f 31/5/7 32/5/7 76/5/7 75/5/7
f 3/5/8 5/5/8 49/5/8 48/5/8
f 17/5/9 18/5/9 62/5/9 61/5/9
f 30/5/10 31/5/10 75/5/10 74/5/10
f 44/5/11 3/5/11 48/5/11 88/5/11
f 43/5/12 44/5/12 88/5/12 87/5/12
f 16/5/13 17/5/13 61/5/13 60/5/13
f 29/5/14 30/5/14 74/5/14 73/5/14
f 42/5/15 43/5/15 87/5/15 86/5/15
f 15/5/16 16/5/16 60/5/16 59/5/16
f 28/5/17 29/5/17 73/5/17 72/5/17
f 24/5/18 2/5/18 47/5/18 68/5/18
f 41/5/19 42/5/19 86/5/19 85/5/19
f 1/5/20 15/5/20 59/5/20 46/5/20
f 27/5/21 28/5/21 72/5/21 71/5/21
f 14/5/22 1/5/22 46/5/22 58/5/22
f 40/5/23 41/5/23 85/5/23 84/5/23
f 13/5/24 14/5/24 58/5/24 57/5/24
f 26/5/25 27/5/25 71/5/25 70/5/25
f 39/5/26 40/5/26 84/5/26 83/5/26
f 12/5/27 13/5/27 57/5/27 56/5/27
f 25/5/28 26/5/28 70/5/28 69/5/28
f 38/5/29 39/5/29 83/5/29 82/5/29
f 11/5/30 12/5/30 56/5/30 55/5/30
f 2/5/31 25/5/31 69/5/31 47/5/31
f 37/5/32 38/5/32 82/5/32 81/5/32
f 10/5/33 11/5/33 55/5/33 54/5/33
f 23/5/34 24/5/34 68/5/34 67/5/34
f 36/5/35 37/5/35 81/5/35 80/5/35
f 9/5/36 10/5/36 54/5/36 53/5/36
f 45/1/37 35/4/37 79/4/37 188/1/37
f 22/5/38 23/5/38 67/5/38 66/5/38
f 34/2/39 45/1/39 188/1/39 78/2/39
f 35/5/40 36/5/40 80/5/40 79/5/40
f 8/5/41 9/5/41 53/5/41 52/5/41
f 21/5/42 22/5/42 66/5/42 65/5/42
f 7/5/43 8/5/43 52/5/43 51/5/43
f 20/5/44 21/5/44 65/5/44 64/5/44
f 33/5/45 34/5/45 78/5/45 77/5/45
f 49/6/46 98/7/46 88/8/46 48/9/46
