# Blender 4.3.2
# www.blender.org
mtllib slope.mtl
o Plane
v -1.000000 0.000000 1.000000
v 1.000000 0.000000 1.000000
v -1.000000 0.000000 -1.000000
v 1.000000 0.000000 -1.000000
v -0.710077 0.273702 -0.710077
v -0.710077 0.273702 0.710077
v 0.710077 0.273702 0.710077
v 0.710077 0.273702 -0.710077
v -0.710077 0.273702 -0.710077
v -0.710077 0.273702 0.710077
v 0.710077 0.273702 0.710077
v 0.710077 0.273702 -0.710077
v -0.710077 0.273702 0.000000
v 0.710077 0.273702 0.000000
v -1.000000 0.000000 0.000000
v 1.000000 0.000000 0.000000
v -0.982110 2.293431 0.000000
v 0.982110 2.293431 0.000000
v -0.982110 2.642357 0.000000
v 0.982110 2.642357 0.000000
v 0.000000 0.273702 0.710077
v 0.000000 0.273702 -0.710077
v 0.000000 0.000000 1.000000
v 0.000000 0.000000 -1.000000
v 0.000000 2.293431 0.982110
v 0.000000 2.293431 -0.982110
v 0.000000 2.642357 0.982110
v 0.000000 2.642357 -0.982110
v 0.000000 2.642357 0.000000
v -0.710077 0.273702 0.145177
v -0.710077 0.273702 -0.145177
v -0.710077 0.273702 0.000000
v 0.710077 0.273702 -0.145177
v 0.710077 0.273702 0.145177
v 0.710077 0.273702 0.000000
v -0.710077 1.925606 -0.145177
v -0.710077 1.925606 0.145177
v -0.796402 2.042330 0.000000
v 0.710077 1.925606 0.145177
v 0.710077 1.925606 -0.145177
v 0.796402 2.042330 0.000000
v 0.145177 0.273702 0.710077
v -0.145177 0.273702 0.710077
v 0.000000 0.273702 0.710077
v -0.145177 0.273702 -0.710077
v 0.145177 0.273702 -0.710077
v 0.000000 0.273702 -0.710077
v -0.145177 1.925606 0.710077
v 0.145177 1.925606 0.710077
v 0.000000 2.042330 0.796402
v 0.145177 1.925606 -0.710077
v -0.145177 1.925606 -0.710077
v 0.000000 2.042330 -0.796402
v -0.671356 0.286465 0.145177
v -0.671356 0.286465 -0.145177
v -0.757681 2.055092 0.000000
v -0.671356 1.938369 -0.145177
v -0.671356 1.938369 0.145177
v -0.145177 0.291064 -0.657403
v 0.145177 0.291064 -0.657403
v 0.000000 2.059692 -0.743728
v 0.145177 1.942968 -0.657403
v -0.145177 1.942968 -0.657403
v 0.145177 0.290900 0.657901
v -0.145177 0.290900 0.657901
v 0.000000 2.059527 0.744226
v -0.145177 1.942804 0.657901
v 0.145177 1.942804 0.657901
v 0.670731 0.286671 -0.145177
v 0.670731 0.286671 0.145177
v 0.757056 2.055298 0.000000
v 0.670731 1.938575 0.145177
v 0.670731 1.938575 -0.145177
v -0.710077 1.925606 -0.674584
v -0.674584 1.925606 -0.710077
v -0.710077 1.892530 -0.710077
v -0.674584 1.925606 0.710077
v -0.710077 1.925606 0.674584
v -0.710077 1.892530 0.710077
v 0.710077 1.925606 0.674584
v 0.674584 1.925606 0.710077
v 0.710077 1.892530 0.710077
v 0.674584 1.925606 -0.710077
v 0.710077 1.925606 -0.674584
v 0.710077 1.892530 -0.710077
v -0.982110 2.293431 -0.946736
v -0.946736 2.293431 -0.982110
v -0.946736 2.293431 0.982110
v -0.982110 2.293431 0.946736
v 0.982110 2.293431 0.946736
v 0.946736 2.293431 0.982110
v 0.946736 2.293431 -0.982110
v 0.982110 2.293431 -0.946736
v -0.946824 2.642357 -0.982110
v -0.982110 2.642357 -0.946824
v -0.982110 2.642357 0.946824
v -0.946824 2.642357 0.982110
v 0.946824 2.642357 0.982110
v 0.982110 2.642357 0.946824
v 0.982110 2.642357 -0.946824
v 0.946824 2.642357 -0.982110
v -1.000000 -0.078984 0.000000
v -1.000000 -0.078984 1.000000
v 0.000000 -0.078984 1.000000
v 1.000000 -0.078984 1.000000
v 1.000000 -0.078984 0.000000
v 1.000000 -0.078984 -1.000000
v 0.000000 -0.078984 -1.000000
v -1.000000 -0.078984 -1.000000
v 0.000000 -0.078984 0.000000
vn -0.0000 -0.0000 1.0000
vn -0.6865 0.7272 -0.0000
vn -0.0000 0.7272 0.6865
vn 0.6865 0.7272 -0.0000
vn -0.0000 0.7272 -0.6865
vn -0.0000 1.0000 -0.0000
vn -0.0000 -0.5946 -0.8040
vn 0.8040 -0.5946 -0.0000
vn -0.8040 -0.5946 -0.0000
vn -0.0000 -0.0000 -1.0000
vn -1.0000 -0.0000 -0.0000
vn 1.0000 -0.0000 -0.0000
vn -0.0000 -0.5946 0.8040
vn 0.2270 -0.6887 0.6886
vn -0.0000 0.9497 0.3130
vn 0.2270 -0.6887 -0.6886
vn 0.3130 0.9497 -0.0000
vn -0.3130 0.9497 -0.0000
vn -0.0000 0.9497 -0.3130
vn 0.6886 -0.6887 0.2270
vn -0.6886 -0.6886 0.2270
vn -0.6887 -0.6886 -0.2270
vn 0.6887 -0.6886 -0.2270
vn -0.2270 -0.6887 0.6886
vn -0.2270 -0.6887 -0.6886
vn -0.5633 0.6045 -0.5633
vn -0.5633 0.6045 0.5633
vn 0.5633 0.6045 0.5633
vn 0.5633 0.6045 -0.5633
vn 0.4886 -0.7229 -0.4886
vn 0.4886 -0.7229 0.4886
vn -0.4886 -0.7229 0.4886
vn -0.4886 -0.7229 -0.4886
vn -0.7071 -0.0002 -0.7071
vn 0.7071 -0.0002 -0.7071
vn 0.7071 -0.0002 0.7071
vn -0.7071 -0.0002 0.7071
vn -0.0000 -1.0000 -0.0000
vt 0.572588 0.144961
vt 0.855039 0.144961
vt 0.837292 0.144961
vt 0.144961 0.500000
vt 0.144961 0.855039
vt 0.000000 1.000000
vt 0.000000 0.500000
vt 0.500000 0.144961
vt 0.144961 0.144961
vt 0.000000 0.000000
vt 0.500000 0.000000
vt 0.855039 0.500000
vt 1.000000 0.000000
vt 1.000000 0.500000
vt 0.500000 0.855039
vt 0.855039 0.855039
vt 1.000000 1.000000
vt 0.500000 1.000000
vt 0.427412 0.144961
vt 0.837292 0.855039
vt 0.572588 0.855039
vt 0.842251 0.855039
vt 0.855039 0.162708
vt 0.855039 0.427412
vt 0.855039 0.157749
vt 0.144961 0.427412
vt 0.144961 0.162708
vt 0.144961 0.157749
vt 0.144961 0.572588
vt 0.144961 0.842251
vt 0.144961 0.842283
vt 0.144961 0.427412
vt 0.157749 0.855039
vt 0.157717 0.855039
vt 0.427412 0.144961
vt 0.162708 0.144961
vt 0.855039 0.157749
vt 0.855039 0.157717
vt 0.842251 0.855039
vt 0.842283 0.855039
vt 0.157749 0.144961
vt 0.157717 0.144961
vt 0.144961 0.157717
vt 0.855039 0.842251
vt 0.855039 0.842283
vt 0.500000 0.500000
vt 0.855039 0.572588
vt 0.855039 0.837292
vt 0.427412 0.855039
vt 0.162708 0.855039
vt 0.842251 0.144961
vt 0.842283 0.144961
vt 0.842251 0.144961
vt 0.144961 0.837292
vt 0.855039 0.842251
vt 0.855039 0.427412
vt 0.144961 0.572588
vt 0.855039 0.427412
vt 0.427412 0.144961
vt 0.572588 0.855039
vt 0.427412 0.855039
vt 0.144961 0.857918
vt 0.142082 0.144961
vt 0.855039 0.142082
vt 0.857918 0.855039
s 0
f 42/1/1 11/2/1 82/2/1 81/3/1 49/1/1
f 13/4/2 5/5/2 3/6/2 15/7/2
f 21/8/3 6/9/3 1/10/3 23/11/3
f 14/12/4 7/2/4 2/13/4 16/14/4
f 22/15/5 8/16/5 4/17/5 24/18/5
f 6/9/6 21/8/6 44/8/6 43/19/6 10/9/6
f 83/20/7 51/21/7 53/15/7 26/15/7 92/22/7
f 80/23/8 39/24/8 41/12/8 18/12/8 90/25/8
f 38/4/9 37/26/9 78/27/9 89/28/9 17/4/9
f 12/16/10 46/21/10 51/21/10 83/20/10 85/16/10
f 7/2/11 14/12/11 35/12/11 34/24/11 11/2/11
f 5/5/12 13/4/12 32/4/12 31/29/12 9/5/12
f 8/16/6 22/15/6 47/15/6 46/21/6 12/16/6
f 86/30/11 17/4/11 19/4/11 95/31/11
f 30/26/11 10/9/11 79/9/11 78/27/11 37/32/11
f 26/15/10 87/33/10 94/34/10 28/15/10
f 10/9/1 43/19/1 48/35/1 77/36/1 79/9/1
f 90/37/12 18/12/12 20/12/12 99/38/12
f 92/39/10 26/15/10 28/15/10 101/40/10
f 88/41/1 25/8/1 27/8/1 97/42/1
f 2/13/1 23/11/1 104/11/1 105/13/1
f 3/6/10 24/18/10 108/18/10 109/6/10
f 17/4/11 89/28/11 96/43/11 19/4/11
f 18/12/12 93/44/12 100/45/12 20/12/12
f 29/46/6 20/12/6 100/45/6 101/40/6 28/15/6
f 33/47/12 12/16/12 85/16/12 84/48/12 40/47/12
f 13/4/12 6/9/12 10/9/12 30/26/12 32/4/12
f 14/12/11 8/16/11 12/16/11 33/47/11 35/12/11
f 21/8/6 7/2/6 11/2/6 42/1/6 44/8/6
f 53/15/7 52/49/7 75/50/7 87/33/7 26/15/7
f 8/16/4 14/12/4 16/14/4 4/17/4
f 6/9/2 13/4/2 15/7/2 1/10/2
f 50/8/13 49/1/13 81/3/13 91/51/13 25/8/13
f 27/8/6 98/52/6 99/38/6 20/12/6 29/46/6
f 15/7/11 3/6/11 109/6/11 102/7/11
f 24/18/10 4/17/10 107/17/10 108/18/10
f 25/8/1 91/53/1 98/52/1 27/8/1
f 96/43/6 97/42/6 27/8/6 29/46/6 19/4/6
f 74/54/9 36/29/9 38/4/9 17/4/9 86/30/9
f 19/4/6 29/46/6 28/15/6 94/34/6 95/31/6
f 22/15/6 5/5/6 9/5/6 45/49/6 47/15/6
f 9/5/11 31/29/11 36/29/11 74/54/11 76/5/11
f 41/12/8 40/47/8 84/48/8 93/55/8 18/12/8
f 11/2/12 34/24/12 39/56/12 80/23/12 82/2/12
f 5/5/5 22/15/5 24/18/5 3/6/5
f 7/2/3 21/8/3 23/11/3 2/13/3
f 30/26/6 31/57/6 32/4/6
f 33/47/6 34/58/6 35/12/6
f 38/4/14 36/29/14 57/29/14 56/4/14
f 33/47/1 40/47/1 73/47/1 69/47/1
f 42/1/6 43/59/6 44/8/6
f 45/49/6 46/60/6 47/15/6
f 43/59/15 42/1/15 64/1/15 65/59/15
f 51/21/11 46/21/11 60/21/11 62/21/11
f 37/26/16 38/4/16 56/4/16 58/26/16
f 34/58/17 33/47/17 69/47/17 70/58/17
f 45/49/12 52/61/12 63/61/12 59/49/12
f 42/1/11 49/1/11 68/1/11 64/1/11
f 77/36/13 48/19/13 50/8/13 25/8/13 88/41/13
f 57/29/9 58/32/9 56/4/9
f 54/26/11 58/32/11 57/29/11 55/29/11
f 30/26/10 37/32/10 58/32/10 54/26/10
f 36/29/1 31/29/1 55/29/1 57/29/1
f 31/57/18 30/26/18 54/26/18 55/57/18
f 62/21/7 63/49/7 61/15/7
f 59/49/10 63/61/10 62/21/10 60/21/10
f 46/60/19 45/49/19 59/49/19 60/60/19
f 52/49/20 53/15/20 61/15/20 63/49/20
f 53/15/21 51/21/21 62/21/21 61/15/21
f 67/35/13 68/1/13 66/8/13
f 64/1/1 68/1/1 67/35/1 65/19/1
f 48/35/12 43/19/12 65/19/12 67/35/12
f 49/1/22 50/8/22 66/8/22 68/1/22
f 50/8/23 48/19/23 67/19/23 66/8/23
f 72/56/8 73/47/8 71/12/8
f 69/47/12 73/47/12 72/56/12 70/24/12
f 40/47/24 41/12/24 71/12/24 73/47/24
f 41/12/25 39/24/25 72/24/25 71/12/25
f 39/56/10 34/24/10 70/24/10 72/56/10
f 74/54/26 75/62/26 76/5/26
f 77/36/27 78/63/27 79/9/27
f 80/23/28 81/64/28 82/2/28
f 83/20/29 84/65/29 85/16/29
f 83/20/30 92/22/30 93/55/30 84/48/30
f 91/51/31 81/3/31 80/23/31 90/25/31
f 77/36/32 88/41/32 89/28/32 78/27/32
f 87/33/33 75/50/33 74/54/33 86/30/33
f 86/30/34 95/31/34 94/34/34 87/33/34
f 100/45/35 93/44/35 92/39/35 101/40/35
f 90/37/36 99/38/36 98/52/36 91/53/36
f 96/43/37 89/28/37 88/41/37 97/42/37
f 45/49/10 9/5/10 76/5/10 75/50/10 52/61/10
f 110/46/38 106/14/38 105/13/38 104/11/38
f 108/18/38 107/17/38 106/14/38 110/46/38
f 109/6/38 108/18/38 110/46/38 102/7/38
f 102/7/38 110/46/38 104/11/38 103/10/38
f 16/14/12 2/13/12 105/13/12 106/14/12
f 23/11/1 1/10/1 103/10/1 104/11/1
f 4/17/12 16/14/12 106/14/12 107/17/12
f 1/10/11 15/7/11 102/7/11 103/10/11
