# Blender 4.3.2
# www.blender.org
mtllib octagon_gem.mtl
o Circle
v 0.000000 0.000000 -0.634851
v -0.448907 0.000000 -0.448907
v -0.634851 0.000000 0.000000
v -0.448907 0.000000 0.448907
v 0.000000 0.000000 0.634851
v 0.448907 0.000000 0.448907
v 0.634851 0.000000 0.000000
v 0.448907 0.000000 -0.448907
v 0.000000 0.274196 -0.349258
v -0.246963 0.274196 -0.246963
v -0.349258 0.274196 0.000000
v -0.246963 0.274196 0.246963
v 0.000000 0.274196 0.349258
v 0.246963 0.274196 0.246963
v 0.349258 0.274196 0.000000
v 0.246963 0.274196 -0.246963
v -0.448907 0.074137 -0.448907
v 0.000000 0.074137 -0.634851
v -0.634851 0.074137 0.000000
v -0.448907 0.074137 0.448907
v 0.000000 0.074137 0.634851
v 0.448907 0.074137 0.448907
v 0.634851 0.074137 0.000000
v 0.448907 0.074137 -0.448907
vn -0.0000 -1.0000 -0.0000
vn -0.0000 1.0000 -0.0000
vn -0.9239 -0.0000 0.3827
vn -0.3827 -0.0000 -0.9239
vn 0.3827 -0.0000 -0.9239
vn 0.9239 -0.0000 0.3827
vn -0.3827 -0.0000 0.9239
vn -0.9239 -0.0000 -0.3827
vn 0.9239 -0.0000 -0.3827
vn 0.3827 -0.0000 0.9239
vn -0.2312 0.7968 -0.5582
vn -0.5582 0.7968 -0.2312
vn -0.5582 0.7968 0.2312
vn -0.2312 0.7968 0.5582
vn 0.2312 0.7968 0.5582
vn 0.5582 0.7968 0.2312
vn 0.5582 0.7968 -0.2312
vn 0.2312 0.7968 -0.5582
vt 0.000000 0.000000
s 0
f 2/1/1 1/1/1 8/1/1 7/1/1 6/1/1 5/1/1 4/1/1 3/1/1
f 10/1/2 11/1/2 12/1/2 13/1/2 14/1/2 15/1/2 16/1/2 9/1/2
f 3/1/3 4/1/3 20/1/3 19/1/3
f 1/1/4 2/1/4 17/1/4 18/1/4
f 8/1/5 1/1/5 18/1/5 24/1/5
f 6/1/6 7/1/6 23/1/6 22/1/6
f 4/1/7 5/1/7 21/1/7 20/1/7
f 2/1/8 3/1/8 19/1/8 17/1/8
f 7/1/9 8/1/9 24/1/9 23/1/9
f 5/1/10 6/1/10 22/1/10 21/1/10
f 10/1/11 9/1/11 18/1/11 17/1/11
f 11/1/12 10/1/12 17/1/12 19/1/12
f 12/1/13 11/1/13 19/1/13 20/1/13
f 13/1/14 12/1/14 20/1/14 21/1/14
f 14/1/15 13/1/15 21/1/15 22/1/15
f 15/1/16 14/1/16 22/1/16 23/1/16
f 16/1/17 15/1/17 23/1/17 24/1/17
f 9/1/18 16/1/18 24/1/18 18/1/18
