# Blender 4.3.2
# www.blender.org
mtllib sims_gem.mtl
o Circle
v 0.000000 0.000000 -0.393797
v -0.688405 0.000000 0.000000
v 0.000000 0.000000 0.393797
v 0.688405 0.000000 0.000000
v -0.688405 0.000000 0.000000
v 0.000000 0.000000 -0.393797
v 0.000000 0.000000 0.393797
v 0.688405 0.000000 0.000000
v -0.688405 0.082509 0.000000
v 0.000000 0.082509 -0.393797
v 0.000000 0.082509 0.393797
v 0.688405 0.082509 0.000000
v 0.000000 0.258481 -0.171311
v 0.000000 0.258481 0.163858
v 0.000000 0.082509 -0.171311
v 0.000000 0.082509 0.163858
vn -0.0000 -1.0000 -0.0000
vn 0.4965 -0.0000 -0.8680
vn -0.0000 1.0000 -0.0000
vn -0.3284 0.7501 0.5740
vn -0.4965 -0.0000 0.8680
vn 0.4965 -0.0000 0.8680
vn -0.4965 -0.0000 -0.8680
vn 0.3284 0.7501 0.5740
vn 0.3344 0.7392 -0.5846
vn -0.3344 0.7392 -0.5846
vn -0.2477 0.9688 -0.0000
vn 0.2477 0.9688 -0.0000
vt 0.000000 0.000000
s 0
f 2/1/1 1/1/1 4/1/1 3/1/1
f 8/1/2 6/1/2 10/1/2 12/1/2
f 4/1/3 1/1/3 6/1/3 8/1/3
f 2/1/3 3/1/3 7/1/3 5/1/3
f 3/1/3 4/1/3 8/1/3 7/1/3
f 1/1/3 2/1/3 5/1/3 6/1/3
f 9/1/4 11/1/4 14/1/4
f 5/1/5 7/1/5 11/1/5 9/1/5
f 7/1/6 8/1/6 12/1/6 11/1/6
f 6/1/7 5/1/7 9/1/7 10/1/7
f 14/1/8 11/1/8 12/1/8
f 12/1/9 10/1/9 13/1/9
f 13/1/10 10/1/10 9/1/10
f 13/1/11 9/1/11 14/1/11
f 13/1/12 14/1/12 12/1/12
l 16 14
l 13 15
