# Blender 4.3.2
# www.blender.org
mtllib exit.mtl
o Cube
v 1.000000 -0.074311 -1.000000
v -0.633391 0.134944 0.449954
v 1.000000 -0.074311 1.000000
v -0.449954 0.134944 0.633391
v -1.000000 -0.074311 -1.000000
v -1.000000 -0.074311 1.000000
v -1.000000 -0.074311 0.000000
v 0.633391 0.074311 0.000000
v -0.633391 0.074311 0.000000
v 1.000000 -0.074311 0.000000
v 0.000000 -0.074311 -1.000000
v 0.000000 0.074311 0.633391
v 0.000000 -0.074311 1.000000
v 0.000000 0.074311 -0.633391
v 0.000000 -0.074311 0.000000
v 0.000000 0.074311 1.000000
v -1.000000 0.074311 1.000000
v 1.000000 0.074311 0.000000
v 1.000000 0.074311 1.000000
v -1.000000 0.074311 0.000000
v -1.000000 0.074311 -1.000000
v 0.000000 0.074311 -1.000000
v 1.000000 0.074311 -1.000000
v 0.449954 0.074311 -0.633391
v 0.633391 0.074311 -0.449954
v 0.725109 0.074311 -0.725109
v -0.449954 0.074311 0.633391
v -0.633391 0.074311 0.449954
v -0.725109 0.074311 0.725109
v 0.633391 0.134944 -0.449954
v 0.449954 0.134944 -0.633391
v 0.633391 0.074311 0.433651
v 0.433651 0.074311 0.633391
v 0.733261 0.074311 0.733261
v -0.633391 0.074311 -0.433651
v -0.433651 0.074311 -0.633391
v -0.733261 0.074311 -0.733261
v -0.008152 0.074311 0.191588
v 0.191588 0.074311 -0.008152
v 0.008152 0.074311 -0.191588
v -0.191588 0.074311 0.008152
v 0.633391 0.134944 0.433651
v 0.433651 0.134944 0.633391
v -0.633391 0.134944 -0.433651
v -0.433651 0.134944 -0.633391
v -0.008152 0.134944 0.191588
v 0.191588 0.134944 -0.008152
v 0.008152 0.134944 -0.191588
v -0.191588 0.134944 0.008152
vn -0.0000 1.0000 -0.0000
vn -0.0000 -0.0000 1.0000
vn -1.0000 -0.0000 -0.0000
vn -0.0000 -1.0000 -0.0000
vn 1.0000 -0.0000 -0.0000
vn -0.0000 -0.0000 -1.0000
vn -0.7071 -0.0000 0.7071
vn 0.7071 -0.0000 0.7071
vn 0.7071 -0.0000 -0.7071
vn -0.7071 -0.0000 -0.7071
vt 0.658342 0.716658
vt 0.695794 0.704174
vt 0.750000 0.704174
vt 0.750000 0.750000
vt 0.625000 0.750000
vt 0.375000 0.875000
vt 0.625000 0.875000
vt 0.625000 1.000000
vt 0.375000 1.000000
vt 0.375000 0.125000
vt 0.625000 0.125000
vt 0.625000 0.250000
vt 0.375000 0.250000
vt 0.250000 0.625000
vt 0.375000 0.625000
vt 0.375000 0.750000
vt 0.250000 0.750000
vt 0.625000 0.625000
vt 0.375000 0.375000
vt 0.625000 0.375000
vt 0.625000 0.500000
vt 0.375000 0.500000
vt 0.250000 0.500000
vt 0.375000 0.000000
vt 0.625000 0.000000
vt 0.659361 0.534361
vt 0.670826 0.568756
vt 0.670826 0.625000
vt 0.125000 0.500000
vt 0.125000 0.625000
vt 0.125000 0.750000
vt 0.841658 0.533342
vt 0.804206 0.545826
vt 0.750000 0.545826
vt 0.750000 0.500000
vt 0.875000 0.500000
vt 0.693756 0.545826
vt 0.748981 0.601051
vt 0.751019 0.648949
vt 0.695794 0.704174
vt 0.804206 0.545826
vt 0.748981 0.601052
vt 0.829174 0.681244
vt 0.806244 0.704174
vt 0.773948 0.626019
vt 0.829174 0.625000
vt 0.840639 0.715639
vt 0.875000 0.750000
vt 0.829174 0.570794
vt 0.841658 0.533342
vt 0.875000 0.625000
vt 0.726052 0.623981
vt 0.670826 0.568756
vt 0.726052 0.623981
vt 0.670826 0.679206
vt 0.773949 0.626019
vt 0.840639 0.715639
vt 0.773948 0.626019
vt 0.751019 0.648948
vt 0.695794 0.704174
vt 0.658342 0.716658
vt 0.748981 0.601052
vt 0.726051 0.623981
s 0
usemtl Material
f 34/1/1 33/2/1 12/3/1 16/4/1 19/5/1
f 13/6/2 16/7/2 17/8/2 6/9/2
f 7/10/3 20/11/3 21/12/3 5/13/3
f 15/14/4 10/15/4 3/16/4 13/17/4
f 10/15/5 18/18/5 19/5/5 3/16/5
f 11/19/6 22/20/6 23/21/6 1/22/6
f 1/22/5 23/21/5 18/18/5 10/15/5
f 11/23/4 1/22/4 10/15/4 15/14/4
f 6/24/3 17/25/3 20/11/3 7/10/3
f 26/26/1 25/27/1 8/28/1 18/18/1 23/21/1
f 5/29/4 11/23/4 15/14/4 7/30/4
f 5/13/6 21/12/6 22/20/6 11/19/6
f 7/30/4 15/14/4 13/17/4 6/31/4
f 3/16/2 19/5/2 16/7/2 13/6/2
f 37/32/1 36/33/1 14/34/1 22/35/1 21/36/1
f 24/37/1 14/34/1 40/38/1
f 38/39/1 12/3/1 33/40/1
f 14/34/1 36/41/1 40/42/1
f 41/45/1 9/46/1 28/43/1
f 12/3/1 27/44/1 29/47/1 17/48/1 16/4/1
f 9/46/1 35/49/1 37/50/1 21/36/1 20/51/1
f 8/28/1 39/54/1 32/55/1
f 35/49/1 9/46/1 41/56/1
f 29/57/1 28/43/1 9/46/1 20/51/1 17/48/1
f 24/37/1 25/27/1 26/26/1
f 27/44/1 28/43/1 29/57/1
f 12/3/1 38/59/1 27/44/1
f 8/28/1 25/53/1 39/52/1
f 14/34/1 24/37/1 26/26/1 23/21/1 22/35/1
f 32/55/1 33/60/1 34/1/1
f 35/49/1 36/33/1 37/32/1
f 8/28/1 32/55/1 34/61/1 19/5/1 18/18/1
usemtl Material.001
f 28/43/7 27/44/7 4/44/7 2/43/7
f 39/52/8 25/53/8 30/53/8 47/52/8
f 49/58/1 2/43/1 4/44/1 46/59/1
f 33/60/8 32/55/8 42/55/8 43/60/8
f 32/55/9 39/54/9 47/54/9 42/55/9
f 36/33/10 35/49/10 44/49/10 45/33/10
f 31/37/1 48/62/1 47/63/1 30/53/1
f 47/63/1 48/62/1 49/58/1 46/59/1
f 46/39/1 43/40/1 42/55/1 47/54/1
f 44/49/1 49/56/1 48/42/1 45/41/1
f 25/27/9 24/37/9 31/37/9 30/27/9
f 35/49/7 41/56/7 49/56/7 44/49/7
f 41/45/10 28/43/10 2/43/10 49/45/10
f 40/42/9 36/41/9 45/41/9 48/42/9
f 27/44/8 38/59/8 46/59/8 4/44/8
f 38/39/7 33/40/7 43/40/7 46/39/7
f 24/37/10 40/38/10 48/38/10 31/37/10
