# Blender 4.3.2
# www.blender.org
mtllib play.mtl
o Cube
v 1.000000 0.080390 -1.000000
v 1.000000 -0.080390 -1.000000
v 1.000000 0.080390 1.000000
v 1.000000 -0.080390 1.000000
v -1.000000 0.080390 -1.000000
v -1.000000 -0.080390 -1.000000
v -1.000000 0.080390 1.000000
v -1.000000 -0.080390 1.000000
v 0.000000 0.080390 -1.000000
v 0.000000 0.080390 1.000000
v 0.000000 0.080390 -0.508824
v 0.000000 0.080390 0.508824
v -1.000000 -0.080390 0.508824
v -1.000000 -0.080390 -0.508824
v 1.000000 0.080390 -0.508824
v 1.000000 0.080390 0.508824
v -1.000000 0.080390 0.508824
v -1.000000 0.080390 -0.508824
v 1.000000 -0.080390 0.508824
v 1.000000 -0.080390 -0.508824
v 0.000000 -0.080390 -0.508824
v 0.000000 -0.080390 -1.000000
v 0.000000 -0.080390 1.000000
v 0.000000 -0.080390 0.508824
v -0.490888 0.080390 -1.000000
v 0.490888 0.080390 -1.000000
v 0.490888 -0.080390 1.000000
v -0.490888 -0.080390 1.000000
v -0.490888 0.080390 1.000000
v 0.490888 0.080390 1.000000
v -0.490888 -0.080390 -1.000000
v 0.490888 -0.080390 -1.000000
v -0.490888 -0.080390 0.508824
v 0.490888 -0.080390 0.508824
v 0.490888 -0.080390 -0.508824
v -0.490888 -0.080390 -0.508824
v -0.490888 0.080390 0.508824
v 0.490888 0.080390 0.508824
v 0.490888 0.080390 -0.508824
v -0.490888 0.080390 -0.508824
v 0.000000 -0.066883 -0.508824
v 0.000000 -0.066883 0.508824
v -0.490888 -0.066883 0.508824
v 0.490888 -0.066883 0.508824
v 0.000000 0.209003 -0.508824
v 0.000000 0.209003 0.508824
v -0.490888 0.209003 0.508824
v 0.490888 0.209003 0.508824
vn -0.0000 1.0000 -0.0000
vn -0.0000 -1.0000 -0.0000
vn 1.0000 -0.0000 -0.0000
vn -1.0000 -0.0000 -0.0000
vn -0.0000 -0.0000 -1.0000
vn -0.0000 -0.0000 1.0000
vn 0.9007 -0.0000 0.4345
vn -0.9007 -0.0000 -0.4345
vn -0.9007 -0.0000 0.4345
vn 0.9007 -0.0000 -0.4345
vt 0.688639 0.688603
vt 0.625000 0.688603
vt 0.625000 0.561397
vt 0.688639 0.561397
vt 0.311361 0.688603
vt 0.375000 0.688603
vt 0.375000 0.750000
vt 0.311361 0.750000
vt 0.625000 0.750000
vt 0.375000 0.188603
vt 0.625000 0.188603
vt 0.625000 0.250000
vt 0.375000 0.250000
vt 0.375000 0.436361
vt 0.625000 0.436361
vt 0.625000 0.500000
vt 0.375000 0.500000
vt 0.125000 0.688603
vt 0.188639 0.688603
vt 0.188639 0.750000
vt 0.125000 0.750000
vt 0.688639 0.688603
vt 0.688639 0.750000
vt 0.625000 0.813639
vt 0.375000 0.813639
vt 0.311361 0.561397
vt 0.375000 0.561397
vt 0.875000 0.688603
vt 0.811361 0.688603
vt 0.811361 0.561397
vt 0.875000 0.561397
vt 0.375000 0.061397
vt 0.625000 0.061397
vt 0.625000 0.936361
vt 0.375000 0.936361
vt 0.375000 0.875000
vt 0.625000 0.875000
vt 0.375000 0.000000
vt 0.625000 0.000000
vt 0.125000 0.561397
vt 0.188639 0.561397
vt 0.311361 0.500000
vt 0.311361 0.561397
vt 0.625000 1.000000
vt 0.375000 1.000000
vt 0.125000 0.500000
vt 0.188639 0.500000
vt 0.188639 0.561397
vt 0.688639 0.500000
vt 0.688639 0.561397
vt 0.811361 0.500000
vt 0.875000 0.500000
vt 0.811361 0.561397
vt 0.811361 0.688603
vt 0.875000 0.750000
vt 0.811361 0.750000
vt 0.250000 0.688603
vt 0.250000 0.750000
vt 0.250000 0.500000
vt 0.250000 0.561397
vt 0.750000 0.561397
vt 0.750000 0.688603
vt 0.750000 0.750000
vt 0.625000 0.375000
vt 0.375000 0.375000
vt 0.375000 0.313639
vt 0.625000 0.313639
vt 0.750000 0.500000
s 0
usemtl Material
f 38/1/1 16/2/1 15/3/1 39/4/1
f 34/5/2 19/6/2 4/7/2 27/8/2
f 19/6/3 16/2/3 3/9/3 4/7/3
f 14/10/4 18/11/4 5/12/4 6/13/4
f 32/14/5 26/15/5 1/16/5 2/17/5
f 13/18/2 33/19/2 28/20/2 8/21/2
f 16/2/1 38/22/1 30/23/1 3/9/1
f 4/7/6 3/9/6 30/24/6 27/25/6
f 19/6/2 34/5/2 35/26/2 20/27/2
f 2/17/3 1/16/3 15/3/3 20/27/3
f 16/2/3 19/6/3 20/27/3 15/3/3
f 17/28/1 37/29/1 40/30/1 18/31/1
f 18/11/4 14/10/4 13/32/4 17/33/4
f 29/34/6 28/35/6 23/36/6 10/37/6
f 8/38/4 7/39/4 17/33/4 13/32/4
f 33/19/2 13/18/2 14/40/2 36/41/2
f 32/42/2 2/17/2 20/27/2 35/43/2
f 28/35/6 29/34/6 7/44/6 8/45/6
f 6/46/2 31/47/2 36/48/2 14/40/2
f 1/16/1 26/49/1 39/50/1 15/3/1
f 25/51/1 5/52/1 18/31/1 40/53/1
f 37/54/1 17/28/1 7/55/1 29/56/1
f 24/57/2 23/58/2 28/20/2 33/19/2
f 22/59/2 21/60/2 36/48/2 31/47/2
f 24/57/2 21/60/2 35/26/2 34/5/2
f 11/61/1 40/30/1 37/29/1
f 12/62/1 10/63/1 30/23/1 38/22/1
f 9/64/5 22/65/5 31/66/5 25/67/5
f 9/68/1 11/61/1 39/50/1 26/49/1
f 10/37/6 23/36/6 27/25/6 30/24/6
f 6/13/5 5/12/5 25/67/5 31/66/5
f 25/51/1 40/53/1 11/61/1 9/68/1
f 26/15/5 32/14/5 22/65/5 9/64/5
f 37/54/1 29/56/1 10/63/1 12/62/1
f 38/1/1 39/4/1 11/61/1
f 33/19/2 36/41/2 21/60/2 24/57/2
f 32/42/2 35/43/2 21/60/2 22/59/2
f 34/5/2 27/8/2 23/58/2 24/57/2
f 11/61/7 37/29/7 43/29/7 41/61/7
f 37/54/5 12/62/5 42/62/5 43/54/5
f 12/62/5 38/22/5 44/22/5 42/62/5
f 38/1/9 11/61/9 41/61/9 44/1/9
usemtl Material.001
f 43/54/6 42/62/6 46/62/6 47/54/6
f 41/61/8 43/29/8 47/29/8 45/61/8
f 46/62/1 45/61/1 47/29/1
f 46/62/1 48/1/1 45/61/1
f 44/1/10 41/61/10 45/61/10 48/1/10
f 42/62/6 44/22/6 48/22/6 46/62/6
