# Blender 4.3.2
# www.blender.org
mtllib tree_big.mtl
o Cylinder
v 0.000000 -0.784825 -0.784825
v 0.000000 0.784825 -0.466183
v 0.679678 -0.784825 -0.392412
v 0.403726 0.784825 -0.233091
v 0.679678 -0.784825 0.392412
v 0.403726 0.784825 0.233091
v 0.000000 -0.784825 0.784825
v 0.000000 0.784825 0.466183
v -0.679678 -0.784825 0.392412
v -0.403726 0.784825 0.233091
v -0.679678 -0.784825 -0.392412
v -0.403726 0.784825 -0.233091
vn 0.4924 0.1731 -0.8529
vn 0.9849 0.1731 -0.0000
vn 0.4924 0.1731 0.8529
vn -0.4924 0.1731 0.8529
vn -0.0000 1.0000 -0.0000
vn -0.9849 0.1731 -0.0000
vn -0.4924 0.1731 -0.8529
vn -0.0000 -1.0000 -0.0000
vt 1.000000 0.500000
vt 1.000000 1.000000
vt 0.833333 1.000000
vt 0.833333 0.500000
vt 0.666667 1.000000
vt 0.666667 0.500000
vt 0.500000 1.000000
vt 0.500000 0.500000
vt 0.333333 1.000000
vt 0.333333 0.500000
vt 0.457846 0.370000
vt 0.250000 0.490000
vt 0.042154 0.370000
vt 0.042154 0.130000
vt 0.250000 0.010000
vt 0.457846 0.130000
vt 0.166667 1.000000
vt 0.166667 0.500000
vt -0.000000 1.000000
vt -0.000000 0.500000
vt 0.750000 0.490000
vt 0.957846 0.370000
vt 0.957846 0.130000
vt 0.750000 0.010000
vt 0.542154 0.130000
vt 0.542154 0.370000
s 0
usemtl Material.002
f 1/1/1 2/2/1 4/3/1 3/4/1
f 3/4/2 4/3/2 6/5/2 5/6/2
f 5/6/3 6/5/3 8/7/3 7/8/3
f 7/8/4 8/7/4 10/9/4 9/10/4
f 4/11/5 2/12/5 12/13/5 10/14/5 8/15/5 6/16/5
f 9/10/6 10/9/6 12/17/6 11/18/6
f 11/18/7 12/17/7 2/19/7 1/20/7
f 1/21/8 3/22/8 5/23/8 7/24/8 9/25/8 11/26/8
o Cylinder.001
v 0.000000 0.142282 -1.103970
v 0.000000 1.738955 -0.593996
v 0.956066 0.337035 -0.551985
v 0.514415 1.738955 -0.296998
v 0.956066 0.142282 0.551985
v 0.514415 1.738955 0.296998
v 0.000000 0.322186 1.103970
v 0.000000 1.738955 0.593996
v -0.956066 0.142282 0.551985
v -0.514415 1.738955 0.296998
v -0.956066 0.295075 -0.551985
v -0.514415 1.738955 -0.296998
v 0.000000 0.142282 -1.420031
v 1.229783 0.337035 -0.710015
v 1.229783 0.142282 0.710015
v 0.000000 0.322186 1.420031
v -1.229783 0.142282 0.710015
v -1.229783 0.295075 -0.710015
v 0.000000 0.561274 -1.103970
v 0.956066 0.561274 -0.551985
v 0.956066 0.561274 0.551985
v 0.000000 0.561274 1.103970
v -0.956066 0.561274 0.551985
v -0.956066 0.561274 -0.551985
vn 0.4148 0.4303 -0.8017
vn 0.9017 0.4303 0.0416
vn 0.4845 0.4286 0.7626
vn -0.4845 0.4286 0.7626
vn -0.0000 1.0000 -0.0000
vn -0.9044 0.4255 0.0323
vn -0.4242 0.4255 -0.7993
vn -1.0000 -0.0000 -0.0000
vn 0.1321 -0.9883 0.0763
vn -0.0000 -0.9883 -0.1525
vn -0.1222 -0.9900 0.0706
vn 0.1222 -0.9900 0.0706
vn -0.0000 -0.9928 -0.1202
vn -0.1041 -0.9928 0.0601
vn -0.0000 -1.0000 -0.0000
vn 1.0000 -0.0000 -0.0000
vn -0.5000 -0.0000 -0.8660
vn -0.5000 -0.0000 0.8660
vn 0.5000 -0.0000 0.8660
vn 0.5000 -0.0000 -0.8660
vt 1.000000 0.500000
vt 1.000000 1.000000
vt 0.833333 1.000000
vt 0.833333 0.500000
vt 0.666667 1.000000
vt 0.666667 0.500000
vt 0.500000 1.000000
vt 0.500000 0.500000
vt 0.333333 1.000000
vt 0.333333 0.500000
vt 0.457846 0.370000
vt 0.250000 0.490000
vt 0.042154 0.370000
vt 0.042154 0.130000
vt 0.250000 0.010000
vt 0.457846 0.130000
vt 0.166667 1.000000
vt 0.166667 0.500000
vt -0.000000 1.000000
vt -0.000000 0.500000
vt 0.911585 0.343291
vt 0.911585 0.156709
vt 0.750000 0.436582
vt 0.750000 0.490000
vt 0.957846 0.370000
vt 0.957846 0.130000
vt 0.750000 0.063418
vt 0.750000 0.010000
vt 0.588415 0.156709
vt 0.542154 0.130000
vt 0.588415 0.343291
vt 0.542154 0.370000
s 0
usemtl Material.001
f 25/27/9 14/28/9 16/29/9 26/30/9
f 26/30/10 16/29/10 18/31/10 27/32/10
f 27/32/11 18/31/11 20/33/11 28/34/11
f 28/34/12 20/33/12 22/35/12 29/36/12
f 16/37/13 14/38/13 24/39/13 22/40/13 20/41/13 18/42/13
f 29/36/14 22/35/14 24/43/14 30/44/14
f 30/44/15 24/43/15 14/45/15 25/46/15
f 15/47/16 17/48/16 33/48/16 32/47/16
f 15/47/17 13/49/17 25/50/17 26/51/17
f 17/48/18 15/47/18 26/51/18 27/52/18
f 19/53/19 17/48/19 27/52/19 28/54/19
f 21/55/20 19/53/20 28/54/20 29/56/20
f 23/57/21 21/55/21 29/56/21 30/58/21
f 13/49/22 23/57/22 30/58/22 25/50/22
f 31/49/23 32/47/23 33/48/23 34/53/23 35/55/23 36/57/23
f 21/55/24 23/57/24 36/57/24 35/55/24
f 17/48/25 19/53/25 34/53/25 33/48/25
f 13/49/26 15/47/26 32/47/26 31/49/26
f 23/57/27 13/49/27 31/49/27 36/57/27
f 19/53/28 21/55/28 35/55/28 34/53/28
o Cylinder.002
v 0.030831 1.066854 -0.936027
v 0.012753 2.574181 -0.627629
v 0.930474 1.278380 -0.401227
v 0.472686 2.611484 -0.347397
v 0.888535 1.270442 0.630309
v 0.457827 2.680125 0.187886
v -0.026507 1.524895 0.954905
v -0.016965 2.711463 0.442936
v -0.910729 1.272986 0.581499
v -0.476898 2.674159 0.162704
v -0.882001 1.136394 -0.446876
v -0.462039 2.605518 -0.372579
v 0.037629 1.039350 -1.187323
v 1.154974 1.273223 -0.520557
v 1.101641 1.292626 0.762282
v -0.033417 1.552402 1.206262
v -1.132952 1.278363 0.702080
v -1.097429 1.114266 -0.577589
v 0.018427 1.414260 -0.974377
v 0.918069 1.625786 -0.439577
v 0.876131 1.617847 0.591959
v -0.038911 1.687441 1.082310
v -0.923133 1.620392 0.543149
v -0.894405 1.483800 -0.485225
vn 0.4458 0.3227 -0.8349
vn 0.8984 0.4389 0.0124
vn 0.4193 0.5010 0.7571
vn -0.4672 0.4961 0.7318
vn -0.0029 0.9919 -0.1273
vn -0.9134 0.3997 -0.0766
vn -0.4356 0.3022 -0.8479
vn -0.3818 0.1409 -0.9134
vn 0.1202 -0.9796 0.1613
vn 0.0387 -0.9992 0.0065
vn -0.1622 -0.9637 0.2122
vn 0.1716 -0.9664 0.1912
vn 0.0349 -0.9909 0.1301
vn -0.0006 -0.9916 0.1292
vn 0.0355 -0.9933 0.1097
vn -0.5225 0.0751 0.8493
vn 0.4760 0.1133 0.8721
vn 0.4262 0.1757 -0.8874
vn -0.9984 -0.0402 -0.0409
vn 0.9990 0.0382 0.0228
vt 1.000000 0.500000
vt 1.000000 1.000000
vt 0.833333 1.000000
vt 0.833333 0.500000
vt 0.666667 1.000000
vt 0.666667 0.500000
vt 0.500000 1.000000
vt 0.500000 0.500000
vt 0.333333 1.000000
vt 0.333333 0.500000
vt 0.457846 0.370000
vt 0.250000 0.490000
vt 0.042154 0.370000
vt 0.042154 0.130000
vt 0.250000 0.010000
vt 0.457846 0.130000
vt 0.166667 1.000000
vt 0.166667 0.500000
vt -0.000000 1.000000
vt -0.000000 0.500000
vt 0.917089 0.153974
vt 0.749930 0.057093
vt 0.917765 0.346122
vt 0.749582 0.443183
vt 0.750000 0.490000
vt 0.957846 0.370000
vt 0.957846 0.130000
vt 0.750000 0.010000
vt 0.582833 0.153568
vt 0.542154 0.130000
vt 0.582817 0.346542
vt 0.542154 0.370000
s 0
usemtl Material.001
f 49/59/29 38/60/29 40/61/29 50/62/29
f 50/62/30 40/61/30 42/63/30 51/64/30
f 51/64/31 42/63/31 44/65/31 52/66/31
f 52/66/32 44/65/32 46/67/32 53/68/32
f 40/69/33 38/70/33 48/71/33 46/72/33 44/73/33 42/74/33
f 53/68/34 46/67/34 48/75/34 54/76/34
f 54/76/35 48/75/35 38/77/35 49/78/35
f 41/79/36 43/80/36 58/80/36 57/79/36
f 39/81/37 37/82/37 49/83/37 50/84/37
f 41/79/38 39/81/38 50/84/38 51/85/38
f 43/80/39 41/79/39 51/85/39 52/86/39
f 45/87/40 43/80/40 52/86/40 53/88/40
f 47/89/41 45/87/41 53/88/41 54/90/41
f 37/82/42 47/89/42 54/90/42 49/83/42
f 55/82/43 56/81/43 57/79/43 58/80/43 59/87/43 60/89/43
f 37/82/44 39/81/44 56/81/44 55/82/44
f 47/89/45 37/82/45 55/82/45 60/89/45
f 43/80/46 45/87/46 59/87/46 58/80/46
f 39/81/47 41/79/47 57/79/47 56/81/47
f 45/87/48 47/89/48 60/89/48 59/87/48
o Cylinder.003
v 0.028190 2.104457 -0.754496
v 0.012148 3.216899 -0.546903
v 0.752271 2.171578 -0.311133
v 0.406366 3.252713 -0.305519
v 0.726153 2.114462 0.531503
v 0.392146 3.318216 0.153244
v -0.024047 2.168992 0.930775
v -0.016292 3.347904 0.370624
v -0.748128 2.103211 0.487412
v -0.410510 3.312090 0.129240
v -0.722009 2.150102 -0.355223
v -0.396290 3.246588 -0.329524
v 0.036067 2.068176 -1.008599
v 0.978500 2.155134 -0.431536
v 0.944505 2.134299 0.665202
v -0.031923 2.205273 1.184879
v -0.974357 2.119655 0.607816
v -0.940362 2.130265 -0.488923
v 0.026895 2.313913 -0.809584
v 0.750976 2.379695 -0.366221
v 0.724858 2.500006 0.476415
v -0.025342 2.554536 0.875687
v -0.749423 2.488755 0.432324
v -0.723304 2.368443 -0.410312
vn 0.4687 0.3379 -0.8162
vn 0.8959 0.4441 0.0150
vn 0.4305 0.5199 0.7378
vn -0.4817 0.5129 0.7106
vn -0.0033 0.9899 -0.1414
vn -0.9030 0.4274 -0.0431
vn -0.4266 0.3290 -0.8425
vn 0.4696 0.2229 0.8543
vn 0.0045 -0.9898 0.1422
vn 0.0088 -0.9992 -0.0399
vn 0.0033 -0.9899 0.1414
vn 0.0085 -0.9995 -0.0294
vn 0.0112 -0.9905 0.1372
vn 0.5263 -0.1185 -0.8420
vn -0.9995 -0.0100 -0.0306
vn 0.9995 0.0099 0.0306
vn -0.4732 -0.1262 -0.8719
vn -0.5243 0.2142 0.8242
vt 1.000000 0.500000
vt 1.000000 1.000000
vt 0.833333 1.000000
vt 0.833333 0.500000
vt 0.666667 1.000000
vt 0.666667 0.500000
vt 0.500000 1.000000
vt 0.500000 0.500000
vt 0.333333 1.000000
vt 0.333333 0.500000
vt 0.457846 0.370000
vt 0.250000 0.490000
vt 0.042154 0.370000
vt 0.042154 0.130000
vt 0.250000 0.010000
vt 0.457846 0.130000
vt 0.166667 1.000000
vt 0.166667 0.500000
vt -0.000000 1.000000
vt -0.000000 0.500000
vt 0.590310 0.342197
vt 0.750000 0.434394
vt 0.909690 0.342197
vt 0.750000 0.490000
vt 0.957846 0.370000
vt 0.909690 0.157803
vt 0.957846 0.130000
vt 0.750000 0.065606
vt 0.750000 0.010000
vt 0.590310 0.157803
vt 0.542154 0.130000
vt 0.542154 0.370000
s 0
usemtl Material.001
f 73/91/49 62/92/49 64/93/49 74/94/49
f 74/94/50 64/93/50 66/95/50 75/96/50
f 75/96/51 66/95/51 68/97/51 76/98/51
f 76/98/52 68/97/52 70/99/52 77/100/52
f 64/101/53 62/102/53 72/103/53 70/104/53 68/105/53 66/106/53
f 77/100/54 70/99/54 72/107/54 78/108/54
f 78/108/55 72/107/55 62/109/55 73/110/55
f 71/111/56 61/112/56 79/112/56 84/111/56
f 63/113/57 61/112/57 73/114/57 74/115/57
f 65/116/58 63/113/58 74/115/58 75/117/58
f 67/118/59 65/116/59 75/117/59 76/119/59
f 69/120/59 67/118/59 76/119/59 77/121/59
f 71/111/60 69/120/60 77/121/60 78/122/60
f 61/112/61 71/111/61 78/122/61 73/114/61
f 79/112/59 80/113/59 81/116/59 82/118/59 83/120/59 84/111/59
f 67/118/62 69/120/62 83/120/62 82/118/62
f 63/113/63 65/116/63 81/116/63 80/113/63
f 69/120/64 71/111/64 84/111/64 83/120/64
f 65/116/65 67/118/65 82/118/65 81/116/65
f 61/112/66 63/113/66 80/113/66 79/112/66
o Cylinder.004
v 0.010465 2.874824 -0.733609
v 0.005740 3.973440 -0.436381
v 0.674409 3.056738 -0.338888
v 0.349388 3.987529 -0.232079
v 0.663731 2.955728 0.432066
v 0.343861 4.015315 0.166957
v -0.010891 2.982192 0.808300
v -0.005314 4.029013 0.361690
v -0.674834 2.954972 0.413579
v -0.348962 4.014924 0.157388
v -0.664156 3.066249 -0.357375
v -0.343436 3.987138 -0.241648
v 0.013000 2.862081 -0.916606
v 0.834540 3.050456 -0.428192
v 0.821327 2.962189 0.525759
v -0.013425 2.994935 0.991297
v -0.834965 2.961253 0.502884
v -0.821753 3.059788 -0.451068
v 0.010573 3.146982 -0.752559
v 0.674517 3.174203 -0.357838
v 0.663839 3.227887 0.413116
v -0.010783 3.254351 0.789350
v -0.674727 3.227131 0.394629
v -0.664048 3.173446 -0.376325
vn 0.4250 0.3743 -0.8242
vn 0.8987 0.4373 0.0320
vn 0.4455 0.4630 0.7662
vn -0.4670 0.4625 0.7536
vn 0.0004 0.9976 -0.0695
vn -0.8988 0.4382 0.0105
vn -0.3995 0.3752 -0.8364
vn 0.9999 0.0008 0.0139
vn 0.1496 -0.9761 0.1576
vn 0.0021 -0.9940 -0.1090
vn -0.0004 -0.9976 0.0695
vn 0.0022 -0.9927 -0.1207
vn -0.1626 -0.9739 0.1587
vn -0.4880 -0.0604 -0.8708
vn -0.5189 0.0830 0.8508
vn 0.4958 0.0861 0.8641
vn 0.5119 -0.0599 -0.8569
vn -0.9999 -0.0008 -0.0139
vt 1.000000 0.500000
vt 1.000000 1.000000
vt 0.833333 1.000000
vt 0.833333 0.500000
vt 0.666667 1.000000
vt 0.666667 0.500000
vt 0.500000 1.000000
vt 0.500000 0.500000
vt 0.333333 1.000000
vt 0.333333 0.500000
vt 0.457846 0.370000
vt 0.250000 0.490000
vt 0.042154 0.370000
vt 0.042154 0.130000
vt 0.250000 0.010000
vt 0.457846 0.130000
vt 0.166667 1.000000
vt 0.166667 0.500000
vt -0.000000 1.000000
vt -0.000000 0.500000
vt 0.582025 0.153020
vt 0.582025 0.346980
vt 0.917975 0.346980
vt 0.750000 0.443961
vt 0.750000 0.490000
vt 0.957846 0.370000
vt 0.917975 0.153020
vt 0.957846 0.130000
vt 0.750000 0.056039
vt 0.750000 0.010000
vt 0.542154 0.130000
vt 0.542154 0.370000
s 0
usemtl Material.001
f 97/123/67 86/124/67 88/125/67 98/126/67
f 98/126/68 88/125/68 90/127/68 99/128/68
f 99/128/69 90/127/69 92/129/69 100/130/69
f 100/130/70 92/129/70 94/131/70 101/132/70
f 88/133/71 86/134/71 96/135/71 94/136/71 92/137/71 90/138/71
f 101/132/72 94/131/72 96/139/72 102/140/72
f 102/140/73 96/139/73 86/141/73 97/142/73
f 93/143/74 95/144/74 108/144/74 107/143/74
f 87/145/75 85/146/75 97/147/75 98/148/75
f 89/149/76 87/145/76 98/148/76 99/150/76
f 91/151/77 89/149/77 99/150/77 100/152/77
f 93/143/77 91/151/77 100/152/77 101/153/77
f 95/144/78 93/143/78 101/153/78 102/154/78
f 85/146/79 95/144/79 102/154/79 97/147/79
f 103/146/77 104/145/77 105/149/77 106/151/77 107/143/77 108/144/77
f 89/149/80 91/151/80 106/151/80 105/149/80
f 85/146/81 87/145/81 104/145/81 103/146/81
f 95/144/82 85/146/82 103/146/82 108/144/82
f 91/151/83 93/143/83 107/143/83 106/151/83
f 87/145/84 89/149/84 105/149/84 104/145/84
o Cylinder.005
v -0.006585 3.672458 -0.630589
v 0.003096 4.760558 -0.224066
v 0.535467 3.667867 -0.320605
v 0.202932 4.758865 -0.109785
v 0.538018 3.782567 0.303838
v 0.203873 4.757274 0.120426
v -0.001488 3.663825 0.618298
v 0.004977 4.757375 0.236356
v -0.543540 3.833124 0.308314
v -0.194860 4.759068 0.122075
v -0.546091 3.672733 -0.316128
v -0.195800 4.760659 -0.108136
v -0.007241 3.673564 -0.790637
v 0.673744 3.667796 -0.401201
v 0.676948 3.781390 0.383291
v -0.000831 3.662719 0.778347
v -0.681816 3.833194 0.388911
v -0.685021 3.673909 -0.395581
v -0.005532 3.904929 -0.628987
v 0.536520 3.900337 -0.319002
v 0.539071 3.896021 0.305440
v -0.000435 3.896296 0.619901
v -0.542487 3.900887 0.309917
v -0.545038 3.905204 -0.314526
vn 0.4558 0.4080 -0.7911
vn 0.9083 0.4154 -0.0496
vn 0.4174 0.4095 0.8112
vn -0.3863 0.4224 0.8199
vn 0.0045 1.0000 0.0069
vn -0.8976 0.4360 -0.0641
vn -0.4582 0.4143 -0.7864
vn 0.5036 -0.0082 0.8639
vn -0.0045 -1.0000 -0.0069
vn -0.0038 -0.9871 0.1600
vn 0.1395 -0.9861 -0.0907
vn -0.2017 -0.9721 -0.1195
vn -0.0035 -0.9752 0.2213
vn 0.4971 0.0058 -0.8677
vn -1.0000 0.0061 0.0036
vn 1.0000 -0.0070 -0.0032
vn -0.5044 0.0111 -0.8634
vn -0.4964 -0.0037 0.8681
vt 1.000000 0.500000
vt 1.000000 1.000000
vt 0.833333 1.000000
vt 0.833333 0.500000
vt 0.666667 1.000000
vt 0.666667 0.500000
vt 0.500000 1.000000
vt 0.500000 0.500000
vt 0.333333 1.000000
vt 0.333333 0.500000
vt 0.457846 0.370000
vt 0.250000 0.490000
vt 0.042154 0.370000
vt 0.042154 0.130000
vt 0.250000 0.010000
vt 0.457846 0.130000
vt 0.166667 1.000000
vt 0.166667 0.500000
vt -0.000000 1.000000
vt -0.000000 0.500000
vt 0.584557 0.345518
vt 0.750001 0.441036
vt 0.915443 0.345518
vt 0.750000 0.490000
vt 0.957846 0.370000
vt 0.915443 0.154482
vt 0.957846 0.130000
vt 0.749999 0.058964
vt 0.750000 0.010000
vt 0.584557 0.154482
vt 0.542154 0.130000
vt 0.542154 0.370000
s 0
usemtl Material.001
f 121/155/85 110/156/85 112/157/85 122/158/85
f 122/158/86 112/157/86 114/159/86 123/160/86
f 123/160/87 114/159/87 116/161/87 124/162/87
f 124/162/88 116/161/88 118/163/88 125/164/88
f 112/165/89 110/166/89 120/167/89 118/168/89 116/169/89 114/170/89
f 125/164/90 118/163/90 120/171/90 126/172/90
f 126/172/91 120/171/91 110/173/91 121/174/91
f 119/175/92 109/176/92 127/176/92 132/175/92
f 111/177/93 109/176/93 121/178/93 122/179/93
f 113/180/94 111/177/94 122/179/94 123/181/94
f 115/182/95 113/180/95 123/181/95 124/183/95
f 117/184/96 115/182/96 124/183/96 125/185/96
f 119/175/97 117/184/97 125/185/97 126/186/97
f 109/176/93 119/175/93 126/186/93 121/178/93
f 127/176/93 128/177/93 129/180/93 130/182/93 131/184/93 132/175/93
f 115/182/98 117/184/98 131/184/98 130/182/98
f 111/177/99 113/180/99 129/180/99 128/177/99
f 117/184/100 119/175/100 132/175/100 131/184/100
f 113/180/101 115/182/101 130/182/101 129/180/101
f 109/176/102 111/177/102 128/177/102 127/176/102
o Cylinder.006
v 0.001963 4.356493 -0.514162
v 0.003036 5.260599 -0.194996
v 0.459765 4.495310 -0.246606
v 0.165968 5.263314 -0.099773
v 0.456860 4.379658 0.283482
v 0.164934 5.268843 0.088885
v -0.003851 4.387565 0.546015
v 0.000968 5.271657 0.182320
v -0.461653 4.379936 0.278459
v -0.161964 5.268942 0.087097
v -0.458748 4.518494 -0.251629
v -0.160930 5.263413 -0.101561
v 0.002580 4.353187 -0.626965
v 0.557803 4.493628 -0.302472
v 0.554280 4.381281 0.340419
v -0.004468 4.390871 0.658818
v -0.559691 4.381619 0.334325
v -0.556167 4.516870 -0.308566
v 0.002046 4.535315 -0.519403
v 0.459848 4.542944 -0.251847
v 0.456943 4.558480 0.278241
v -0.003768 4.566387 0.540774
v -0.461570 4.558759 0.273219
v -0.458665 4.543223 -0.256869
vn 0.4000 0.4046 -0.8224
vn 0.9022 0.4271 0.0598
vn 0.4544 0.4217 0.7847
vn -0.4622 0.4242 0.7788
vn 0.0005 0.9996 -0.0293
vn -0.8972 0.4370 0.0633
vn -0.3781 0.4109 -0.8296
vn 1.0000 -0.0005 0.0054
vn 0.1873 -0.9725 0.1383
vn 0.0007 -0.9816 -0.1908
vn -0.0005 -0.9996 0.0293
vn 0.0010 -0.9738 -0.2273
vn -0.2202 -0.9633 0.1536
vn -0.4953 -0.0252 -0.8684
vn -0.5090 0.0402 0.8599
vn 0.5007 0.0441 0.8645
vn 0.5047 -0.0255 -0.8629
vn -1.0000 0.0005 -0.0054
vt 1.000000 0.500000
vt 1.000000 1.000000
vt 0.833333 1.000000
vt 0.833333 0.500000
vt 0.666667 1.000000
vt 0.666667 0.500000
vt 0.500000 1.000000
vt 0.500000 0.500000
vt 0.333333 1.000000
vt 0.333333 0.500000
vt 0.457846 0.370000
vt 0.250000 0.490000
vt 0.042154 0.370000
vt 0.042154 0.130000
vt 0.250000 0.010000
vt 0.457846 0.130000
vt 0.166667 1.000000
vt 0.166667 0.500000
vt -0.000000 1.000000
vt -0.000000 0.500000
vt 0.578623 0.151055
vt 0.578623 0.348944
vt 0.921377 0.348945
vt 0.750001 0.447889
vt 0.750000 0.490000
vt 0.957846 0.370000
vt 0.921377 0.151056
vt 0.957846 0.130000
vt 0.749999 0.052111
vt 0.750000 0.010000
vt 0.542154 0.130000
vt 0.542154 0.370000
s 0
usemtl Material.001
f 145/187/103 134/188/103 136/189/103 146/190/103
f 146/190/104 136/189/104 138/191/104 147/192/104
f 147/192/105 138/191/105 140/193/105 148/194/105
f 148/194/106 140/193/106 142/195/106 149/196/106
f 136/197/107 134/198/107 144/199/107 142/200/107 140/201/107 138/202/107
f 149/196/108 142/195/108 144/203/108 150/204/108
f 150/204/109 144/203/109 134/205/109 145/206/109
f 141/207/110 143/208/110 156/208/110 155/207/110
f 135/209/111 133/210/111 145/211/111 146/212/111
f 137/213/112 135/209/112 146/212/112 147/214/112
f 139/215/113 137/213/113 147/214/113 148/216/113
f 141/207/113 139/215/113 148/216/113 149/217/113
f 143/208/114 141/207/114 149/217/114 150/218/114
f 133/210/115 143/208/115 150/218/115 145/211/115
f 151/210/113 152/209/113 153/213/113 154/215/113 155/207/113 156/208/113
f 137/213/116 139/215/116 154/215/116 153/213/116
f 133/210/117 135/209/117 152/209/117 151/210/117
f 143/208/118 133/210/118 151/210/118 156/208/118
f 139/215/119 141/207/119 155/207/119 154/215/119
f 135/209/120 137/213/120 153/213/120 152/209/120
