# Blender 4.3.2
# www.blender.org
mtllib trunk.mtl
o Cylinder
v 0.000000 -0.575099 -1.000000
v 0.000000 0.575099 -0.707657
v 1.397253 -0.575099 -0.833816
v 0.612652 0.575099 -0.353715
v 0.866025 -0.575099 0.500000
v 0.612652 0.575099 0.353715
v 0.000000 0.575099 0.683997
v -0.866025 -0.575099 0.500000
v -0.652265 0.577549 0.315542
v -1.422203 -0.575099 -0.572983
v -0.586426 0.577549 -0.346350
v 0.704893 0.575099 -0.406970
v 0.000000 0.575099 -0.813940
v 0.704893 0.575099 0.406970
v -0.051687 -0.575099 0.970158
v -0.704893 0.575099 0.406970
v -0.704893 0.575099 -0.406970
v -0.000000 0.391070 -0.623880
v 0.540296 0.391070 -0.311940
v 0.540296 0.391070 0.311940
v -0.000000 0.391070 0.623880
v -0.540296 0.391070 0.311940
v -0.540296 0.391070 -0.311940
v 0.593137 -0.575099 -0.657552
v 0.866025 -0.575099 -0.184895
v 1.517531 -0.575099 -0.625488
v -0.866025 -0.575099 -0.031076
v -0.828408 -0.087155 -0.478282
v -0.459926 -0.575099 -0.734462
v -1.261067 -0.575099 -0.968202
v 0.051687 -0.575099 0.970158
v -0.051687 -0.575099 0.970158
v 0.000000 0.575099 0.774173
v 0.000000 0.575099 0.774173
v 0.051687 -0.575099 0.970158
v -1.370565 -0.340725 -0.776397
v -1.007624 -0.163983 -0.618024
v -1.046243 -0.179293 -0.602028
v -0.981443 -0.136871 -0.580861
v 0.842273 -0.117272 -0.467268
v 0.826344 -0.116208 -0.495420
v 0.835075 -0.060183 -0.482131
v 1.398317 -0.347115 -0.705765
vn 0.8346 0.2668 -0.4819
vn -0.4770 0.1529 0.8655
vn -0.0000 1.0000 -0.0000
vn -0.4654 0.3663 0.8058
vn -0.4785 0.1447 -0.8661
vn -0.5895 0.5996 0.5413
vn 0.4971 0.4843 0.7200
vn -0.0048 0.9999 0.0121
vn -0.0289 0.9996 -0.0013
vn -0.0048 0.9999 -0.0113
vn 0.4865 0.3199 0.8130
vn 0.4752 0.2867 -0.8319
vn -0.9306 0.3659 -0.0000
vn 0.9183 0.3931 0.0470
vn -0.4611 0.3198 -0.8277
vn 0.9894 0.1434 0.0249
vn -0.9893 0.1447 0.0186
vn 0.4731 0.1434 -0.8692
vn -0.0000 -1.0000 -0.0000
vn 0.4770 0.1529 0.8655
vn 0.2551 0.5640 -0.7854
vn -0.5697 0.5804 0.5819
vn -0.9190 -0.1227 -0.3747
vn -0.0000 0.1680 0.9858
vn -0.4548 0.8410 -0.2931
vn -0.4013 0.9108 -0.0969
vn 0.0237 0.6398 -0.7682
vn 0.8699 -0.0186 -0.4929
vn 0.3231 0.9348 -0.1475
vn -0.1756 0.4333 -0.8840
vt 0.892188 0.399016
vt 0.830045 0.575226
vt 0.827553 0.457622
vt 0.490053 0.500000
vt 0.487779 1.000000
vt 0.333333 1.000000
vt 0.333333 0.500000
vt 0.430648 0.145703
vt 0.252967 0.048947
vt 0.265241 0.018799
vt 0.457846 0.130000
vt 0.430648 0.354297
vt 0.250000 0.458661
vt 0.250000 0.433958
vt 0.409313 0.341979
vt 0.088513 0.500000
vt 0.166667 0.616727
vt 0.166667 1.000000
vt -0.000000 1.000000
vt -0.000000 0.500000
vt 0.244821 0.500000
vt 0.173183 0.606994
vt 0.212401 0.563412
vt 0.830164 0.573703
vt 0.780816 0.500000
vt 0.457846 0.370000
vt 0.250000 0.490000
vt 0.071274 0.146812
vt 0.042154 0.130000
vt 0.250000 0.027580
vt 0.090687 0.341979
vt 0.042154 0.370000
vt 0.090687 0.158021
vt 0.250000 0.066042
vt 0.409313 0.158021
vt 0.833333 0.596040
vt 0.833333 1.000000
vt 0.666667 1.000000
vt 0.666667 0.500000
vt 1.000000 0.500000
vt 1.000000 1.000000
vt 0.833333 0.596040
vt 0.836388 0.573875
vt 0.885851 0.500000
vt 0.957846 0.294375
vt 0.892353 0.407813
vt 0.930292 0.338288
vt 0.512221 1.000000
vt 0.509947 0.500000
vt 0.228934 0.424923
vt 0.162921 0.611133
vt 0.166667 0.616727
vt 0.639618 0.426271
vt 0.542154 0.257458
vt 0.609449 0.374016
vt 0.173183 0.606994
vt 0.204757 0.567669
vt 0.737595 0.017162
vt 0.762405 0.017162
vt 0.750000 0.490000
vt 0.957846 0.130000
vt 0.542154 0.130000
vt 0.162921 0.611132
vt 0.170979 0.609314
vt 0.831028 0.574995
vt 0.838572 0.570612
vt 0.836388 0.573875
vt 0.880291 0.508303
s 0
usemtl Material.001
f 32/4/2 33/5/2 16/6/2 8/7/2
f 6/8/3 7/9/3 33/10/3 14/11/3
f 4/12/4 2/13/4 18/14/4 19/15/4
f 29/16/5 28/17/5 17/18/5 13/19/5 1/20/5
f 10/21/6 38/22/6 36/23/6
f 40/24/7 25/25/7 26/3/7 43/2/7
f 2/13/3 4/12/3 12/26/3 13/27/3
f 4/12/3 6/8/3 14/11/3 12/26/3
f 7/9/8 9/28/8 16/29/8 33/30/8
f 33/5/3 32/4/3 15/4/3 34/5/3
f 9/28/9 11/31/9 17/32/9 16/29/9
f 11/31/10 2/13/10 13/27/10 17/32/10
f 2/13/11 11/31/11 23/31/11 18/14/11
f 9/28/12 7/9/12 21/34/12 22/33/12
f 6/8/13 4/12/13 19/15/13 20/35/13
f 11/31/14 9/28/14 22/33/14 23/31/14
f 7/9/15 6/8/15 20/35/15 21/34/15
f 25/25/16 40/24/16 42/36/16 12/37/16 14/38/16 5/39/16
f 8/7/17 16/6/17 17/18/17 28/17/17 27/21/17
f 1/40/18 13/41/18 12/37/18 42/42/18 41/43/18 24/44/18
f 25/45/19 24/46/19 3/1/19 26/47/19
f 5/39/20 14/38/20 33/48/20 31/49/20
f 28/17/21 29/16/21 30/50/21 37/51/21 39/52/21
f 29/53/19 27/54/19 10/54/19 30/55/19
f 27/21/22 28/17/22 39/52/22 38/56/22 10/21/22
f 34/5/24 15/4/24 35/49/24
f 32/58/3 31/59/3 35/59/3 15/58/3
f 1/60/19 24/46/19 25/45/19 5/61/19 31/59/19 32/58/19 8/62/19 27/54/19 29/53/19
f 31/49/3 33/48/3 34/48/3 35/49/3
f 37/63/25 38/64/25 39/52/25
f 36/23/26 38/22/26 37/63/26
f 37/63/27 30/50/27 36/57/27
f 40/24/28 41/65/28 42/42/28
f 43/66/29 41/67/29 40/24/29
f 24/44/30 41/67/30 43/66/30 3/68/30
usemtl Material
f 3/1/1 43/2/1 26/3/1
f 19/15/3 18/14/3 23/31/3 22/33/3 21/34/3 20/35/3
f 10/54/23 36/57/23 30/50/23
