# Blender 4.3.2
# www.blender.org
mtllib stone_2_snowy.mtl
o Icosphere
v -0.513617 -0.739870 -0.964586
v 0.998636 -0.692389 0.594368
v 0.998636 -0.692389 0.594368
v 1.279788 -0.389575 0.125907
v 0.755475 -0.599408 1.367893
v -0.329994 -0.739869 1.284133
v -0.117492 -0.599408 1.726529
v -1.011467 -0.599408 0.955283
v 0.390543 0.740216 1.519753
v -0.359259 0.599408 1.530668
v 0.177544 0.220708 1.876352
v 0.630457 0.371577 1.740143
v 1.383456 0.860839 -0.110151
v 0.197229 1.037256 -0.767494
v -0.745018 -0.195551 -1.634906
v -0.224634 -0.279246 -1.876352
v -0.513617 -0.739870 -0.964586
v -0.906554 -0.599408 -1.137852
v -1.348332 0.070317 -0.727174
v -1.226132 0.620689 0.636421
v -1.262392 0.599408 0.833517
v -0.512206 1.029830 -0.461437
v -0.493427 0.583512 -1.456732
v -0.943700 0.070320 -1.431321
v -0.897670 0.039003 -1.494678
v 0.190664 0.237018 -1.876352
v 0.343094 0.314523 -1.813400
v -1.533862 -0.599408 0.046204
v -1.537419 -0.599408 -0.040014
v -1.523740 -0.609867 0.000000
v -1.262392 0.599408 1.102528
v -1.243180 0.569888 1.177288
v -1.225188 0.599408 1.174924
v -1.235471 0.615208 1.134910
v -1.085636 -0.728629 -0.037743
v -0.329994 -0.739869 1.284133
v -0.286618 -0.739869 1.208648
v -0.265130 -0.737551 1.250459
v 0.177544 0.220708 1.876352
v 0.166328 0.189532 1.870657
v -0.849356 -0.074440 1.518096
v -0.856221 -0.024685 1.532754
v 0.380510 0.755633 1.401040
v 0.390543 0.740216 1.519753
v 0.428601 0.744839 1.457279
v 1.383456 0.860839 -0.110151
v 1.379168 0.809116 -0.065174
v 1.350695 0.851337 -0.174352
v 0.619794 0.633755 1.525162
v 1.332387 0.244863 0.425485
v 1.325376 0.160292 0.457026
v 1.009149 -0.284070 1.367890
v 1.019575 -0.226314 1.382694
v 1.379168 0.809116 -0.065174
v 1.350695 0.851337 -0.174352
v 0.197229 1.037256 -0.767494
v 0.160136 1.012887 -0.804511
v 0.724533 0.612553 -1.433996
v 0.755228 0.678610 -1.341270
v 0.873417 -0.736533 -0.696087
v 0.818239 -0.739869 -0.714079
v 0.786552 -0.739869 -0.803236
v -0.268511 -0.541286 -1.723940
v 0.786552 -0.739869 -0.803236
v 0.830460 -0.691934 -0.849329
v 0.827531 -0.732041 -0.789667
v -0.476658 1.006660 0.506385
v -0.592124 0.992792 0.496246
v -0.490867 1.010189 0.497041
v -1.348332 0.070317 -0.727174
v -1.396714 0.059084 -0.535958
v -1.540094 -0.517673 0.021952
v -1.537419 -0.599408 -0.040014
v -1.534886 -0.597834 0.042219
v 0.724352 0.408996 -1.550338
v 0.666516 0.357429 -1.611507
v 1.242184 -0.196722 -0.836527
vn 0.3634 -0.2923 0.8846
vn -0.9685 -0.0000 0.2489
vn -0.8378 -0.2574 0.4814
vn 0.0508 -0.9983 0.0292
vn -0.2589 -0.9551 0.1440
vn -0.0080 0.5836 0.8120
vn -0.1841 0.8956 -0.4051
vn 0.3952 0.8665 0.3049
vn 0.0797 0.9894 0.1218
vn 0.1116 -0.9754 0.1901
vn 0.8459 0.3182 0.4280
vn -0.3634 0.2923 0.8846
vn -0.3644 0.3110 -0.8778
vn 0.8906 -0.3818 0.2471
vn 0.0302 -0.9694 -0.2437
vn 0.8613 0.2140 -0.4608
vn 0.7176 -0.5885 -0.3724
vn 0.1689 0.9791 0.1129
vn -0.5048 -0.5179 -0.6906
vn -0.2709 -0.9499 -0.1557
vn -0.9705 0.2413 -0.0000
vn -0.6951 0.6632 -0.2774
vn 0.5289 -0.4207 -0.7371
vn -0.5815 0.4776 -0.6586
vn -0.0710 0.7093 -0.7014
vn 0.2936 0.9125 -0.2849
vn -0.7698 0.5009 0.3956
vn -0.6822 -0.7307 0.0281
vn -0.8378 -0.2574 -0.4814
vn -0.0074 -1.0000 -0.0043
vn 0.9709 0.0478 -0.2347
vn -0.2637 -0.2219 0.9387
vn -0.4548 -0.3961 0.7977
vn -0.1604 0.9100 0.3823
vn -0.5071 0.8619 -0.0058
vn 0.8441 0.3103 0.4373
vn 0.7528 -0.6510 -0.0974
vn 0.9561 -0.0841 0.2807
vn 0.8414 -0.3926 -0.3713
vn 0.9953 -0.0887 -0.0389
vn -0.0377 0.8290 -0.5580
vn 0.5287 -0.4563 -0.7158
vn 0.1423 -0.9862 -0.0846
vn -0.0055 -1.0000 0.0006
vn 0.3227 -0.7928 -0.5171
vn 0.3108 -0.7912 -0.5268
vn -0.1973 -0.9310 -0.3072
vn 0.1469 -0.8306 -0.5371
vn -0.1216 0.9922 0.0282
vn 0.1208 0.9888 0.0877
vn -0.9979 -0.0568 0.0318
vn -0.9763 0.0499 -0.2108
vn -0.8322 0.5375 -0.1364
vn 0.7635 -0.0993 -0.6381
vn 0.0231 0.8047 -0.5933
vt 0.153101 0.265180
vt 0.152182 0.261085
vt 0.128918 0.157461
vt 0.219897 0.157461
vt 0.243811 0.198879
vt 0.244435 0.206465
vt 0.199096 0.284996
vt 0.904614 0.314921
vt 0.819903 0.168197
vt 0.822301 0.157668
vt 0.822659 0.157461
vt 0.911330 0.311044
vt 0.910749 0.157461
vt 0.955888 0.226414
vt 0.956417 0.232949
vt 0.129508 0.108583
vt 0.132814 0.107763
vt 0.469316 0.107763
vt 0.471942 0.108943
vt 0.322491 0.124562
vt 0.842282 0.115718
vt 0.971307 0.107763
vt 0.822659 0.157461
vt 0.820319 0.153760
vt 0.212189 0.321954
vt 0.199096 0.344846
vt 0.094124 0.314921
vt 0.599179 0.407975
vt 0.601749 0.402977
vt 0.647028 0.314921
vt 0.666541 0.407975
vt 0.212189 0.321954
vt 0.363637 0.314921
vt 0.205403 0.343699
vt 0.491731 0.407975
vt 0.181524 0.348123
vt 0.172173 0.343699
vt 0.119603 0.107763
vt 0.126533 0.107361
vt 0.261558 0.099529
vt 0.325289 0.248500
vt 0.360417 0.309344
vt 0.213022 0.309344
vt 0.199096 0.284996
vt 0.047327 0.232949
vt 0.003877 0.314921
vt 0.002239 0.311044
vt 0.612085 0.199513
vt 0.666989 0.210506
vt 0.684776 0.241314
vt 0.647028 0.314921
vt 0.572936 0.267322
vt 0.352526 0.180087
vt 0.323316 0.239380
vt 0.243811 0.198879
vt 0.490768 0.106043
vt 0.617239 0.077150
vt 0.613358 0.155571
vt 0.432886 0.212358
vt 0.508761 0.286121
vt 0.499231 0.308606
vt 0.490372 0.314921
vt 0.370246 0.314921
vt 0.421365 0.193703
vt 0.418589 0.108943
vt 0.423034 0.108221
vt 0.425554 0.114161
vt 0.057797 0.398984
vt 0.056393 0.399669
vt 0.164542 0.344846
vt 0.158217 0.348449
vt 0.619598 0.162102
vt 0.707924 0.157461
vt 0.702685 0.107763
vt 0.794082 0.115718
vt 0.816045 0.153760
vt 0.814305 0.157461
vt 0.819903 0.168197
vt 0.883525 0.314921
vt 0.776166 0.243951
vt 0.691476 0.245427
vt 0.759708 0.245427
vt 0.868074 0.319444
vt 0.787207 0.401661
vt 0.657904 0.310931
vt 0.440572 0.194309
vt 0.486935 0.117095
vt 0.600774 0.165063
vt 0.648241 0.304594
vt 0.642559 0.323611
vt 0.556095 0.276901
vt 0.370246 0.314921
vt 0.490372 0.314921
vt 0.907972 0.312982
vt 0.909091 0.314921
vt 0.907152 0.314921
vt 0.816823 0.155106
vt 0.816776 0.155232
vt 0.816045 0.153760
vt 0.691476 0.245427
vt 0.835592 0.107762
vt 0.132814 0.107763
vt 0.360417 0.309344
vt 0.432886 0.212358
vt 0.090624 0.226414
vt 0.001939 0.318279
vt 0.003877 0.314921
vt 0.056393 0.399669
vt 0.046837 0.396045
vt 0.868074 0.319444
vt 0.904614 0.314921
vt 0.907152 0.318279
vt 0.851915 0.401005
vt 0.417034 0.198379
vt 0.360121 0.309843
vt 0.325289 0.248500
vt 0.419308 0.203701
vt 0.498338 0.316539
vt 0.499231 0.308606
vt 0.601509 0.403444
vt 0.443298 0.198894
vt 0.612879 0.167962
vt 0.572936 0.267322
vt 0.517681 0.280610
vt 0.495569 0.107763
vt 0.486030 0.107763
vt 0.473062 0.107763
vt 0.469316 0.107763
vt 0.492266 0.107763
vt 0.057792 0.398960
vt 0.046837 0.396045
vt 0.780997 0.407975
vt 0.847261 0.407975
vt 0.656416 0.407975
vt 0.791922 0.403982
vt 0.181524 0.348123
vt 0.815943 0.157461
vt 0.816776 0.155232
vt 0.776166 0.243951
vt 0.510817 0.281272
vt 0.517681 0.280610
s 0
usemtl Material.001
f 39/1/1 40/2/1 7/3/1 5/4/1 52/5/1 53/6/1 12/7/1 11/1/1
f 31/8/2 72/9/2 74/10/2 28/11/2 32/12/2
f 28/11/3 8/13/3 41/14/3 42/15/3 32/12/3
f 38/16/4 37/17/4 61/18/4 60/19/4 2/20/4
f 35/21/5 36/22/5 6/22/5 8/13/5 28/23/5 30/24/5
f 49/25/6 9/26/6 10/27/6 11/1/6 12/7/6
f 56/28/7 57/29/7 23/30/7 22/31/7 14/28/7
f 9/26/8 49/32/8 46/33/8 13/33/8 45/34/8 44/26/8
f 13/33/9 14/35/9 43/36/9 45/37/9
f 36/38/10 38/39/10 2/40/10 3/40/10 5/4/10 7/3/10 6/38/10
f 53/6/11 50/41/11 47/42/11 49/43/11 12/44/11
f 42/45/12 39/1/12 11/1/12 10/27/12 33/46/12 32/47/12
f 16/48/13 15/49/13 25/50/13 23/51/13 26/52/13
f 3/40/14 4/53/14 51/54/14 52/55/14 5/4/14
f 64/56/15 62/56/15 1/57/15 17/57/15 63/58/15
f 77/59/16 75/60/16 58/61/16 59/62/16 48/63/16 55/63/16
f 77/64/17 60/65/17 66/66/17 65/67/17
f 67/68/18 69/69/18 44/70/18 43/71/18
f 15/49/19 16/48/19 63/72/19 18/73/19
f 1/74/20 35/75/20 30/76/20 29/77/20 18/73/20 17/74/20
f 72/78/21 31/8/21 21/79/21 71/80/21
f 24/81/22 19/82/22 20/83/22 22/84/22 23/85/22
f 77/86/23 65/87/23 63/88/23
f 23/89/24 25/50/24 24/81/24
f 26/52/25 23/90/25 27/91/25
f 46/33/26 48/92/26 59/93/26 56/35/26 14/35/26 13/33/26
f 31/8/27 32/94/27 33/95/27 34/96/27
f 28/97/28 74/98/28 73/77/28 29/77/28 30/99/28
f 15/49/29 18/73/29 29/77/29 73/77/29 70/82/29 19/82/29 24/100/29 25/50/29
f 36/38/4 37/17/4 38/16/4
f 36/38/30 35/101/30 37/102/30
f 54/103/31 77/104/31 55/63/31
f 39/1/32 42/45/32 41/105/32 40/2/32
f 6/22/33 7/3/33 40/2/33 41/105/33 8/13/33
f 43/36/9 44/70/9 45/37/9
f 34/106/34 33/107/34 10/27/34 9/70/34 44/70/34 69/108/34 68/109/34
f 22/84/35 20/110/35 21/79/35 31/111/35 34/112/35 68/113/35
f 49/43/36 47/42/36 46/33/36
f 4/53/37 3/20/37 2/20/37 60/65/37 77/114/37
f 50/41/38 53/6/38 52/55/38 51/54/38
f 46/33/39 47/115/39 54/115/39 55/63/39 48/63/39
f 50/116/40 51/54/40 4/53/40 77/117/40 54/103/40 47/103/40
f 56/28/41 59/118/41 58/119/41 57/120/41
f 77/121/42 63/122/42 16/48/42 26/123/42 27/91/42 76/124/42
f 64/125/43 66/126/43 60/127/43 61/128/43 62/125/43
f 35/101/44 1/74/44 62/125/44 61/128/44 37/102/44
f 64/125/45 65/129/45 66/126/45
f 63/88/46 65/87/46 64/56/46
f 18/73/47 63/58/47 17/57/47
f 67/130/48 68/131/48 69/108/48
f 22/132/49 68/113/49 67/133/49
f 14/35/50 22/134/50 67/135/50 43/136/50
f 72/137/51 73/77/51 74/138/51
f 70/82/52 73/77/52 72/78/52 71/80/52
f 70/82/53 71/139/53 21/79/53 20/83/53 19/82/53
f 77/121/54 76/124/54 75/140/54
f 75/60/55 76/141/55 27/91/55 23/90/55 57/120/55 58/119/55
o Icosphere.001
v -0.513617 -0.534990 -0.964586
v 0.998636 -0.487509 0.594368
v 0.998636 -0.487509 0.594368
v 1.279788 -0.184695 0.125907
v 0.755475 -0.394528 1.367893
v -0.329994 -0.534989 1.284133
v -0.117492 -0.394528 1.726529
v -1.011467 -0.394528 0.955283
v 0.390543 0.945096 1.519753
v -0.359259 0.804288 1.530668
v 0.177544 0.425588 1.876352
v 0.630457 0.576457 1.740143
v 1.383456 1.065719 -0.110151
v 0.197229 1.242136 -0.767494
v -0.745018 0.009329 -1.634906
v -0.224634 -0.074366 -1.876352
v -0.513617 -0.534990 -0.964586
v -0.906554 -0.394528 -1.137852
v -1.348332 0.275197 -0.727174
v -1.226132 0.825569 0.636421
v -1.262392 0.804288 0.833517
v -0.512206 1.234710 -0.461437
v -0.493427 0.788392 -1.456732
v -0.943700 0.275200 -1.431321
v -0.897670 0.243883 -1.494678
v 0.190664 0.441898 -1.876352
v 0.343094 0.519403 -1.813400
v -1.533862 -0.394528 0.046204
v -1.537419 -0.394528 -0.040014
v -1.523740 -0.404987 0.000000
v -1.262392 0.804288 1.102528
v -1.243180 0.774768 1.177288
v -1.225188 0.804288 1.174924
v -1.235471 0.820088 1.134910
v -1.085636 -0.523749 -0.037743
v -0.329994 -0.534989 1.284133
v -0.286618 -0.534989 1.208648
v -0.265130 -0.532671 1.250459
v 0.177544 0.425588 1.876352
v 0.166328 0.394412 1.870657
v -0.849356 0.130440 1.518096
v -0.856221 0.180195 1.532754
v 0.380510 0.960513 1.401040
v 0.390543 0.945096 1.519753
v 0.428601 0.949719 1.457279
v 1.383456 1.065719 -0.110151
v 1.379168 1.013996 -0.065174
v 1.350695 1.056217 -0.174352
v 0.619794 0.838635 1.525162
v 1.332387 0.449743 0.425485
v 1.325376 0.365172 0.457026
v 1.009149 -0.079190 1.367890
v 1.019575 -0.021434 1.382694
v 1.379168 1.013996 -0.065174
v 1.350695 1.056217 -0.174352
v 0.197229 1.242136 -0.767494
v 0.160136 1.217767 -0.804511
v 0.724533 0.817433 -1.433996
v 0.755228 0.883490 -1.341270
v 0.873417 -0.531653 -0.696087
v 0.818239 -0.534990 -0.714079
v 0.786552 -0.534990 -0.803236
v -0.268511 -0.336406 -1.723940
v 0.786552 -0.534990 -0.803236
v 0.830460 -0.487054 -0.849329
v 0.827531 -0.527161 -0.789667
v -0.476658 1.211540 0.506385
v -0.592124 1.197672 0.496246
v -0.490867 1.215069 0.497041
v -1.348332 0.275197 -0.727174
v -1.396714 0.263964 -0.535958
v -1.540094 -0.312793 0.021952
v -1.537419 -0.394528 -0.040014
v -1.534886 -0.392954 0.042219
v 0.724352 0.613876 -1.550338
v 0.666516 0.562309 -1.611507
v 1.242184 0.008158 -0.836527
vn 0.3634 -0.2923 0.8846
vn -0.9685 -0.0000 0.2489
vn -0.8378 -0.2574 0.4814
vn 0.0508 -0.9983 0.0292
vn -0.2589 -0.9551 0.1440
vn -0.0080 0.5836 0.8120
vn -0.1841 0.8956 -0.4051
vn 0.3952 0.8665 0.3049
vn 0.0797 0.9894 0.1218
vn 0.1116 -0.9754 0.1901
vn 0.8459 0.3182 0.4280
vn -0.3634 0.2923 0.8846
vn -0.3644 0.3110 -0.8778
vn 0.8906 -0.3818 0.2471
vn 0.0302 -0.9694 -0.2437
vn 0.8613 0.2140 -0.4608
vn 0.7176 -0.5885 -0.3724
vn 0.1689 0.9791 0.1129
vn -0.5048 -0.5179 -0.6906
vn -0.2709 -0.9499 -0.1557
vn -0.9705 0.2413 -0.0000
vn -0.6951 0.6632 -0.2774
vn 0.5289 -0.4207 -0.7371
vn -0.5815 0.4776 -0.6586
vn -0.0710 0.7093 -0.7014
vn 0.2936 0.9125 -0.2849
vn -0.7698 0.5009 0.3956
vn -0.6822 -0.7307 0.0281
vn -0.8378 -0.2574 -0.4814
vn -0.0074 -1.0000 -0.0043
vn 0.9709 0.0478 -0.2347
vn -0.2637 -0.2219 0.9387
vn -0.4548 -0.3961 0.7977
vn -0.1604 0.9100 0.3823
vn -0.5071 0.8619 -0.0058
vn 0.8441 0.3103 0.4373
vn 0.7528 -0.6510 -0.0974
vn 0.9561 -0.0841 0.2807
vn 0.8414 -0.3926 -0.3713
vn 0.9953 -0.0887 -0.0389
vn -0.0377 0.8290 -0.5580
vn 0.5287 -0.4563 -0.7158
vn 0.1423 -0.9862 -0.0846
vn -0.0055 -1.0000 0.0006
vn 0.3227 -0.7928 -0.5171
vn 0.3108 -0.7912 -0.5268
vn -0.1973 -0.9310 -0.3072
vn 0.1469 -0.8306 -0.5371
vn -0.1216 0.9922 0.0282
vn 0.1208 0.9888 0.0877
vn -0.9979 -0.0568 0.0318
vn -0.9763 0.0499 -0.2108
vn -0.8322 0.5375 -0.1364
vn 0.7635 -0.0993 -0.6381
vn 0.0231 0.8047 -0.5933
vt 0.153101 0.265180
vt 0.152182 0.261085
vt 0.128918 0.157461
vt 0.219897 0.157461
vt 0.243811 0.198879
vt 0.244435 0.206465
vt 0.199096 0.284996
vt 0.904614 0.314921
vt 0.819903 0.168197
vt 0.822301 0.157668
vt 0.822659 0.157461
vt 0.911330 0.311044
vt 0.910749 0.157461
vt 0.955888 0.226414
vt 0.956417 0.232949
vt 0.129508 0.108583
vt 0.132814 0.107763
vt 0.469316 0.107763
vt 0.471942 0.108943
vt 0.322491 0.124562
vt 0.842282 0.115718
vt 0.971307 0.107763
vt 0.822659 0.157461
vt 0.820319 0.153760
vt 0.212189 0.321954
vt 0.199096 0.344846
vt 0.094124 0.314921
vt 0.599179 0.407975
vt 0.601749 0.402977
vt 0.647028 0.314921
vt 0.666541 0.407975
vt 0.212189 0.321954
vt 0.363637 0.314921
vt 0.205403 0.343699
vt 0.491731 0.407975
vt 0.181524 0.348123
vt 0.172173 0.343699
vt 0.119603 0.107763
vt 0.126533 0.107361
vt 0.261558 0.099529
vt 0.325289 0.248500
vt 0.360417 0.309344
vt 0.213022 0.309344
vt 0.199096 0.284996
vt 0.047327 0.232949
vt 0.003877 0.314921
vt 0.002239 0.311044
vt 0.612085 0.199513
vt 0.666989 0.210506
vt 0.684776 0.241314
vt 0.647028 0.314921
vt 0.572936 0.267322
vt 0.352526 0.180087
vt 0.323316 0.239380
vt 0.243811 0.198879
vt 0.490768 0.106043
vt 0.617239 0.077150
vt 0.613358 0.155571
vt 0.432886 0.212358
vt 0.508761 0.286121
vt 0.499231 0.308606
vt 0.490372 0.314921
vt 0.370246 0.314921
vt 0.421365 0.193703
vt 0.418589 0.108943
vt 0.423034 0.108221
vt 0.425554 0.114161
vt 0.057797 0.398984
vt 0.056393 0.399669
vt 0.164542 0.344846
vt 0.158217 0.348449
vt 0.619598 0.162102
vt 0.707924 0.157461
vt 0.702685 0.107763
vt 0.794082 0.115718
vt 0.816045 0.153760
vt 0.814305 0.157461
vt 0.819903 0.168197
vt 0.883525 0.314921
vt 0.776166 0.243951
vt 0.691476 0.245427
vt 0.759708 0.245427
vt 0.868074 0.319444
vt 0.787207 0.401661
vt 0.657904 0.310931
vt 0.440572 0.194309
vt 0.486935 0.117095
vt 0.600774 0.165063
vt 0.648241 0.304594
vt 0.642559 0.323611
vt 0.556095 0.276901
vt 0.370246 0.314921
vt 0.490372 0.314921
vt 0.907972 0.312982
vt 0.909091 0.314921
vt 0.907152 0.314921
vt 0.816823 0.155106
vt 0.816776 0.155232
vt 0.816045 0.153760
vt 0.691476 0.245427
vt 0.835592 0.107762
vt 0.132814 0.107763
vt 0.360417 0.309344
vt 0.432886 0.212358
vt 0.090624 0.226414
vt 0.001939 0.318279
vt 0.003877 0.314921
vt 0.056393 0.399669
vt 0.046837 0.396045
vt 0.868074 0.319444
vt 0.904614 0.314921
vt 0.907152 0.318279
vt 0.851915 0.401005
vt 0.417034 0.198379
vt 0.360121 0.309843
vt 0.325289 0.248500
vt 0.419308 0.203701
vt 0.498338 0.316539
vt 0.499231 0.308606
vt 0.601509 0.403444
vt 0.443298 0.198894
vt 0.612879 0.167962
vt 0.572936 0.267322
vt 0.517681 0.280610
vt 0.495569 0.107763
vt 0.486030 0.107763
vt 0.473062 0.107763
vt 0.469316 0.107763
vt 0.492266 0.107763
vt 0.057792 0.398960
vt 0.046837 0.396045
vt 0.780997 0.407975
vt 0.847261 0.407975
vt 0.656416 0.407975
vt 0.791922 0.403982
vt 0.181524 0.348123
vt 0.815943 0.157461
vt 0.816776 0.155232
vt 0.776166 0.243951
vt 0.510817 0.281272
vt 0.517681 0.280610
s 0
usemtl Material
f 116/142/56 117/143/56 84/144/56 82/145/56 129/146/56 130/147/56 89/148/56 88/142/56
f 108/149/57 149/150/57 151/151/57 105/152/57 109/153/57
f 105/152/58 85/154/58 118/155/58 119/156/58 109/153/58
f 115/157/59 114/158/59 138/159/59 137/160/59 79/161/59
f 112/162/60 113/163/60 83/163/60 85/154/60 105/164/60 107/165/60
f 126/166/61 86/167/61 87/168/61 88/142/61 89/148/61
f 133/169/62 134/170/62 100/171/62 99/172/62 91/169/62
f 86/167/63 126/173/63 123/174/63 90/174/63 122/175/63 121/167/63
f 90/174/64 91/176/64 120/177/64 122/178/64
f 113/179/65 115/180/65 79/181/65 80/181/65 82/145/65 84/144/65 83/179/65
f 130/147/66 127/182/66 124/183/66 126/184/66 89/185/66
f 119/186/67 116/142/67 88/142/67 87/168/67 110/187/67 109/188/67
f 93/189/68 92/190/68 102/191/68 100/192/68 103/193/68
f 80/181/69 81/194/69 128/195/69 129/196/69 82/145/69
f 141/197/70 139/197/70 78/198/70 94/198/70 140/199/70
f 154/200/71 152/201/71 135/202/71 136/203/71 125/204/71 132/204/71
f 154/205/72 137/206/72 143/207/72 142/208/72
f 144/209/73 146/210/73 121/211/73 120/212/73
f 92/190/74 93/189/74 140/213/74 95/214/74
f 78/215/75 112/216/75 107/217/75 106/218/75 95/214/75 94/215/75
f 149/219/76 108/149/76 98/220/76 148/221/76
f 101/222/77 96/223/77 97/224/77 99/225/77 100/226/77
f 154/227/78 142/228/78 140/229/78
f 100/230/79 102/191/79 101/222/79
f 103/193/80 100/231/80 104/232/80
f 123/174/81 125/233/81 136/234/81 133/176/81 91/176/81 90/174/81
f 108/149/82 109/235/82 110/236/82 111/237/82
f 105/238/83 151/239/83 150/218/83 106/218/83 107/240/83
f 92/190/84 95/214/84 106/218/84 150/218/84 147/223/84 96/223/84 101/241/84 102/191/84
f 113/179/59 114/158/59 115/157/59
f 113/179/85 112/242/85 114/243/85
f 131/244/86 154/245/86 132/204/86
f 116/142/87 119/186/87 118/246/87 117/143/87
f 83/163/88 84/144/88 117/143/88 118/246/88 85/154/88
f 120/177/64 121/211/64 122/178/64
f 111/247/89 110/248/89 87/168/89 86/211/89 121/211/89 146/249/89 145/250/89
f 99/225/90 97/251/90 98/220/90 108/252/90 111/253/90 145/254/90
f 126/184/91 124/183/91 123/174/91
f 81/194/92 80/161/92 79/161/92 137/206/92 154/255/92
f 127/182/93 130/147/93 129/196/93 128/195/93
f 123/174/94 124/256/94 131/256/94 132/204/94 125/204/94
f 127/257/95 128/195/95 81/194/95 154/258/95 131/244/95 124/244/95
f 133/169/96 136/259/96 135/260/96 134/261/96
f 154/262/97 140/263/97 93/189/97 103/264/97 104/232/97 153/265/97
f 141/266/98 143/267/98 137/268/98 138/269/98 139/266/98
f 112/242/99 78/215/99 139/266/99 138/269/99 114/243/99
f 141/266/100 142/270/100 143/267/100
f 140/229/101 142/228/101 141/197/101
f 95/214/102 140/199/102 94/198/102
f 144/271/103 145/272/103 146/249/103
f 99/273/104 145/254/104 144/274/104
f 91/176/105 99/275/105 144/276/105 120/277/105
f 149/278/106 150/218/106 151/279/106
f 147/223/107 150/218/107 149/219/107 148/221/107
f 147/223/108 148/280/108 98/220/108 97/224/108 96/223/108
f 154/262/109 153/265/109 152/281/109
f 152/201/110 153/282/110 104/232/110 100/231/110 134/261/110 135/260/110
