# Blender 4.3.2
# www.blender.org
mtllib stone_3_snowy.mtl
o Icosphere
v 0.626927 0.113120 -0.607405
v -0.512541 -0.526538 0.145104
v -0.290681 -0.666274 -0.066983
v -0.173950 0.833013 0.034235
v -0.781275 -0.133694 0.323763
v -0.648126 0.265822 -0.519199
v 0.495006 -0.355743 0.507811
v 0.970967 0.158979 0.024830
v 0.966197 0.172953 0.072244
v 0.970354 0.151187 0.071198
v 0.972180 0.138722 0.057473
v 0.974853 0.137999 0.043674
v 0.408355 0.799786 -0.194634
v -0.355129 0.701781 0.399989
v 0.261199 0.858563 -0.064327
v 0.330833 0.845226 -0.068004
v 0.330188 0.852916 -0.093903
v -0.321937 0.407007 0.598401
v -0.274880 0.423192 0.586215
v -0.313085 0.447342 0.583496
v 0.230451 -0.015800 0.692189
v 0.799243 0.275227 0.236208
v 0.643030 -0.057895 0.488874
v 0.592097 -0.073165 0.535612
v 0.605590 -0.095779 0.524972
v -0.596863 -0.074566 0.621622
v -0.630001 -0.113530 0.601757
v -0.605246 -0.130409 0.615590
v -0.594538 -0.113572 0.626058
v -0.817547 0.215510 0.075801
v -0.719170 -0.315605 -0.293486
v -0.711187 -0.297410 -0.347533
v -0.698301 -0.320793 -0.358463
v -0.692532 -0.344817 -0.338656
v -0.704799 -0.338402 -0.314347
v -0.505352 0.446363 -0.716964
v -0.486617 0.438436 -0.737401
v -0.576906 0.735936 0.261016
v -0.090506 0.655220 -0.517312
v -0.216621 0.631877 -0.527830
v -0.471495 0.487670 -0.685045
v -0.466310 0.455267 -0.740318
v -0.493382 0.456281 -0.718678
v 0.252289 -0.089217 -0.830851
v 0.172044 -0.590517 -0.474706
v 0.208579 -0.607145 -0.439192
v 0.187826 -0.612414 -0.437976
v 0.170775 -0.609950 -0.456915
v 0.227648 -0.526695 -0.510632
v 0.208943 -0.606268 -0.440105
v 0.201919 -0.577134 -0.478460
v 0.802329 -0.224018 -0.071182
v 0.533128 -0.097550 -0.662354
v 0.508462 -0.143264 -0.658609
v 0.507356 -0.142406 -0.660686
v 0.499595 -0.119135 -0.682333
v 0.008656 -0.682635 0.068187
v 0.014424 -0.666758 0.127676
v -0.027392 -0.684724 0.081695
v 0.393655 0.512590 -0.539592
v 0.355663 0.786811 -0.314350
v 0.320605 0.777023 -0.350918
v -0.356772 -0.192639 -0.732996
v -0.406760 -0.179801 -0.722589
v -0.390976 -0.144169 -0.747186
v -0.360851 -0.166833 -0.750991
v -0.302478 -0.622505 -0.343350
v 0.213209 0.156289 -0.831895
v 0.221633 0.225228 -0.808157
v -0.466310 0.455267 -0.740318
v -0.486617 0.438436 -0.737401
v 0.129142 -0.162911 0.706546
v 0.164738 -0.142356 0.706681
v 0.542176 -0.511907 0.276070
v 0.526136 -0.546088 0.229082
v 0.528385 -0.546156 0.227121
v 0.539865 -0.542410 0.212551
v 0.562725 -0.525226 0.219431
v 0.563162 -0.520281 0.228760
v 0.253710 -0.365043 0.590023
v -0.348882 -0.487975 0.457707
v 0.002351 -0.669901 0.123896
v -0.026137 -0.683073 0.088240
vn 0.0582 -0.8496 0.5243
vn -0.8014 -0.5907 0.0935
vn -0.6378 0.7246 -0.2612
vn -0.3565 0.8912 -0.2804
vn -0.6509 -0.6391 0.4098
vn 0.3307 0.6230 0.7089
vn -0.5224 0.3805 0.7631
vn -0.7538 -0.1129 -0.6473
vn -0.0336 -0.5753 -0.8173
vn 0.6849 0.6936 0.2231
vn 0.1781 -0.9549 0.2376
vn -0.4618 -0.6368 -0.6174
vn 0.8549 -0.2644 -0.4464
vn 0.2179 -0.3832 0.8976
vn 0.7450 0.4999 -0.4417
vn 0.1016 -0.8564 0.5063
vn -0.8598 0.2348 0.4535
vn -0.9880 -0.1432 -0.0572
vn 0.1539 -0.9597 0.2351
vn -0.1189 0.9424 -0.3126
vn 0.1642 -0.5886 -0.7915
vn 0.2264 -0.7858 0.5756
vn -0.0004 -0.9897 -0.1434
vn -0.5834 -0.8070 -0.0919
vn -0.1546 -0.6736 -0.7227
vn 0.9815 0.1822 0.0592
vn 0.7653 0.6342 -0.1099
vn -0.1107 -0.4959 0.8613
vn 0.1948 0.9416 0.2747
vn 0.1866 0.8288 0.5275
vn 0.7400 0.1481 0.6561
vn 0.1339 0.3175 0.9388
vn 0.1167 0.3580 0.9264
vn -0.9620 0.0249 -0.2718
vn 0.6674 0.0485 0.7431
vn 0.6002 0.2853 0.7472
vn 0.3486 0.5300 0.7731
vn -0.5653 -0.0042 0.8249
vn -0.0082 0.9425 0.3341
vn -0.7225 0.2958 0.6249
vn -0.8876 -0.3731 -0.2703
vn -0.9837 -0.0658 -0.1674
vn -0.8606 0.4671 -0.2029
vn -0.3669 0.7871 -0.4959
vn -0.1272 0.8311 -0.5414
vn -0.5236 0.5142 -0.6793
vn 0.2916 -0.7450 -0.6000
vn 0.5562 -0.6206 -0.5527
vn 0.5196 -0.6319 -0.5751
vn 0.3752 -0.5612 -0.7378
vn 0.6502 -0.3976 -0.6474
vn 0.7710 -0.4527 -0.4479
vn 0.8124 -0.3856 0.4374
vn 0.6486 -0.6835 -0.3348
vn 0.8543 -0.4749 0.2112
vn 0.4976 0.5907 -0.6352
vn 0.5022 0.2274 -0.8343
vn -0.3567 -0.4854 -0.7982
vn -0.3118 -0.6594 -0.6841
vn 0.1390 0.6170 -0.7746
vn -0.0236 0.2433 -0.9697
vn -0.1332 -0.0110 -0.9910
vn 0.3724 -0.2241 0.9006
vn -0.0931 0.1143 0.9891
vn 0.5354 -0.7662 0.3555
vn 0.1697 -0.8236 0.5412
vn 0.2642 -0.9637 -0.0393
vn -0.0863 -0.9101 0.4052
vn -0.2632 -0.9220 0.2840
vt 0.483927 0.153539
vt 0.599844 0.104861
vt 0.602688 0.202416
vt 0.599934 0.203366
vt 0.696769 0.157461
vt 0.781146 0.093312
vt 0.781146 0.212981
vt 0.777017 0.218470
vt 0.001377 0.312642
vt 0.095513 0.165434
vt 0.008738 0.309242
vt 0.002616 0.313360
vt 0.132744 0.229921
vt 0.066026 0.309036
vt 0.008738 0.309242
vt 0.747561 0.045040
vt 0.753727 0.045821
vt 0.671915 0.099894
vt 0.335498 0.272818
vt 0.200642 0.288796
vt 0.142200 0.153677
vt 0.168029 0.108939
vt 0.175291 0.110790
vt 0.144378 0.012300
vt 0.168910 0.101643
vt 0.167568 0.109206
vt 0.135648 0.157461
vt 0.096470 0.153190
vt 0.781981 0.226273
vt 0.786363 0.223888
vt 0.880201 0.264881
vt 0.906438 0.310326
vt 0.904502 0.314921
vt 0.802394 0.314921
vt 0.796827 0.309219
vt 0.789042 0.314921
vt 0.797632 0.319287
vt 0.792519 0.422789
vt 0.633545 0.314921
vt 0.198376 0.292300
vt 0.341017 0.275742
vt 0.360983 0.310325
vt 0.208783 0.310325
vt 0.504475 0.233103
vt 0.504562 0.232611
vt 0.599934 0.203366
vt 0.609047 0.211847
vt 0.776264 0.223199
vt 0.781981 0.226273
vt 0.796827 0.309219
vt 0.695991 0.249333
vt 0.366291 0.319517
vt 0.368856 0.314921
vt 0.446386 0.314921
vt 0.472168 0.424922
vt 0.428649 0.427526
vt 0.461319 0.112903
vt 0.473022 0.153785
vt 0.457059 0.116300
vt 0.198880 0.336670
vt 0.208783 0.319517
vt 0.360983 0.319517
vt 0.298625 0.427526
vt 0.229684 0.389262
vt 0.484623 0.161136
vt 0.504562 0.232611
vt 0.882637 0.045821
vt 0.988964 0.157246
vt 0.889763 0.153147
vt 0.855218 0.093312
vt 0.884782 0.153147
vt 0.601968 0.203491
vt 0.604022 0.202498
vt 0.612230 0.205291
vt 0.613216 0.206370
vt 0.189360 0.282520
vt 0.198376 0.293622
vt 0.208783 0.319517
vt 0.198880 0.336670
vt 0.191077 0.339521
vt 0.092168 0.320806
vt 0.066026 0.309036
vt 0.790033 0.425998
vt 0.651388 0.331924
vt 0.636452 0.319635
vt 0.449980 0.195225
vt 0.471632 0.166128
vt 0.489851 0.229030
vt 0.609047 0.211847
vt 0.664620 0.206402
vt 0.687156 0.254412
vt 0.629642 0.311626
vt 0.625524 0.310117
vt 0.664620 0.206402
vt 0.777017 0.218470
vt 0.776264 0.223199
vt 0.688076 0.247029
vt 0.789043 0.314921
vt 0.633545 0.314921
vt 0.629642 0.311626
vt 0.364156 0.314636
vt 0.364602 0.311286
vt 0.364816 0.310479
vt 0.367921 0.312565
vt 0.367321 0.312895
vt 0.589373 0.010789
vt 0.594103 0.012040
vt 0.599582 0.104786
vt 0.477539 0.151710
vt 0.193048 0.280936
vt 0.197931 0.289117
vt 0.189360 0.282520
vt 0.341017 0.275742
vt 0.390124 0.215155
vt 0.320986 0.026238
vt 0.321737 0.031738
vt 0.319254 0.028009
vt 0.379641 0.118710
vt 0.891619 0.163118
vt 0.786363 0.223888
vt 0.392388 0.206627
vt 0.389618 0.202712
vt 0.396345 0.205844
vt 0.335734 0.269088
vt 0.389410 0.203272
vt 0.339660 0.147220
vt 0.360564 -0.014213
vt 0.363637 -0.017354
vt 0.364153 -0.015195
vt 0.364568 -0.013461
vt 0.098963 0.157461
vt 0.135648 0.157461
vt 0.990987 0.154279
vt 0.889159 0.046508
vt 0.789853 0.224834
vt 0.896959 0.157620
vt 0.992906 0.160866
vt 0.906438 0.310326
vt 0.004394 0.314389
vt 0.085373 0.320806
vt 0.002294 0.318895
vt 0.002616 0.313360
vt 0.002294 0.314921
vt 0.000000 0.314921
vt 0.628910 0.312354
vt 0.627465 0.313791
vt 0.625800 0.311763
vt 0.625788 0.311693
vt 0.603622 0.415542
vt 0.603222 0.415204
vt 0.622191 0.312632
vt 0.627503 0.333169
vt 0.623553 0.332064
vt 0.624093 0.321468
vt 0.616471 0.424786
vt 0.613453 0.419926
vt 0.657522 0.427242
vt 0.477976 0.424888
vt 0.501198 0.424625
vt 0.502387 0.424644
vt 0.513792 0.424831
vt 0.454697 0.310615
vt 0.600880 0.418918
vt 0.390124 0.215155
vt 0.396345 0.205844
vt 0.489602 0.234536
vt 0.493005 0.243768
vt 0.505395 0.246079
vt 0.511561 0.245064
vt 0.622134 0.312367
vt 0.494579 0.245470
vt 0.495946 0.246837
vt 0.446386 0.314921
vt 0.367921 0.312565
vt 0.222408 0.385224
vt 0.197258 0.341662
vt 0.156257 0.389262
vt 0.678330 0.427526
vt 0.819208 0.427526
vt 0.787823 0.424396
vt 0.797446 0.309780
vt 0.162672 0.339521
vt 0.133954 0.389262
vt 0.070651 0.424396
vt 0.065012 0.427526
vt 0.792519 0.422789
vt 0.904502 0.314921
vt 0.836343 0.426815
vt 0.343352 0.137310
vt 0.386418 0.113645
vt 0.468735 0.166443
vt 0.393025 0.105536
vt 0.392137 0.110674
vt 0.381680 0.117399
vt 0.496802 0.241680
vt 0.493370 0.243567
vt 0.476161 0.162893
vt 0.496702 0.233814
vt 0.511561 0.245064
vt 0.512100 0.241574
vt 0.611246 0.106617
vt 0.612230 0.205291
s 0
usemtl Material.001
f 80/1/1 81/2/1 82/3/1 58/4/1
f 2/5/2 5/6/2 31/7/2 35/8/2
f 36/9/3 38/10/3 41/11/3 43/12/3
f 38/10/4 4/13/4 40/14/4 41/15/4
f 28/16/5 27/17/5 5/6/5 2/5/5 81/18/5
f 22/19/6 16/20/6 14/21/6 20/22/6 19/23/6
f 26/24/7 18/25/7 20/26/7 14/27/7 38/28/7
f 33/29/8 32/30/8 6/31/8 36/32/8 37/33/8 65/34/8 64/35/8
f 63/36/9 66/37/9 44/38/9 45/39/9
f 17/40/10 16/20/10 22/41/10 9/42/10 13/43/10
f 76/44/11 75/45/11 58/46/11 57/47/11
f 34/48/12 33/49/12 64/50/12 67/51/12
f 8/52/13 12/53/13 52/54/13 53/55/13 1/56/13
f 72/57/14 80/58/14 73/59/14
f 61/60/15 13/61/15 8/62/15 1/63/15 60/64/15
f 80/65/16 58/46/16 75/66/16
f 27/67/17 38/68/17 30/69/17 5/70/17
f 5/6/18 30/71/18 31/7/18
f 57/47/19 58/72/19 82/73/19 83/74/19 59/75/19
f 15/76/20 17/77/20 13/78/20 61/79/20 62/80/20 39/81/20 40/82/20 4/13/20
f 44/83/21 49/84/21 51/85/21 45/39/21
f 7/86/22 80/87/22 74/88/22
f 57/89/23 59/75/23 3/90/23 67/91/23 48/92/23 47/93/23
f 3/94/24 2/5/24 35/95/24 34/96/24 67/97/24
f 67/91/25 63/98/25 45/99/25 48/100/25
f 8/101/26 9/102/26 10/103/26 11/104/26 12/105/26
f 8/62/27 13/43/27 9/42/27
f 29/106/28 28/107/28 81/108/28 80/109/28 72/57/28
f 15/110/29 16/20/29 17/111/29
f 15/112/30 14/21/30 16/20/30
f 22/113/31 23/114/31 10/103/31 9/42/31
f 18/115/32 19/116/32 20/117/32
f 21/118/33 19/116/33 18/115/33
f 30/119/34 6/31/34 32/120/34
f 23/121/35 24/122/35 25/123/35
f 22/124/36 24/125/36 23/114/36
f 21/126/37 24/125/37 22/124/37 19/23/37
f 26/127/38 27/128/38 28/129/38 29/130/38
f 38/131/39 14/132/39 15/112/39 4/13/39
f 38/133/40 27/67/40 26/134/40
f 31/7/41 32/135/41 33/29/41 34/48/41 35/95/41
f 30/119/42 32/120/42 31/7/42
f 6/31/43 30/136/43 38/137/43 36/138/43
f 41/11/44 42/139/44 43/12/44
f 39/140/45 42/141/45 41/15/45 40/14/45
f 36/9/46 43/142/46 42/143/46 70/143/46 71/144/46 37/144/46
f 45/145/47 51/146/47 50/147/47 46/148/47 47/93/47 48/92/47
f 55/149/48 54/150/48 50/151/48 49/152/48
f 49/153/49 50/151/49 51/154/49
f 56/155/50 55/156/50 49/152/50 44/157/50
f 53/158/51 54/159/51 55/160/51 56/161/51
f 52/162/52 54/150/52 53/163/52
f 23/164/53 25/165/53 7/86/53 74/166/53 79/167/53 11/104/53 10/103/53
f 78/168/54 77/169/54 46/170/54 50/151/54 54/150/54 52/162/54
f 79/171/55 78/172/55 52/173/55 12/53/55 11/174/55
f 61/60/56 60/175/56 62/176/56
f 60/177/57 1/63/57 53/158/57 56/161/57 44/178/57 68/179/57 69/180/57
f 63/98/58 64/181/58 65/34/58 66/37/58
f 63/98/59 67/51/59 64/50/59
f 70/141/60 42/141/60 39/140/60 62/182/60 60/183/60 69/184/60
f 70/141/61 69/184/61 68/185/61 71/141/61
f 44/186/62 66/37/62 65/34/62 37/187/62 71/187/62 68/188/62
f 7/86/63 25/165/63 24/122/63 21/189/63 73/190/63 80/191/63
f 72/192/64 73/193/64 21/194/64 18/115/64 26/127/64 29/130/64
f 74/166/65 75/195/65 76/195/65 77/195/65 78/196/65 79/167/65
f 80/197/66 75/198/66 74/88/66
f 77/199/67 76/200/67 57/47/67 47/93/67 46/170/67
f 82/3/68 81/201/68 83/202/68
f 81/201/69 2/5/69 3/94/69 59/75/69 83/202/69
o Icosphere.001
v 0.626927 0.282249 -0.607405
v -0.512541 -0.357409 0.145104
v -0.290681 -0.497145 -0.066983
v -0.173950 1.002142 0.034235
v -0.781275 0.035435 0.323763
v -0.648126 0.434951 -0.519199
v 0.495006 -0.186614 0.507811
v 0.970967 0.328108 0.024830
v 0.966197 0.342082 0.072244
v 0.970354 0.320316 0.071198
v 0.972180 0.307851 0.057473
v 0.974853 0.307128 0.043674
v 0.408355 0.968915 -0.194634
v -0.355129 0.870910 0.399989
v 0.261199 1.027692 -0.064327
v 0.330833 1.014355 -0.068004
v 0.330188 1.022045 -0.093903
v -0.321937 0.576136 0.598401
v -0.274880 0.592321 0.586215
v -0.313085 0.616471 0.583496
v 0.230451 0.153329 0.692189
v 0.799243 0.444356 0.236208
v 0.643030 0.111234 0.488874
v 0.592097 0.095964 0.535612
v 0.605590 0.073350 0.524972
v -0.596863 0.094563 0.621622
v -0.630001 0.055600 0.601757
v -0.605246 0.038720 0.615590
v -0.594538 0.055557 0.626058
v -0.817547 0.384639 0.075801
v -0.719170 -0.146476 -0.293486
v -0.711187 -0.128281 -0.347533
v -0.698301 -0.151664 -0.358463
v -0.692532 -0.175688 -0.338656
v -0.704799 -0.169273 -0.314347
v -0.505352 0.615492 -0.716964
v -0.486617 0.607565 -0.737401
v -0.576906 0.905065 0.261016
v -0.090506 0.824349 -0.517312
v -0.216621 0.801006 -0.527830
v -0.471495 0.656799 -0.685045
v -0.466310 0.624396 -0.740318
v -0.493382 0.625410 -0.718678
v 0.252289 0.079912 -0.830851
v 0.172044 -0.421388 -0.474706
v 0.208579 -0.438016 -0.439192
v 0.187826 -0.443285 -0.437976
v 0.170775 -0.440821 -0.456915
v 0.227648 -0.357566 -0.510632
v 0.208943 -0.437139 -0.440105
v 0.201919 -0.408005 -0.478460
v 0.802329 -0.054889 -0.071182
v 0.533128 0.071579 -0.662354
v 0.508462 0.025865 -0.658609
v 0.507356 0.026723 -0.660686
v 0.499595 0.049994 -0.682333
v 0.008656 -0.513506 0.068187
v 0.014424 -0.497629 0.127676
v -0.027392 -0.515595 0.081695
v 0.393655 0.681719 -0.539592
v 0.355663 0.955940 -0.314350
v 0.320605 0.946153 -0.350918
v -0.356772 -0.023510 -0.732996
v -0.406760 -0.010672 -0.722589
v -0.390976 0.024960 -0.747186
v -0.360851 0.002296 -0.750991
v -0.302478 -0.453376 -0.343350
v 0.213209 0.325418 -0.831895
v 0.221633 0.394357 -0.808157
v -0.466310 0.624396 -0.740318
v -0.486617 0.607565 -0.737401
v 0.129142 0.006218 0.706546
v 0.164738 0.026773 0.706681
v 0.542176 -0.342778 0.276070
v 0.526136 -0.376959 0.229082
v 0.528385 -0.377027 0.227121
v 0.539865 -0.373281 0.212551
v 0.562725 -0.356097 0.219431
v 0.563162 -0.351152 0.228760
v 0.253710 -0.195914 0.590023
v -0.348882 -0.318846 0.457707
v 0.002351 -0.500772 0.123896
v -0.026137 -0.513944 0.088240
vn 0.0582 -0.8496 0.5243
vn -0.8014 -0.5907 0.0935
vn -0.6378 0.7246 -0.2612
vn -0.3565 0.8912 -0.2804
vn -0.6509 -0.6391 0.4098
vn 0.3307 0.6230 0.7089
vn -0.5224 0.3805 0.7631
vn -0.7538 -0.1129 -0.6473
vn -0.0336 -0.5753 -0.8173
vn 0.6849 0.6936 0.2231
vn 0.1781 -0.9549 0.2376
vn -0.4618 -0.6368 -0.6174
vn 0.8549 -0.2644 -0.4464
vn 0.2179 -0.3832 0.8976
vn 0.7450 0.4999 -0.4417
vn 0.1016 -0.8564 0.5063
vn -0.8598 0.2348 0.4535
vn -0.9880 -0.1432 -0.0572
vn 0.1539 -0.9597 0.2351
vn -0.1189 0.9424 -0.3126
vn 0.1642 -0.5886 -0.7915
vn 0.2264 -0.7858 0.5756
vn -0.0004 -0.9897 -0.1434
vn -0.5834 -0.8070 -0.0919
vn -0.1546 -0.6736 -0.7227
vn 0.9815 0.1822 0.0592
vn 0.7653 0.6342 -0.1099
vn -0.1107 -0.4959 0.8613
vn 0.1948 0.9416 0.2747
vn 0.1866 0.8288 0.5275
vn 0.7400 0.1481 0.6561
vn 0.1339 0.3175 0.9388
vn 0.1167 0.3580 0.9264
vn -0.9620 0.0249 -0.2718
vn 0.6674 0.0485 0.7431
vn 0.6002 0.2853 0.7472
vn 0.3486 0.5300 0.7731
vn -0.5653 -0.0042 0.8249
vn -0.0082 0.9425 0.3341
vn -0.7225 0.2958 0.6249
vn -0.8876 -0.3731 -0.2703
vn -0.9837 -0.0658 -0.1674
vn -0.8606 0.4671 -0.2029
vn -0.3669 0.7871 -0.4959
vn -0.1272 0.8311 -0.5414
vn -0.5236 0.5142 -0.6793
vn 0.2916 -0.7450 -0.6000
vn 0.5562 -0.6206 -0.5527
vn 0.5196 -0.6319 -0.5751
vn 0.3752 -0.5612 -0.7378
vn 0.6502 -0.3976 -0.6474
vn 0.7710 -0.4527 -0.4479
vn 0.8124 -0.3856 0.4374
vn 0.6486 -0.6835 -0.3348
vn 0.8543 -0.4749 0.2112
vn 0.4976 0.5907 -0.6352
vn 0.5022 0.2274 -0.8343
vn -0.3567 -0.4854 -0.7982
vn -0.3118 -0.6594 -0.6841
vn 0.1390 0.6170 -0.7746
vn -0.0236 0.2433 -0.9697
vn -0.1332 -0.0110 -0.9910
vn 0.3724 -0.2241 0.9006
vn -0.0931 0.1143 0.9891
vn 0.5354 -0.7662 0.3555
vn 0.1697 -0.8236 0.5412
vn 0.2642 -0.9637 -0.0393
vn -0.0863 -0.9101 0.4052
vn -0.2632 -0.9220 0.2840
vt 0.483927 0.153539
vt 0.599844 0.104861
vt 0.602688 0.202416
vt 0.599934 0.203366
vt 0.696769 0.157461
vt 0.781146 0.093312
vt 0.781146 0.212981
vt 0.777017 0.218470
vt 0.001377 0.312642
vt 0.095513 0.165434
vt 0.008738 0.309242
vt 0.002616 0.313360
vt 0.132744 0.229921
vt 0.066026 0.309036
vt 0.008738 0.309242
vt 0.747561 0.045040
vt 0.753727 0.045821
vt 0.671915 0.099894
vt 0.335498 0.272818
vt 0.200642 0.288796
vt 0.142200 0.153677
vt 0.168029 0.108939
vt 0.175291 0.110790
vt 0.144378 0.012300
vt 0.168910 0.101643
vt 0.167568 0.109206
vt 0.135648 0.157461
vt 0.096470 0.153190
vt 0.781981 0.226273
vt 0.786363 0.223888
vt 0.880201 0.264881
vt 0.906438 0.310326
vt 0.904502 0.314921
vt 0.802394 0.314921
vt 0.796827 0.309219
vt 0.789042 0.314921
vt 0.797632 0.319287
vt 0.792519 0.422789
vt 0.633545 0.314921
vt 0.198376 0.292300
vt 0.341017 0.275742
vt 0.360983 0.310325
vt 0.208783 0.310325
vt 0.504475 0.233103
vt 0.504562 0.232611
vt 0.599934 0.203366
vt 0.609047 0.211847
vt 0.776264 0.223199
vt 0.781981 0.226273
vt 0.796827 0.309219
vt 0.695991 0.249333
vt 0.366291 0.319517
vt 0.368856 0.314921
vt 0.446386 0.314921
vt 0.472168 0.424922
vt 0.428649 0.427526
vt 0.461319 0.112903
vt 0.473022 0.153785
vt 0.457059 0.116300
vt 0.198880 0.336670
vt 0.208783 0.319517
vt 0.360983 0.319517
vt 0.298625 0.427526
vt 0.229684 0.389262
vt 0.484623 0.161136
vt 0.504562 0.232611
vt 0.882637 0.045821
vt 0.988964 0.157246
vt 0.889763 0.153147
vt 0.855218 0.093312
vt 0.884782 0.153147
vt 0.601968 0.203491
vt 0.604022 0.202498
vt 0.612230 0.205291
vt 0.613216 0.206370
vt 0.189360 0.282520
vt 0.198376 0.293622
vt 0.208783 0.319517
vt 0.198880 0.336670
vt 0.191077 0.339521
vt 0.092168 0.320806
vt 0.066026 0.309036
vt 0.790033 0.425998
vt 0.651388 0.331924
vt 0.636452 0.319635
vt 0.449980 0.195225
vt 0.471632 0.166128
vt 0.489851 0.229030
vt 0.609047 0.211847
vt 0.664620 0.206402
vt 0.687156 0.254412
vt 0.629642 0.311626
vt 0.625524 0.310117
vt 0.664620 0.206402
vt 0.777017 0.218470
vt 0.776264 0.223199
vt 0.688076 0.247029
vt 0.789043 0.314921
vt 0.633545 0.314921
vt 0.629642 0.311626
vt 0.364156 0.314636
vt 0.364602 0.311286
vt 0.364816 0.310479
vt 0.367921 0.312565
vt 0.367321 0.312895
vt 0.589373 0.010789
vt 0.594103 0.012040
vt 0.599582 0.104786
vt 0.477539 0.151710
vt 0.193048 0.280936
vt 0.197931 0.289117
vt 0.189360 0.282520
vt 0.341017 0.275742
vt 0.390124 0.215155
vt 0.320986 0.026238
vt 0.321737 0.031738
vt 0.319254 0.028009
vt 0.379641 0.118710
vt 0.891619 0.163118
vt 0.786363 0.223888
vt 0.392388 0.206627
vt 0.389618 0.202712
vt 0.396345 0.205844
vt 0.335734 0.269088
vt 0.389410 0.203272
vt 0.339660 0.147220
vt 0.360564 -0.014213
vt 0.363637 -0.017354
vt 0.364153 -0.015195
vt 0.364568 -0.013461
vt 0.098963 0.157461
vt 0.135648 0.157461
vt 0.990987 0.154279
vt 0.889159 0.046508
vt 0.789853 0.224834
vt 0.896959 0.157620
vt 0.992906 0.160866
vt 0.906438 0.310326
vt 0.004394 0.314389
vt 0.085373 0.320806
vt 0.002294 0.318895
vt 0.002616 0.313360
vt 0.002294 0.314921
vt 0.000000 0.314921
vt 0.628910 0.312354
vt 0.627465 0.313791
vt 0.625800 0.311763
vt 0.625788 0.311693
vt 0.603622 0.415542
vt 0.603222 0.415204
vt 0.622191 0.312632
vt 0.627503 0.333169
vt 0.623553 0.332064
vt 0.624093 0.321468
vt 0.616471 0.424786
vt 0.613453 0.419926
vt 0.657522 0.427242
vt 0.477976 0.424888
vt 0.501198 0.424625
vt 0.502387 0.424644
vt 0.513792 0.424831
vt 0.454697 0.310615
vt 0.600880 0.418918
vt 0.390124 0.215155
vt 0.396345 0.205844
vt 0.489602 0.234536
vt 0.493005 0.243768
vt 0.505395 0.246079
vt 0.511561 0.245064
vt 0.622134 0.312367
vt 0.494579 0.245470
vt 0.495946 0.246837
vt 0.446386 0.314921
vt 0.367921 0.312565
vt 0.222408 0.385224
vt 0.197258 0.341662
vt 0.156257 0.389262
vt 0.678330 0.427526
vt 0.819208 0.427526
vt 0.787823 0.424396
vt 0.797446 0.309780
vt 0.162672 0.339521
vt 0.133954 0.389262
vt 0.070651 0.424396
vt 0.065012 0.427526
vt 0.792519 0.422789
vt 0.904502 0.314921
vt 0.836343 0.426815
vt 0.343352 0.137310
vt 0.386418 0.113645
vt 0.468735 0.166443
vt 0.393025 0.105536
vt 0.392137 0.110674
vt 0.381680 0.117399
vt 0.496802 0.241680
vt 0.493370 0.243567
vt 0.476161 0.162893
vt 0.496702 0.233814
vt 0.511561 0.245064
vt 0.512100 0.241574
vt 0.611246 0.106617
vt 0.612230 0.205291
s 0
usemtl Material.002
f 163/203/70 164/204/70 165/205/70 141/206/70
f 85/207/71 88/208/71 114/209/71 118/210/71
f 119/211/72 121/212/72 124/213/72 126/214/72
f 121/212/73 87/215/73 123/216/73 124/217/73
f 111/218/74 110/219/74 88/208/74 85/207/74 164/220/74
f 105/221/75 99/222/75 97/223/75 103/224/75 102/225/75
f 109/226/76 101/227/76 103/228/76 97/229/76 121/230/76
f 116/231/77 115/232/77 89/233/77 119/234/77 120/235/77 148/236/77 147/237/77
f 146/238/78 149/239/78 127/240/78 128/241/78
f 100/242/79 99/222/79 105/243/79 92/244/79 96/245/79
f 159/246/80 158/247/80 141/248/80 140/249/80
f 117/250/81 116/251/81 147/252/81 150/253/81
f 91/254/82 95/255/82 135/256/82 136/257/82 84/258/82
f 155/259/83 163/260/83 156/261/83
f 144/262/84 96/263/84 91/264/84 84/265/84 143/266/84
f 163/267/85 141/248/85 158/268/85
f 110/269/86 121/270/86 113/271/86 88/272/86
f 88/208/87 113/273/87 114/209/87
f 140/249/88 141/274/88 165/275/88 166/276/88 142/277/88
f 98/278/89 100/279/89 96/280/89 144/281/89 145/282/89 122/283/89 123/284/89 87/215/89
f 127/285/90 132/286/90 134/287/90 128/241/90
f 90/288/91 163/289/91 157/290/91
f 140/291/92 142/277/92 86/292/92 150/293/92 131/294/92 130/295/92
f 86/296/93 85/207/93 118/297/93 117/298/93 150/299/93
f 150/293/94 146/300/94 128/301/94 131/302/94
f 91/303/95 92/304/95 93/305/95 94/306/95 95/307/95
f 91/264/96 96/245/96 92/244/96
f 112/308/97 111/309/97 164/310/97 163/311/97 155/259/97
f 98/312/98 99/222/98 100/313/98
f 98/314/99 97/223/99 99/222/99
f 105/315/100 106/316/100 93/305/100 92/244/100
f 101/317/101 102/318/101 103/319/101
f 104/320/102 102/318/102 101/317/102
f 113/321/103 89/233/103 115/322/103
f 106/323/104 107/324/104 108/325/104
f 105/326/105 107/327/105 106/316/105
f 104/328/106 107/327/106 105/326/106 102/225/106
f 109/329/107 110/330/107 111/331/107 112/332/107
f 121/333/108 97/334/108 98/314/108 87/215/108
f 121/335/109 110/269/109 109/336/109
f 114/209/110 115/337/110 116/231/110 117/250/110 118/297/110
f 113/321/111 115/322/111 114/209/111
f 89/233/112 113/338/112 121/339/112 119/340/112
f 124/213/113 125/341/113 126/214/113
f 122/342/114 125/343/114 124/217/114 123/216/114
f 119/211/115 126/344/115 125/345/115 153/345/115 154/346/115 120/346/115
f 128/347/116 134/348/116 133/349/116 129/350/116 130/295/116 131/294/116
f 138/351/117 137/352/117 133/353/117 132/354/117
f 132/355/118 133/353/118 134/356/118
f 139/357/119 138/358/119 132/354/119 127/359/119
f 136/360/120 137/361/120 138/362/120 139/363/120
f 135/364/121 137/352/121 136/365/121
f 106/366/122 108/367/122 90/288/122 157/368/122 162/369/122 94/306/122 93/305/122
f 161/370/123 160/371/123 129/372/123 133/353/123 137/352/123 135/364/123
f 162/373/124 161/374/124 135/375/124 95/255/124 94/376/124
f 144/262/125 143/377/125 145/378/125
f 143/379/126 84/265/126 136/360/126 139/363/126 127/380/126 151/381/126 152/382/126
f 146/300/127 147/383/127 148/236/127 149/239/127
f 146/300/128 150/253/128 147/252/128
f 153/343/129 125/343/129 122/342/129 145/384/129 143/385/129 152/386/129
f 153/343/130 152/386/130 151/387/130 154/343/130
f 127/388/131 149/239/131 148/236/131 120/389/131 154/389/131 151/390/131
f 90/288/132 108/367/132 107/324/132 104/391/132 156/392/132 163/393/132
f 155/394/133 156/395/133 104/396/133 101/317/133 109/329/133 112/332/133
f 157/368/134 158/397/134 159/397/134 160/397/134 161/398/134 162/369/134
f 163/399/135 158/400/135 157/290/135
f 160/401/136 159/402/136 140/249/136 130/295/136 129/372/136
f 165/205/137 164/403/137 166/404/137
f 164/403/138 85/207/138 86/296/138 142/277/138 166/404/138
