# Blender 4.3.2
# www.blender.org
mtllib tree_mid_snowy.mtl
o Cylinder
v 0.001822 -1.003724 -0.998807
v 0.001822 0.996276 -0.604520
v 0.867848 -1.003724 -0.498807
v 0.526385 0.996276 -0.301663
v 0.867848 -1.003724 0.501193
v 0.526385 0.996276 0.304050
v 0.001822 -1.003724 1.001193
v 0.001822 0.996276 0.606907
v -0.864203 -1.003724 0.501193
v -0.522741 0.996276 0.304050
v -0.864203 -1.003724 -0.498807
v -0.522741 0.996276 -0.301663
vn 0.4929 0.1683 -0.8537
vn 0.9857 0.1683 -0.0000
vn 0.4929 0.1683 0.8537
vn -0.4929 0.1683 0.8537
vn -0.0000 1.0000 -0.0000
vn -0.9857 0.1683 -0.0000
vn -0.4929 0.1683 -0.8537
vn -0.0000 -1.0000 -0.0000
vt 1.000000 0.500000
vt 1.000000 1.000000
vt 0.833333 1.000000
vt 0.833333 0.500000
vt 0.666667 1.000000
vt 0.666667 0.500000
vt 0.500000 1.000000
vt 0.500000 0.500000
vt 0.333333 1.000000
vt 0.333333 0.500000
vt 0.457846 0.370000
vt 0.250000 0.490000
vt 0.042154 0.370000
vt 0.042154 0.130000
vt 0.250000 0.010000
vt 0.457846 0.130000
vt 0.166667 1.000000
vt 0.166667 0.500000
vt -0.000000 1.000000
vt -0.000000 0.500000
vt 0.750000 0.490000
vt 0.957846 0.370000
vt 0.957846 0.130000
vt 0.750000 0.010000
vt 0.542154 0.130000
vt 0.542154 0.370000
s 0
usemtl Material.001
f 1/1/1 2/2/1 4/3/1 3/4/1
f 3/4/2 4/3/2 6/5/2 5/6/2
f 5/6/3 6/5/3 8/7/3 7/8/3
f 7/8/4 8/7/4 10/9/4 9/10/4
f 4/11/5 2/12/5 12/13/5 10/14/5 8/15/5 6/16/5
f 9/10/6 10/9/6 12/17/6 11/18/6
f 11/18/7 12/17/7 2/19/7 1/20/7
f 1/21/8 3/22/8 5/23/8 7/24/8 9/25/8 11/26/8
o Cylinder.001
v 0.002765 0.761450 -1.452356
v 0.001822 2.538544 -0.740990
v 1.261346 0.677698 -0.724626
v 0.644572 2.538544 -0.369898
v 1.261346 0.677698 0.727013
v 0.644572 2.538544 0.372285
v -0.155597 0.988979 1.282364
v 0.001822 2.538544 0.743376
v -1.257702 0.753031 0.728106
v -0.640927 2.538544 0.372285
v -1.045792 0.996721 -0.725720
v -0.640927 2.538544 -0.369898
v 0.001822 0.761478 -1.779343
v 1.543812 0.669250 -0.889075
v 1.543812 0.669250 0.891462
v -0.156540 0.989007 1.609352
v -1.540168 0.761478 0.891462
v -1.328258 1.005169 -0.889075
v 0.011360 1.048944 -1.452356
v 1.269941 0.965192 -0.724626
v 1.269941 0.965192 0.727013
v 0.011360 1.048944 1.454743
v -1.249107 1.040525 0.728106
v -1.249107 1.040525 -0.725720
vn 0.4624 0.4423 -0.7685
vn 0.9012 0.4335 -0.0000
vn 0.4292 0.4175 0.8009
vn -0.4595 0.4620 0.7586
vn -0.0000 1.0000 -0.0000
vn -0.9013 0.4319 -0.0340
vn -0.4389 0.4555 -0.7745
vn 0.4502 0.2038 -0.8693
vn -0.0546 -0.9984 -0.0142
vn -0.0299 -0.9996 -0.0000
vn -0.1668 -0.9828 0.0787
vn 0.1352 -0.9862 0.0952
vn -0.0295 -0.9878 -0.1527
vn -0.1509 -0.9861 0.0702
vn -0.9996 0.0299 -0.0000
vn 0.8574 0.5039 0.1047
vn -0.2975 0.5407 -0.7869
vn -0.4998 0.0149 0.8660
vn 0.5280 0.3103 0.7905
vt 1.000000 0.500000
vt 1.000000 1.000000
vt 0.833333 1.000000
vt 0.833333 0.500000
vt 0.666667 1.000000
vt 0.666667 0.500000
vt 0.500000 1.000000
vt 0.500000 0.500000
vt 0.333333 1.000000
vt 0.333333 0.500000
vt 0.457846 0.370000
vt 0.250000 0.490000
vt 0.042154 0.370000
vt 0.042154 0.130000
vt 0.250000 0.010000
vt 0.457846 0.130000
vt 0.166667 1.000000
vt 0.166667 0.500000
vt -0.000000 1.000000
vt -0.000000 0.500000
vt 0.749815 0.054075
vt 0.580385 0.152019
vt 0.919928 0.347834
vt 0.749815 0.445925
vt 0.750000 0.490000
vt 0.957846 0.370000
vt 0.919928 0.152166
vt 0.957846 0.130000
vt 0.750000 0.010000
vt 0.542154 0.130000
vt 0.580385 0.347981
vt 0.542154 0.370000
s 0
usemtl Material
f 25/27/9 14/28/9 16/29/9 26/30/9
f 26/30/10 16/29/10 18/31/10 27/32/10
f 27/32/11 18/31/11 20/33/11 28/34/11
f 28/34/12 20/33/12 22/35/12 29/36/12
f 16/37/13 14/38/13 24/39/13 22/40/13 20/41/13 18/42/13
f 29/36/14 22/35/14 24/43/14 30/44/14
f 30/44/15 24/43/15 14/45/15 25/46/15
f 19/47/16 21/48/16 35/48/16 34/47/16
f 15/49/17 13/50/17 25/51/17 26/52/17
f 17/53/18 15/49/18 26/52/18 27/54/18
f 19/47/19 17/53/19 27/54/19 28/55/19
f 21/48/20 19/47/20 28/55/20 29/56/20
f 23/57/21 21/48/21 29/56/21 30/58/21
f 13/50/22 23/57/22 30/58/22 25/51/22
f 31/50/18 32/49/18 33/53/18 34/47/18 35/48/18 36/57/18
f 15/49/23 17/53/23 33/53/23 32/49/23
f 21/48/24 23/57/24 36/57/24 35/48/24
f 17/53/25 19/47/25 34/47/25 33/53/25
f 13/50/26 15/49/26 32/49/26 31/50/26
f 23/57/27 13/50/27 31/50/27 36/57/27
o Cylinder.002
v 0.028924 2.114609 -1.328443
v 0.010711 3.579654 -0.555719
v 1.106430 1.978806 -0.689279
v 0.560851 3.547160 -0.225914
v 1.083107 1.847520 0.559799
v 0.548927 3.480037 0.412705
v -0.017783 1.851690 1.173000
v -0.013138 3.445407 0.721519
v -1.096628 1.908067 0.526414
v -0.563279 3.477901 0.391714
v -1.091678 2.201607 -0.727909
v -0.551355 3.545024 -0.246906
v 0.033362 2.144204 -1.609816
v 1.353488 1.986879 -0.826932
v 1.324881 1.825846 0.705149
v -0.023852 1.822140 1.454346
v -1.343669 1.900094 0.663126
v -1.333469 2.223181 -0.872319
v 0.035395 2.362043 -1.302315
v 1.112901 2.226240 -0.663151
v 1.089578 2.094954 0.585927
v -0.011313 2.099124 1.199128
v -1.090157 2.155501 0.552542
v -1.066799 2.286986 -0.698418
vn 0.4748 0.5211 -0.7092
vn 0.8993 0.4329 0.0623
vn 0.4463 0.3604 0.8191
vn -0.4622 0.3674 0.8071
vn -0.0039 0.9945 0.1045
vn -0.8816 0.4660 0.0747
vn -0.3867 0.5551 -0.7364
vn 0.5155 0.0766 -0.8535
vn -0.0504 -0.9916 -0.1194
vn -0.0260 -0.9941 -0.1050
vn -0.0509 -0.9945 -0.0913
vn -0.0016 -0.9959 -0.0904
vn -0.0238 -0.9761 -0.2159
vn -0.1004 -0.9929 -0.0634
vn -0.9995 0.0278 -0.0157
vn 0.9957 -0.0930 -0.0045
vn -0.4836 0.1044 -0.8690
vn -0.5158 -0.0766 0.8533
vn 0.4671 -0.1884 0.8639
vt 1.000000 0.500000
vt 1.000000 1.000000
vt 0.833333 1.000000
vt 0.833333 0.500000
vt 0.666667 1.000000
vt 0.666667 0.500000
vt 0.500000 1.000000
vt 0.500000 0.500000
vt 0.333333 1.000000
vt 0.333333 0.500000
vt 0.457846 0.370000
vt 0.250000 0.490000
vt 0.042154 0.370000
vt 0.042154 0.130000
vt 0.250000 0.010000
vt 0.457846 0.130000
vt 0.166667 1.000000
vt 0.166667 0.500000
vt -0.000000 1.000000
vt -0.000000 0.500000
vt 0.749815 0.054075
vt 0.580385 0.152019
vt 0.919928 0.347834
vt 0.749815 0.445925
vt 0.750000 0.490000
vt 0.957846 0.370000
vt 0.919928 0.152166
vt 0.957846 0.130000
vt 0.750000 0.010000
vt 0.542154 0.130000
vt 0.580385 0.347981
vt 0.542154 0.370000
s 0
usemtl Material
f 49/59/28 38/60/28 40/61/28 50/62/28
f 50/62/29 40/61/29 42/63/29 51/64/29
f 51/64/30 42/63/30 44/65/30 52/66/30
f 52/66/31 44/65/31 46/67/31 53/68/31
f 40/69/32 38/70/32 48/71/32 46/72/32 44/73/32 42/74/32
f 53/68/33 46/67/33 48/75/33 54/76/33
f 54/76/34 48/75/34 38/77/34 49/78/34
f 43/79/35 45/80/35 59/80/35 58/79/35
f 39/81/36 37/82/36 49/83/36 50/84/36
f 41/85/37 39/81/37 50/84/37 51/86/37
f 43/79/38 41/85/38 51/86/38 52/87/38
f 45/80/39 43/79/39 52/87/39 53/88/39
f 47/89/40 45/80/40 53/88/40 54/90/40
f 37/82/41 47/89/41 54/90/41 49/83/41
f 55/82/37 56/81/37 57/85/37 58/79/37 59/80/37 60/89/37
f 39/81/42 41/85/42 57/85/42 56/81/42
f 45/80/43 47/89/43 60/89/43 59/80/43
f 41/85/44 43/79/44 58/79/44 57/85/44
f 37/82/45 39/81/45 56/81/45 55/82/45
f 47/89/46 37/82/46 55/82/46 60/89/46
o Cylinder.004
v 0.009606 3.070348 -1.060151
v 0.003036 4.286393 -0.478852
v 0.893179 2.980070 -0.547716
v 0.454196 4.270368 -0.215584
v 0.887633 2.913506 0.472258
v 0.451361 4.236335 0.305901
v -0.017846 3.084203 0.988362
v -0.002635 4.218328 0.564118
v -0.886240 3.093071 0.466582
v -0.453796 4.234353 0.300850
v -0.880686 3.029169 -0.554929
v -0.450960 4.268385 -0.220635
v 0.010192 3.085360 -1.289906
v 1.092715 2.982111 -0.662541
v 1.085912 2.900465 0.588528
v -0.019758 3.069227 1.218113
v -1.085771 3.091081 0.580639
v -1.078969 3.042160 -0.670431
v 0.015142 3.272367 -1.046937
v 0.898715 3.182090 -0.534502
v 0.893169 3.115525 0.485472
v 0.004035 3.139064 0.995696
v -0.880704 3.164524 0.479796
v -0.875149 3.231189 -0.541715
vn 0.4654 0.4924 -0.7355
vn 0.9000 0.4346 0.0333
vn 0.4806 0.4113 0.7745
vn -0.4494 0.4432 0.7756
vn -0.0025 0.9979 0.0651
vn -0.8826 0.4700 -0.0087
vn -0.4431 0.4999 -0.7442
vn 0.5096 0.0293 -0.8599
vn -0.0519 -0.9955 -0.0794
vn -0.0273 -0.9975 -0.0652
vn -0.1603 -0.9870 0.0111
vn 0.0101 -0.9990 -0.0434
vn -0.0278 -0.9984 0.0494
vn -0.0026 -0.9968 -0.0794
vn -0.9996 0.0276 -0.0036
vn 0.9991 -0.0410 0.0054
vn -0.4829 0.1209 -0.8673
vn -0.5045 -0.0426 0.8624
vn 0.4948 -0.0702 0.8662
vt 1.000000 0.500000
vt 1.000000 1.000000
vt 0.833333 1.000000
vt 0.833333 0.500000
vt 0.666667 1.000000
vt 0.666667 0.500000
vt 0.500000 1.000000
vt 0.500000 0.500000
vt 0.333333 1.000000
vt 0.333333 0.500000
vt 0.457846 0.370000
vt 0.250000 0.490000
vt 0.042154 0.370000
vt 0.042154 0.130000
vt 0.250000 0.010000
vt 0.457846 0.130000
vt 0.166667 1.000000
vt 0.166667 0.500000
vt -0.000000 1.000000
vt -0.000000 0.500000
vt 0.749815 0.054075
vt 0.580385 0.152019
vt 0.919928 0.347834
vt 0.749815 0.445925
vt 0.750000 0.490000
vt 0.957846 0.370000
vt 0.919928 0.152166
vt 0.957846 0.130000
vt 0.750000 0.010000
vt 0.542154 0.130000
vt 0.580385 0.347981
vt 0.542154 0.370000
s 0
usemtl Material
f 73/91/47 62/92/47 64/93/47 74/94/47
f 74/94/48 64/93/48 66/95/48 75/96/48
f 75/96/49 66/95/49 68/97/49 76/98/49
f 76/98/50 68/97/50 70/99/50 77/100/50
f 64/101/51 62/102/51 72/103/51 70/104/51 68/105/51 66/106/51
f 77/100/52 70/99/52 72/107/52 78/108/52
f 78/108/53 72/107/53 62/109/53 73/110/53
f 67/111/54 69/112/54 83/112/54 82/111/54
f 63/113/55 61/114/55 73/115/55 74/116/55
f 65/117/56 63/113/56 74/116/56 75/118/56
f 67/111/57 65/117/57 75/118/57 76/119/57
f 69/112/58 67/111/58 76/119/58 77/120/58
f 71/121/59 69/112/59 77/120/59 78/122/59
f 61/114/60 71/121/60 78/122/60 73/115/60
f 79/114/56 80/113/56 81/117/56 82/111/56 83/112/56 84/121/56
f 63/113/61 65/117/61 81/117/61 80/113/61
f 69/112/62 71/121/62 84/121/62 83/112/62
f 65/117/63 67/111/63 82/111/63 81/117/63
f 61/114/64 63/113/64 80/113/64 79/114/64
f 71/121/65 61/114/65 79/114/65 84/121/65
o Cylinder.005
v -0.014836 3.859546 -0.816472
v -0.002560 5.450405 -0.245109
v 0.724026 3.830776 -0.407117
v 0.191003 5.455579 -0.138656
v 0.741113 3.871953 0.434205
v 0.195484 5.466378 0.082000
v 0.019383 4.082417 0.759064
v 0.006403 5.472004 0.196202
v -0.720571 3.917379 0.462304
v -0.187160 5.466830 0.089749
v -0.737684 3.876141 -0.380286
v -0.191641 5.456031 -0.130907
v -0.019232 3.850288 -1.005973
v 0.885993 3.821022 -0.505506
v 0.906952 3.871527 0.526434
v 0.022685 4.091710 0.948586
v -0.882551 3.927103 0.560059
v -0.903509 3.876598 -0.471882
v -0.009817 4.026197 -0.824730
v 0.729045 3.997427 -0.415375
v 0.746132 4.038603 0.425947
v 0.024401 4.108657 0.860129
v -0.715552 4.084029 0.454045
v -0.732665 4.042791 -0.388545
vn 0.4542 0.3767 -0.8073
vn 0.9165 0.3982 -0.0381
vn 0.4745 0.4260 0.7703
vn -0.4251 0.4319 0.7955
vn 0.0002 0.9988 -0.0489
vn -0.9115 0.4112 -0.0016
vn -0.4692 0.3832 -0.7956
vn 0.3536 0.3905 -0.8500
vn -0.0550 -0.9978 0.0358
vn -0.0301 -0.9983 0.0495
vn -0.1923 -0.9704 0.1460
vn 0.1377 -0.9804 0.1410
vn -0.0057 -0.9994 0.0347
vn -0.9993 0.0310 0.0188
vn 0.9993 -0.0310 -0.0188
vn -0.3571 0.4200 -0.8343
vn -0.4821 0.0578 0.8742
vn 0.5169 0.0268 0.8556
vt 1.000000 0.500000
vt 1.000000 1.000000
vt 0.833333 1.000000
vt 0.833333 0.500000
vt 0.666667 1.000000
vt 0.666667 0.500000
vt 0.500000 1.000000
vt 0.500000 0.500000
vt 0.333333 1.000000
vt 0.333333 0.500000
vt 0.457846 0.370000
vt 0.250000 0.490000
vt 0.042154 0.370000
vt 0.042154 0.130000
vt 0.250000 0.010000
vt 0.457846 0.130000
vt 0.166667 1.000000
vt 0.166667 0.500000
vt -0.000000 1.000000
vt -0.000000 0.500000
vt 0.749815 0.054075
vt 0.580385 0.152019
vt 0.919928 0.347834
vt 0.749815 0.445925
vt 0.750000 0.490000
vt 0.957846 0.370000
vt 0.919928 0.152166
vt 0.957846 0.130000
vt 0.750000 0.010000
vt 0.542154 0.130000
vt 0.580385 0.347981
vt 0.542154 0.370000
s 0
usemtl Material
f 97/123/66 86/124/66 88/125/66 98/126/66
f 98/126/67 88/125/67 90/127/67 99/128/67
f 99/128/68 90/127/68 92/129/68 100/130/68
f 100/130/69 92/129/69 94/131/69 101/132/69
f 88/133/70 86/134/70 96/135/70 94/136/70 92/137/70 90/138/70
f 101/132/71 94/131/71 96/139/71 102/140/71
f 102/140/72 96/139/72 86/141/72 97/142/72
f 91/143/73 93/144/73 107/144/73 106/143/73
f 87/145/74 85/146/74 97/147/74 98/148/74
f 89/149/75 87/145/75 98/148/75 99/150/75
f 91/143/76 89/149/76 99/150/76 100/151/76
f 93/144/77 91/143/77 100/151/77 101/152/77
f 95/153/75 93/144/75 101/152/75 102/154/75
f 85/146/78 95/153/78 102/154/78 97/147/78
f 103/146/75 104/145/75 105/149/75 106/143/75 107/144/75 108/153/75
f 87/145/79 89/149/79 105/149/79 104/145/79
f 93/144/80 95/153/80 108/153/80 107/144/80
f 89/149/81 91/143/81 106/143/81 105/149/81
f 85/146/82 87/145/82 104/145/82 103/146/82
f 95/153/83 85/146/83 103/146/83 108/153/83
o Cylinder.003
v -0.003486 4.120043 -0.769955
v 0.008791 5.710901 -0.198593
v 0.735377 4.091272 -0.360601
v 0.202354 5.716075 -0.092139
v 0.752464 4.132449 0.480722
v 0.206835 5.726874 0.128516
v 0.030733 4.342914 0.805581
v 0.017754 5.732500 0.242719
v -0.709220 4.177876 0.508820
v -0.175809 5.727326 0.136265
v -0.726333 4.136637 -0.333770
v -0.180291 5.716527 -0.084390
v -0.007881 4.110785 -0.959456
v 0.897344 4.081518 -0.458990
v 0.918302 4.132023 0.572951
v 0.034035 4.352206 0.995102
v -0.871200 4.187599 0.606575
v -0.892159 4.137094 -0.425365
v 0.001533 4.286693 -0.778214
v 0.740396 4.257923 -0.368859
v 0.757483 4.299099 0.472463
v 0.035752 4.369153 0.906645
v -0.704201 4.344525 0.500562
v -0.721314 4.303288 -0.342028
vn 0.4542 0.3767 -0.8073
vn 0.9165 0.3982 -0.0381
vn 0.4745 0.4260 0.7703
vn -0.4251 0.4319 0.7955
vn 0.0002 0.9988 -0.0489
vn -0.9115 0.4112 -0.0016
vn -0.4692 0.3832 -0.7956
vn 0.3536 0.3905 -0.8500
vn -0.0550 -0.9978 0.0358
vn -0.0301 -0.9983 0.0495
vn -0.1923 -0.9704 0.1460
vn 0.1377 -0.9804 0.1410
vn -0.0057 -0.9994 0.0347
vn -0.9993 0.0310 0.0188
vn 0.9993 -0.0310 -0.0188
vn -0.3571 0.4200 -0.8343
vn -0.4821 0.0578 0.8742
vn 0.5169 0.0268 0.8556
vt 1.000000 0.500000
vt 1.000000 1.000000
vt 0.833333 1.000000
vt 0.833333 0.500000
vt 0.666667 1.000000
vt 0.666667 0.500000
vt 0.500000 1.000000
vt 0.500000 0.500000
vt 0.333333 1.000000
vt 0.333333 0.500000
vt 0.457846 0.370000
vt 0.250000 0.490000
vt 0.042154 0.370000
vt 0.042154 0.130000
vt 0.250000 0.010000
vt 0.457846 0.130000
vt 0.166667 1.000000
vt 0.166667 0.500000
vt -0.000000 1.000000
vt -0.000000 0.500000
vt 0.749815 0.054075
vt 0.580385 0.152019
vt 0.919928 0.347834
vt 0.749815 0.445925
vt 0.750000 0.490000
vt 0.957846 0.370000
vt 0.919928 0.152166
vt 0.957846 0.130000
vt 0.750000 0.010000
vt 0.542154 0.130000
vt 0.580385 0.347981
vt 0.542154 0.370000
s 0
usemtl Material.002
f 115/175/91 117/176/91 131/176/91 130/175/91
f 127/178/93 128/177/93 129/181/93 130/175/93 131/176/93 132/185/93
f 113/181/99 115/175/99 130/175/99 129/181/99
usemtl Material.003
f 121/155/84 110/156/84 112/157/84 122/158/84
f 122/158/85 112/157/85 114/159/85 123/160/85
f 123/160/86 114/159/86 116/161/86 124/162/86
f 124/162/87 116/161/87 118/163/87 125/164/87
f 112/165/88 110/166/88 120/167/88 118/168/88 116/169/88 114/170/88
f 125/164/89 118/163/89 120/171/89 126/172/89
f 126/172/90 120/171/90 110/173/90 121/174/90
f 111/177/92 109/178/92 121/179/92 122/180/92
f 113/181/93 111/177/93 122/180/93 123/182/93
f 115/175/94 113/181/94 123/182/94 124/183/94
f 117/176/95 115/175/95 124/183/95 125/184/95
f 119/185/93 117/176/93 125/184/93 126/186/93
f 109/178/96 119/185/96 126/186/96 121/179/96
f 111/177/97 113/181/97 129/181/97 128/177/97
f 117/176/98 119/185/98 132/185/98 131/176/98
f 109/178/100 111/177/100 128/177/100 127/178/100
f 119/185/101 109/178/101 127/178/101 132/185/101
o Cylinder.006
v 0.020957 3.330844 -1.013634
v 0.014387 4.546889 -0.432335
v 0.904530 3.240567 -0.501199
v 0.465547 4.530864 -0.169067
v 0.898984 3.174003 0.518775
v 0.462711 4.496831 0.352417
v -0.006495 3.344699 1.034879
v 0.008715 4.478825 0.610634
v -0.874889 3.353568 0.513099
v -0.442445 4.494850 0.347366
v -0.869335 3.289666 -0.508412
v -0.439609 4.528882 -0.174118
v 0.021542 3.345856 -1.243390
v 1.104065 3.242607 -0.616024
v 1.097263 3.160962 0.635045
v -0.008408 3.329723 1.264629
v -1.074421 3.351577 0.627155
v -1.067618 3.302656 -0.623914
v 0.026493 3.532863 -1.000420
v 0.910066 3.442586 -0.487985
v 0.904520 3.376022 0.531989
v 0.015386 3.399560 1.042212
v -0.869353 3.425021 0.526313
v -0.863799 3.491685 -0.495198
vn 0.4654 0.4924 -0.7355
vn 0.9000 0.4346 0.0333
vn 0.4806 0.4113 0.7745
vn -0.4494 0.4432 0.7756
vn -0.0025 0.9979 0.0651
vn -0.8826 0.4700 -0.0087
vn -0.4431 0.4999 -0.7442
vn 0.5096 0.0293 -0.8599
vn -0.0519 -0.9955 -0.0794
vn -0.0273 -0.9975 -0.0652
vn -0.1603 -0.9870 0.0111
vn 0.0101 -0.9990 -0.0434
vn -0.0278 -0.9984 0.0494
vn -0.0026 -0.9968 -0.0794
vn -0.9996 0.0276 -0.0036
vn 0.9991 -0.0410 0.0054
vn -0.4829 0.1209 -0.8673
vn -0.5045 -0.0426 0.8624
vn 0.4948 -0.0702 0.8662
vt 1.000000 0.500000
vt 1.000000 1.000000
vt 0.833333 1.000000
vt 0.833333 0.500000
vt 0.666667 1.000000
vt 0.666667 0.500000
vt 0.500000 1.000000
vt 0.500000 0.500000
vt 0.333333 1.000000
vt 0.333333 0.500000
vt 0.457846 0.370000
vt 0.250000 0.490000
vt 0.042154 0.370000
vt 0.042154 0.130000
vt 0.250000 0.010000
vt 0.457846 0.130000
vt 0.166667 1.000000
vt 0.166667 0.500000
vt -0.000000 1.000000
vt -0.000000 0.500000
vt 0.749815 0.054075
vt 0.580385 0.152019
vt 0.919928 0.347834
vt 0.749815 0.445925
vt 0.750000 0.490000
vt 0.957846 0.370000
vt 0.919928 0.152166
vt 0.957846 0.130000
vt 0.750000 0.010000
vt 0.542154 0.130000
vt 0.580385 0.347981
vt 0.542154 0.370000
s 0
usemtl Material.003
f 145/187/102 134/188/102 136/189/102 146/190/102
f 146/190/103 136/189/103 138/191/103 147/192/103
f 147/192/104 138/191/104 140/193/104 148/194/104
f 148/194/105 140/193/105 142/195/105 149/196/105
f 136/197/106 134/198/106 144/199/106 142/200/106 140/201/106 138/202/106
f 149/196/107 142/195/107 144/203/107 150/204/107
f 150/204/108 144/203/108 134/205/108 145/206/108
f 139/207/109 141/208/109 155/208/109 154/207/109
f 135/209/110 133/210/110 145/211/110 146/212/110
f 137/213/111 135/209/111 146/212/111 147/214/111
f 139/207/112 137/213/112 147/214/112 148/215/112
f 141/208/113 139/207/113 148/215/113 149/216/113
f 143/217/114 141/208/114 149/216/114 150/218/114
f 133/210/115 143/217/115 150/218/115 145/211/115
f 151/210/111 152/209/111 153/213/111 154/207/111 155/208/111 156/217/111
f 135/209/116 137/213/116 153/213/116 152/209/116
f 141/208/117 143/217/117 156/217/117 155/208/117
f 137/213/118 139/207/118 154/207/118 153/213/118
f 133/210/119 135/209/119 152/209/119 151/210/119
f 143/217/120 133/210/120 151/210/120 156/217/120
o Cylinder.007
v 0.040275 2.375105 -1.281927
v 0.022061 3.840150 -0.509203
v 1.117781 2.239303 -0.642762
v 0.572202 3.807657 -0.179397
v 1.094458 2.108016 0.606315
v 0.560277 3.740533 0.459222
v -0.006433 2.112187 1.219516
v -0.001788 3.705904 0.768036
v -1.085277 2.168564 0.572931
v -0.551928 3.738397 0.438230
v -1.080327 2.462103 -0.681392
v -0.540004 3.805521 -0.200389
v 0.044713 2.404701 -1.563299
v 1.364839 2.247375 -0.780415
v 1.336232 2.086343 0.751666
v -0.012502 2.082637 1.500863
v -1.332318 2.160590 0.709642
v -1.322119 2.483678 -0.825802
v 0.046746 2.622539 -1.255799
v 1.124252 2.486737 -0.616635
v 1.100929 2.355450 0.632443
v 0.000038 2.359621 1.245644
v -1.078807 2.415998 0.599058
v -1.055449 2.547482 -0.651901
vn 0.4748 0.5211 -0.7092
vn 0.8993 0.4329 0.0623
vn 0.4463 0.3604 0.8191
vn -0.4622 0.3674 0.8071
vn -0.0039 0.9945 0.1045
vn -0.8816 0.4660 0.0747
vn -0.3867 0.5551 -0.7364
vn 0.5155 0.0766 -0.8535
vn -0.0504 -0.9916 -0.1194
vn -0.0260 -0.9941 -0.1050
vn -0.0509 -0.9945 -0.0913
vn -0.0016 -0.9959 -0.0904
vn -0.0238 -0.9761 -0.2159
vn -0.1004 -0.9929 -0.0634
vn -0.9995 0.0278 -0.0157
vn 0.9957 -0.0930 -0.0045
vn -0.4836 0.1044 -0.8690
vn -0.5158 -0.0766 0.8533
vn 0.4671 -0.1884 0.8639
vt 1.000000 0.500000
vt 1.000000 1.000000
vt 0.833333 1.000000
vt 0.833333 0.500000
vt 0.666667 1.000000
vt 0.666667 0.500000
vt 0.500000 1.000000
vt 0.500000 0.500000
vt 0.333333 1.000000
vt 0.333333 0.500000
vt 0.457846 0.370000
vt 0.250000 0.490000
vt 0.042154 0.370000
vt 0.042154 0.130000
vt 0.250000 0.010000
vt 0.457846 0.130000
vt 0.166667 1.000000
vt 0.166667 0.500000
vt -0.000000 1.000000
vt -0.000000 0.500000
vt 0.749815 0.054075
vt 0.580385 0.152019
vt 0.919928 0.347834
vt 0.749815 0.445925
vt 0.750000 0.490000
vt 0.957846 0.370000
vt 0.919928 0.152166
vt 0.957846 0.130000
vt 0.750000 0.010000
vt 0.542154 0.130000
vt 0.580385 0.347981
vt 0.542154 0.370000
s 0
usemtl Material.003
f 169/219/121 158/220/121 160/221/121 170/222/121
f 170/222/122 160/221/122 162/223/122 171/224/122
f 171/224/123 162/223/123 164/225/123 172/226/123
f 172/226/124 164/225/124 166/227/124 173/228/124
f 160/229/125 158/230/125 168/231/125 166/232/125 164/233/125 162/234/125
f 173/228/126 166/227/126 168/235/126 174/236/126
f 174/236/127 168/235/127 158/237/127 169/238/127
f 163/239/128 165/240/128 179/240/128 178/239/128
f 159/241/129 157/242/129 169/243/129 170/244/129
f 161/245/130 159/241/130 170/244/130 171/246/130
f 163/239/131 161/245/131 171/246/131 172/247/131
f 165/240/132 163/239/132 172/247/132 173/248/132
f 167/249/133 165/240/133 173/248/133 174/250/133
f 157/242/134 167/249/134 174/250/134 169/243/134
f 175/242/130 176/241/130 177/245/130 178/239/130 179/240/130 180/249/130
f 159/241/135 161/245/135 177/245/135 176/241/135
f 165/240/136 167/249/136 180/249/136 179/240/136
f 161/245/137 163/239/137 178/239/137 177/245/137
f 157/242/138 159/241/138 176/241/138 175/242/138
f 167/249/139 157/242/139 175/242/139 180/249/139
o Cylinder.008
v 0.014115 1.021946 -1.405839
v 0.013173 2.799041 -0.694473
v 1.272697 0.938194 -0.678110
v 0.655922 2.799041 -0.323382
v 1.272697 0.938194 0.773529
v 0.655922 2.799041 0.418801
v -0.144247 1.249475 1.328881
v 0.013173 2.799041 0.789893
v -1.246351 1.013527 0.774623
v -0.629577 2.799041 0.418801
v -1.034441 1.257218 -0.679203
v -0.629577 2.799041 -0.323382
v 0.013173 1.021975 -1.732827
v 1.555163 0.929747 -0.842559
v 1.555163 0.929747 0.937978
v -0.145189 1.249504 1.655868
v -1.528817 1.021975 0.937978
v -1.316907 1.265665 -0.842559
v 0.022710 1.309440 -1.405839
v 1.281292 1.225688 -0.678110
v 1.281292 1.225688 0.773529
v 0.022710 1.309440 1.501259
v -1.237756 1.301021 0.774623
v -1.237756 1.301021 -0.679203
vn 0.4624 0.4423 -0.7685
vn 0.9012 0.4335 -0.0000
vn 0.4292 0.4175 0.8009
vn -0.4595 0.4620 0.7586
vn -0.0000 1.0000 -0.0000
vn -0.9013 0.4319 -0.0340
vn -0.4389 0.4555 -0.7745
vn 0.4502 0.2038 -0.8693
vn -0.0546 -0.9984 -0.0142
vn -0.0299 -0.9996 -0.0000
vn -0.1668 -0.9828 0.0787
vn 0.1352 -0.9862 0.0952
vn -0.0295 -0.9878 -0.1527
vn -0.1509 -0.9861 0.0702
vn -0.9996 0.0299 -0.0000
vn 0.8574 0.5039 0.1047
vn -0.2975 0.5407 -0.7869
vn -0.4998 0.0149 0.8660
vn 0.5280 0.3103 0.7905
vt 1.000000 0.500000
vt 1.000000 1.000000
vt 0.833333 1.000000
vt 0.833333 0.500000
vt 0.666667 1.000000
vt 0.666667 0.500000
vt 0.500000 1.000000
vt 0.500000 0.500000
vt 0.333333 1.000000
vt 0.333333 0.500000
vt 0.457846 0.370000
vt 0.250000 0.490000
vt 0.042154 0.370000
vt 0.042154 0.130000
vt 0.250000 0.010000
vt 0.457846 0.130000
vt 0.166667 1.000000
vt 0.166667 0.500000
vt -0.000000 1.000000
vt -0.000000 0.500000
vt 0.749815 0.054075
vt 0.580385 0.152019
vt 0.919928 0.347834
vt 0.749815 0.445925
vt 0.750000 0.490000
vt 0.957846 0.370000
vt 0.919928 0.152166
vt 0.957846 0.130000
vt 0.750000 0.010000
vt 0.542154 0.130000
vt 0.580385 0.347981
vt 0.542154 0.370000
s 0
usemtl Material.002
f 189/272/155 191/281/155 204/281/155 203/272/155
f 191/281/158 181/274/158 199/274/158 204/281/158
usemtl Material.003
f 193/251/140 182/252/140 184/253/140 194/254/140
f 194/254/141 184/253/141 186/255/141 195/256/141
f 195/256/142 186/255/142 188/257/142 196/258/142
f 196/258/143 188/257/143 190/259/143 197/260/143
f 184/261/144 182/262/144 192/263/144 190/264/144 188/265/144 186/266/144
f 197/260/145 190/259/145 192/267/145 198/268/145
f 198/268/146 192/267/146 182/269/146 193/270/146
f 187/271/147 189/272/147 203/272/147 202/271/147
f 183/273/148 181/274/148 193/275/148 194/276/148
f 185/277/149 183/273/149 194/276/149 195/278/149
f 187/271/150 185/277/150 195/278/150 196/279/150
f 189/272/151 187/271/151 196/279/151 197/280/151
f 191/281/152 189/272/152 197/280/152 198/282/152
f 181/274/153 191/281/153 198/282/153 193/275/153
f 199/274/149 200/273/149 201/277/149 202/271/149 203/272/149 204/281/149
f 183/273/154 185/277/154 201/277/154 200/273/154
f 185/277/156 187/271/156 202/271/156 201/277/156
f 181/274/157 183/273/157 200/273/157 199/274/157
