# Blender 4.3.2
# www.blender.org
mtllib tree_smol_snowy.mtl
o Cylinder
v 0.000000 -0.567655 -0.485060
v 0.000000 0.567655 -0.256107
v 0.420074 -0.567655 -0.242530
v 0.221795 0.567655 -0.128053
v 0.420074 -0.567655 0.242530
v 0.221795 0.567655 0.128053
v 0.000000 -0.567655 0.485060
v 0.000000 0.567655 0.256107
v -0.420074 -0.567655 0.242530
v -0.221795 0.567655 0.128053
v -0.420074 -0.567655 -0.242530
v -0.221795 0.567655 -0.128053
vn 0.4925 0.1720 -0.8531
vn 0.9851 0.1720 -0.0000
vn 0.4925 0.1720 0.8531
vn -0.4925 0.1720 0.8531
vn -0.0000 1.0000 -0.0000
vn -0.9851 0.1720 -0.0000
vn -0.4925 0.1720 -0.8531
vn -0.0000 -1.0000 -0.0000
vt 1.000000 0.500000
vt 1.000000 1.000000
vt 0.833333 1.000000
vt 0.833333 0.500000
vt 0.666667 1.000000
vt 0.666667 0.500000
vt 0.500000 1.000000
vt 0.500000 0.500000
vt 0.333333 1.000000
vt 0.333333 0.500000
vt 0.457846 0.370000
vt 0.250000 0.490000
vt 0.042154 0.370000
vt 0.042154 0.130000
vt 0.250000 0.010000
vt 0.457846 0.130000
vt 0.166667 1.000000
vt 0.166667 0.500000
vt -0.000000 1.000000
vt -0.000000 0.500000
vt 0.750000 0.490000
vt 0.957846 0.370000
vt 0.957846 0.130000
vt 0.750000 0.010000
vt 0.542154 0.130000
vt 0.542154 0.370000
s 0
usemtl Material.001
f 1/1/1 2/2/1 4/3/1 3/4/1
f 3/4/2 4/3/2 6/5/2 5/6/2
f 5/6/3 6/5/3 8/7/3 7/8/3
f 7/8/4 8/7/4 10/9/4 9/10/4
f 4/11/5 2/12/5 12/13/5 10/14/5 8/15/5 6/16/5
f 9/10/6 10/9/6 12/17/6 11/18/6
f 11/18/7 12/17/7 2/19/7 1/20/7
f 1/21/8 3/22/8 5/23/8 7/24/8 9/25/8 11/26/8
o Cylinder.001
v 0.000000 0.288872 -0.655161
v 0.000000 1.240123 -0.461530
v 0.567386 0.288872 -0.327581
v 0.399696 1.240123 -0.230765
v 0.567386 0.414466 0.327581
v 0.399696 1.240123 0.230765
v 0.000000 0.288872 0.655161
v 0.000000 1.240123 0.461530
v -0.567386 0.288872 0.327581
v -0.399696 1.240123 0.230765
v -0.567386 0.396032 -0.327581
v -0.399696 1.240123 -0.230765
v 0.000000 0.288872 -0.901112
v 0.780386 0.288872 -0.450556
v 0.780386 0.414466 0.450556
v 0.000000 0.288872 0.901112
v -0.780386 0.288872 0.450556
v -0.780386 0.396032 -0.450556
v 0.000000 0.600867 -0.655161
v 0.567386 0.600867 -0.327581
v 0.567386 0.600867 0.327581
v 0.000000 0.600867 0.655161
v -0.567386 0.600867 0.327581
v -0.567386 0.600867 -0.327581
vn 0.4642 0.3715 -0.8040
vn 0.9186 0.3936 -0.0363
vn 0.4279 0.3936 0.8136
vn -0.4642 0.3715 0.8040
vn -0.0000 1.0000 -0.0000
vn -0.9202 0.3902 0.0307
vn -0.4335 0.3902 -0.8123
vn -1.0000 -0.0000 -0.0000
vn -0.0000 -1.0000 -0.0000
vn -0.0000 -0.9872 0.1593
vn 0.1380 -0.9872 -0.0797
vn -0.0000 -0.9907 -0.1364
vn -0.1181 -0.9907 0.0682
vn 1.0000 -0.0000 -0.0000
vn -0.5000 -0.0000 -0.8660
vn -0.5000 -0.0000 0.8660
vn 0.5000 -0.0000 0.8660
vn 0.5000 -0.0000 -0.8660
vt 1.000000 0.500000
vt 1.000000 1.000000
vt 0.833333 1.000000
vt 0.833333 0.500000
vt 0.666667 1.000000
vt 0.666667 0.500000
vt 0.500000 1.000000
vt 0.500000 0.500000
vt 0.333333 1.000000
vt 0.333333 0.500000
vt 0.457846 0.370000
vt 0.250000 0.490000
vt 0.042154 0.370000
vt 0.042154 0.130000
vt 0.250000 0.010000
vt 0.457846 0.130000
vt 0.166667 1.000000
vt 0.166667 0.500000
vt -0.000000 1.000000
vt -0.000000 0.500000
vt 0.901116 0.337247
vt 0.901116 0.162753
vt 0.750000 0.424494
vt 0.750000 0.490000
vt 0.957846 0.370000
vt 0.957846 0.130000
vt 0.750000 0.075506
vt 0.750000 0.010000
vt 0.598884 0.162753
vt 0.542154 0.130000
vt 0.598884 0.337247
vt 0.542154 0.370000
s 0
usemtl Material
f 25/27/9 14/28/9 16/29/9 26/30/9
f 26/30/10 16/29/10 18/31/10 27/32/10
f 27/32/11 18/31/11 20/33/11 28/34/11
f 28/34/12 20/33/12 22/35/12 29/36/12
f 16/37/13 14/38/13 24/39/13 22/40/13 20/41/13 18/42/13
f 29/36/14 22/35/14 24/43/14 30/44/14
f 30/44/15 24/43/15 14/45/15 25/46/15
f 15/47/16 17/48/16 33/48/16 32/47/16
f 15/47/17 13/49/17 25/50/17 26/51/17
f 17/48/18 15/47/18 26/51/18 27/52/18
f 19/53/19 17/48/19 27/52/19 28/54/19
f 21/55/17 19/53/17 28/54/17 29/56/17
f 23/57/20 21/55/20 29/56/20 30/58/20
f 13/49/21 23/57/21 30/58/21 25/50/21
f 31/49/17 32/47/17 33/48/17 34/53/17 35/55/17 36/57/17
f 21/55/22 23/57/22 36/57/22 35/55/22
f 17/48/23 19/53/23 34/53/23 33/48/23
f 13/49/24 15/47/24 32/47/24 31/49/24
f 23/57/25 13/49/25 31/49/25 36/57/25
f 19/53/26 21/55/26 35/55/26 34/53/26
o Cylinder.002
v 0.005255 1.077307 -0.511727
v 0.005280 1.746877 -0.393643
v 0.462764 0.980236 -0.240735
v 0.327573 1.755733 -0.202742
v 0.456583 1.007045 0.290444
v 0.323219 1.774618 0.171448
v -0.007107 1.127052 0.550632
v -0.003428 1.784647 0.354738
v -0.464616 1.008711 0.279640
v -0.325721 1.775792 0.163838
v -0.458434 0.981903 -0.251539
v -0.321367 1.756907 -0.210353
v 0.007576 1.067243 -0.711134
v 0.636835 0.974891 -0.338411
v 0.628334 1.011764 0.392176
v -0.009427 1.137116 0.750039
v -0.638687 1.014056 0.377316
v -0.630185 0.977184 -0.353271
v 0.005863 1.220636 -0.524487
v 0.463371 1.233207 -0.253496
v 0.457190 1.260015 0.277684
v -0.006500 1.274252 0.537872
v -0.464008 1.261682 0.266880
v -0.457827 1.234873 -0.264300
vn 0.4997 0.3522 -0.7914
vn 0.9292 0.3694 -0.0078
vn 0.4864 0.4343 0.7582
vn -0.5026 0.4362 0.7464
vn 0.0024 0.9987 -0.0504
vn -0.9275 0.3728 -0.0296
vn -0.4798 0.3540 -0.8028
vn -0.9999 0.0018 -0.0117
vn -0.1499 -0.9880 -0.0377
vn -0.0024 -0.9987 0.0504
vn -0.1455 -0.9808 0.1300
vn 0.1390 -0.9813 0.1334
vn 0.1472 -0.9885 -0.0343
vn 0.9999 -0.0018 0.0117
vn -0.4946 -0.0538 -0.8675
vn -0.5049 0.0570 0.8613
vn 0.4850 0.0547 0.8728
vn 0.5148 -0.0561 -0.8555
vt 1.000000 0.500000
vt 1.000000 1.000000
vt 0.833333 1.000000
vt 0.833333 0.500000
vt 0.666667 1.000000
vt 0.666667 0.500000
vt 0.500000 1.000000
vt 0.500000 0.500000
vt 0.333333 1.000000
vt 0.333333 0.500000
vt 0.457846 0.370000
vt 0.250000 0.490000
vt 0.042154 0.370000
vt 0.042154 0.130000
vt 0.250000 0.010000
vt 0.457846 0.130000
vt 0.166667 1.000000
vt 0.166667 0.500000
vt -0.000000 1.000000
vt -0.000000 0.500000
vt 0.901116 0.337247
vt 0.901116 0.162753
vt 0.750000 0.424494
vt 0.750000 0.490000
vt 0.957846 0.370000
vt 0.957846 0.130000
vt 0.750000 0.075506
vt 0.750000 0.010000
vt 0.598884 0.162753
vt 0.542154 0.130000
vt 0.598884 0.337247
vt 0.542154 0.370000
s 0
usemtl Material
f 49/59/27 38/60/27 40/61/27 50/62/27
f 50/62/28 40/61/28 42/63/28 51/64/28
f 51/64/29 42/63/29 44/65/29 52/66/29
f 52/66/30 44/65/30 46/67/30 53/68/30
f 40/69/31 38/70/31 48/71/31 46/72/31 44/73/31 42/74/31
f 53/68/32 46/67/32 48/75/32 54/76/32
f 54/76/33 48/75/33 38/77/33 49/78/33
f 39/79/34 41/80/34 57/80/34 56/79/34
f 39/79/35 37/81/35 49/82/35 50/83/35
f 41/80/36 39/79/36 50/83/36 51/84/36
f 43/85/37 41/80/37 51/84/37 52/86/37
f 45/87/38 43/85/38 52/86/38 53/88/38
f 47/89/36 45/87/36 53/88/36 54/90/36
f 37/81/39 47/89/39 54/90/39 49/82/39
f 55/81/36 56/79/36 57/80/36 58/85/36 59/87/36 60/89/36
f 45/87/40 47/89/40 60/89/40 59/87/40
f 41/80/41 43/85/41 58/85/41 57/80/41
f 37/81/42 39/79/42 56/79/42 55/81/42
f 47/89/43 37/81/43 55/81/43 60/89/43
f 43/85/44 45/87/44 59/87/44 58/85/44
o Cylinder.003
v -0.001915 1.750015 -0.382610
v -0.000463 2.272374 -0.155817
v 0.326346 1.687948 -0.195035
v 0.138792 2.271015 -0.076243
v 0.328015 1.743717 0.183015
v 0.139501 2.268513 0.084134
v 0.001424 1.679351 0.373490
v 0.000954 2.267368 0.164937
v -0.326836 1.682553 0.185915
v -0.138302 2.268727 0.085364
v -0.328506 1.684987 -0.192135
v -0.139010 2.271229 -0.075013
v -0.002542 1.752230 -0.524532
v 0.448949 1.688960 -0.266540
v 0.451246 1.742515 0.253431
v 0.002051 1.677136 0.515411
v -0.449440 1.681540 0.257420
v -0.451736 1.686189 -0.262552
v -0.001754 1.882896 -0.379619
v 0.326507 1.879694 -0.192044
v 0.328176 1.873795 0.186006
v 0.001585 1.871097 0.376481
v -0.326675 1.874299 0.188906
v -0.328345 1.880198 -0.189144
vn 0.4702 0.5002 -0.7271
vn 0.8710 0.4896 -0.0406
vn 0.4020 0.4767 0.7818
vn -0.4375 0.4585 0.7735
vn 0.0008 0.9999 0.0156
vn -0.8828 0.4697 0.0088
vn -0.4783 0.4997 -0.7222
vn -1.0000 0.0009 0.0044
vn -0.1135 -0.9903 -0.0799
vn -0.0002 -0.9927 0.1208
vn 0.1166 -0.9896 -0.0839
vn -0.0008 -0.9999 -0.0156
vn -0.0008 -1.0000 -0.0079
vn 0.1178 -0.9894 -0.0846
vn 1.0000 -0.0008 -0.0044
vn -0.5050 0.0165 -0.8630
vn -0.4972 -0.0155 0.8675
vn 0.5050 -0.0162 0.8630
vn 0.4962 0.0131 -0.8681
vt 1.000000 0.500000
vt 1.000000 1.000000
vt 0.833333 1.000000
vt 0.833333 0.500000
vt 0.666667 1.000000
vt 0.666667 0.500000
vt 0.500000 1.000000
vt 0.500000 0.500000
vt 0.333333 1.000000
vt 0.333333 0.500000
vt 0.457846 0.370000
vt 0.250000 0.490000
vt 0.042154 0.370000
vt 0.042154 0.130000
vt 0.250000 0.010000
vt 0.457846 0.130000
vt 0.166667 1.000000
vt 0.166667 0.500000
vt -0.000000 1.000000
vt -0.000000 0.500000
vt 0.901116 0.337247
vt 0.901116 0.162753
vt 0.750000 0.424494
vt 0.750000 0.490000
vt 0.957846 0.370000
vt 0.957846 0.130000
vt 0.750000 0.075506
vt 0.750000 0.010000
vt 0.598884 0.162753
vt 0.542154 0.130000
vt 0.598884 0.337247
vt 0.542154 0.370000
s 0
usemtl Material
f 73/91/45 62/92/45 64/93/45 74/94/45
f 74/94/46 64/93/46 66/95/46 75/96/46
f 75/96/47 66/95/47 68/97/47 76/98/47
f 76/98/48 68/97/48 70/99/48 77/100/48
f 64/101/49 62/102/49 72/103/49 70/104/49 68/105/49 66/106/49
f 77/100/50 70/99/50 72/107/50 78/108/50
f 78/108/51 72/107/51 62/109/51 73/110/51
f 63/111/52 65/112/52 81/112/52 80/111/52
f 63/111/53 61/113/53 73/114/53 74/115/53
f 65/112/54 63/111/54 74/115/54 75/116/54
f 67/117/55 65/112/55 75/116/55 76/118/55
f 69/119/56 67/117/56 76/118/56 77/120/56
f 71/121/57 69/119/57 77/120/57 78/122/57
f 61/113/58 71/121/58 78/122/58 73/114/58
f 79/113/56 80/111/56 81/112/56 82/117/56 83/119/56 84/121/56
f 69/119/59 71/121/59 84/121/59 83/119/59
f 65/112/60 67/117/60 82/117/60 81/112/60
f 61/113/61 63/111/61 80/111/61 79/113/61
f 71/121/62 61/113/62 79/113/62 84/121/62
f 67/117/63 69/119/63 83/119/63 82/117/63
o Cylinder.004
v -0.001915 1.853441 -0.382610
v -0.000463 2.375800 -0.155817
v 0.326346 1.791374 -0.195035
v 0.138792 2.374441 -0.076243
v 0.328015 1.847143 0.183015
v 0.139501 2.371939 0.084134
v 0.001424 1.782777 0.373490
v 0.000954 2.370794 0.164937
v -0.326836 1.785979 0.185915
v -0.138302 2.372153 0.085364
v -0.328506 1.788413 -0.192135
v -0.139010 2.374655 -0.075013
v -0.002542 1.855656 -0.524532
v 0.448949 1.792386 -0.266540
v 0.451246 1.845941 0.253431
v 0.002051 1.780562 0.515411
v -0.449440 1.784966 0.257420
v -0.451736 1.789615 -0.262552
v -0.001754 1.986322 -0.379619
v 0.326507 1.983120 -0.192044
v 0.328176 1.977221 0.186006
v 0.001585 1.974523 0.376481
v -0.326675 1.977725 0.188906
v -0.328345 1.983624 -0.189144
vn 0.4702 0.5002 -0.7271
vn 0.8710 0.4896 -0.0406
vn 0.4020 0.4767 0.7818
vn -0.4375 0.4585 0.7735
vn 0.0008 0.9999 0.0156
vn -0.8828 0.4697 0.0088
vn -0.4783 0.4997 -0.7222
vn -1.0000 0.0009 0.0044
vn -0.1135 -0.9903 -0.0799
vn -0.0002 -0.9927 0.1208
vn 0.1166 -0.9896 -0.0839
vn -0.0008 -0.9999 -0.0156
vn -0.0008 -1.0000 -0.0079
vn 0.1178 -0.9894 -0.0846
vn 1.0000 -0.0008 -0.0044
vn -0.5050 0.0165 -0.8630
vn -0.4972 -0.0155 0.8675
vn 0.5050 -0.0162 0.8630
vn 0.4962 0.0131 -0.8681
vt 1.000000 0.500000
vt 1.000000 1.000000
vt 0.833333 1.000000
vt 0.833333 0.500000
vt 0.666667 1.000000
vt 0.666667 0.500000
vt 0.500000 1.000000
vt 0.500000 0.500000
vt 0.333333 1.000000
vt 0.333333 0.500000
vt 0.457846 0.370000
vt 0.250000 0.490000
vt 0.042154 0.370000
vt 0.042154 0.130000
vt 0.250000 0.010000
vt 0.457846 0.130000
vt 0.166667 1.000000
vt 0.166667 0.500000
vt -0.000000 1.000000
vt -0.000000 0.500000
vt 0.901116 0.337247
vt 0.901116 0.162753
vt 0.750000 0.424494
vt 0.750000 0.490000
vt 0.957846 0.370000
vt 0.957846 0.130000
vt 0.750000 0.075506
vt 0.750000 0.010000
vt 0.598884 0.162753
vt 0.542154 0.130000
vt 0.598884 0.337247
vt 0.542154 0.370000
s 0
usemtl Material.002
f 87/143/71 89/144/71 105/144/71 104/143/71
f 103/145/75 104/143/75 105/144/75 106/149/75 107/151/75 108/153/75
f 89/144/79 91/149/79 106/149/79 105/144/79
f 85/145/80 87/143/80 104/143/80 103/145/80
f 95/153/81 85/145/81 103/145/81 108/153/81
usemtl Material.003
f 97/123/64 86/124/64 88/125/64 98/126/64
f 98/126/65 88/125/65 90/127/65 99/128/65
f 99/128/66 90/127/66 92/129/66 100/130/66
f 100/130/67 92/129/67 94/131/67 101/132/67
f 88/133/68 86/134/68 96/135/68 94/136/68 92/137/68 90/138/68
f 101/132/69 94/131/69 96/139/69 102/140/69
f 102/140/70 96/139/70 86/141/70 97/142/70
f 87/143/72 85/145/72 97/146/72 98/147/72
f 89/144/73 87/143/73 98/147/73 99/148/73
f 91/149/74 89/144/74 99/148/74 100/150/74
f 93/151/75 91/149/75 100/150/75 101/152/75
f 95/153/76 93/151/76 101/152/76 102/154/76
f 85/145/77 95/153/77 102/154/77 97/146/77
f 93/151/78 95/153/78 108/153/78 107/151/78
f 91/149/82 93/151/82 107/151/82 106/149/82
o Cylinder.005
v 0.005255 1.180733 -0.511727
v 0.005280 1.850303 -0.393643
v 0.462764 1.083662 -0.240735
v 0.327573 1.859159 -0.202742
v 0.456583 1.110471 0.290444
v 0.323219 1.878044 0.171448
v -0.007107 1.230478 0.550632
v -0.003428 1.888073 0.354738
v -0.464616 1.112137 0.279640
v -0.325721 1.879218 0.163838
v -0.458434 1.085329 -0.251539
v -0.321367 1.860333 -0.210353
v 0.007576 1.170669 -0.711134
v 0.636835 1.078317 -0.338411
v 0.628334 1.115190 0.392176
v -0.009427 1.240542 0.750039
v -0.638687 1.117482 0.377316
v -0.630185 1.080610 -0.353271
v 0.005863 1.324062 -0.524487
v 0.463371 1.336633 -0.253496
v 0.457190 1.363441 0.277684
v -0.006500 1.377678 0.537872
v -0.464008 1.365108 0.266880
v -0.457827 1.338299 -0.264300
vn 0.4997 0.3522 -0.7914
vn 0.9292 0.3694 -0.0078
vn 0.4864 0.4343 0.7582
vn -0.5026 0.4362 0.7464
vn 0.0024 0.9987 -0.0504
vn -0.9275 0.3728 -0.0296
vn -0.4798 0.3540 -0.8028
vn -0.9999 0.0018 -0.0117
vn -0.1499 -0.9880 -0.0377
vn -0.0024 -0.9987 0.0504
vn -0.1455 -0.9808 0.1300
vn 0.1390 -0.9813 0.1334
vn 0.1472 -0.9885 -0.0343
vn 0.9999 -0.0018 0.0117
vn -0.4946 -0.0538 -0.8675
vn -0.5049 0.0570 0.8613
vn 0.4850 0.0547 0.8728
vn 0.5148 -0.0561 -0.8555
vt 1.000000 0.500000
vt 1.000000 1.000000
vt 0.833333 1.000000
vt 0.833333 0.500000
vt 0.666667 1.000000
vt 0.666667 0.500000
vt 0.500000 1.000000
vt 0.500000 0.500000
vt 0.333333 1.000000
vt 0.333333 0.500000
vt 0.457846 0.370000
vt 0.250000 0.490000
vt 0.042154 0.370000
vt 0.042154 0.130000
vt 0.250000 0.010000
vt 0.457846 0.130000
vt 0.166667 1.000000
vt 0.166667 0.500000
vt -0.000000 1.000000
vt -0.000000 0.500000
vt 0.901116 0.337247
vt 0.901116 0.162753
vt 0.750000 0.424494
vt 0.750000 0.490000
vt 0.957846 0.370000
vt 0.957846 0.130000
vt 0.750000 0.075506
vt 0.750000 0.010000
vt 0.598884 0.162753
vt 0.542154 0.130000
vt 0.598884 0.337247
vt 0.542154 0.370000
s 0
usemtl Material.002
f 111/175/90 113/176/90 129/176/90 128/175/90
f 127/177/92 128/175/92 129/176/92 130/181/92 131/183/92 132/185/92
f 109/177/98 111/175/98 128/175/98 127/177/98
usemtl Material.003
f 121/155/83 110/156/83 112/157/83 122/158/83
f 122/158/84 112/157/84 114/159/84 123/160/84
f 123/160/85 114/159/85 116/161/85 124/162/85
f 124/162/86 116/161/86 118/163/86 125/164/86
f 112/165/87 110/166/87 120/167/87 118/168/87 116/169/87 114/170/87
f 125/164/88 118/163/88 120/171/88 126/172/88
f 126/172/89 120/171/89 110/173/89 121/174/89
f 111/175/91 109/177/91 121/178/91 122/179/91
f 113/176/92 111/175/92 122/179/92 123/180/92
f 115/181/93 113/176/93 123/180/93 124/182/93
f 117/183/94 115/181/94 124/182/94 125/184/94
f 119/185/92 117/183/92 125/184/92 126/186/92
f 109/177/95 119/185/95 126/186/95 121/178/95
f 117/183/96 119/185/96 132/185/96 131/183/96
f 113/176/97 115/181/97 130/181/97 129/176/97
f 119/185/99 109/177/99 127/177/99 132/185/99
f 115/181/100 117/183/100 131/183/100 130/181/100
o Cylinder.006
v 0.000000 0.392298 -0.655161
v 0.000000 1.343549 -0.461530
v 0.567386 0.392298 -0.327581
v 0.399696 1.343549 -0.230765
v 0.567386 0.517892 0.327581
v 0.399696 1.343549 0.230765
v 0.000000 0.392298 0.655161
v 0.000000 1.343549 0.461530
v -0.567386 0.392298 0.327581
v -0.399696 1.343549 0.230765
v -0.567386 0.499458 -0.327581
v -0.399696 1.343549 -0.230765
v 0.000000 0.392298 -0.901112
v 0.780386 0.392298 -0.450556
v 0.780386 0.517892 0.450556
v 0.000000 0.392298 0.901112
v -0.780386 0.392298 0.450556
v -0.780386 0.499458 -0.450556
v 0.000000 0.704293 -0.655161
v 0.567386 0.704293 -0.327581
v 0.567386 0.704293 0.327581
v 0.000000 0.704293 0.655161
v -0.567386 0.704293 0.327581
v -0.567386 0.704293 -0.327581
vn 0.4642 0.3715 -0.8040
vn 0.9186 0.3936 -0.0363
vn 0.4279 0.3936 0.8136
vn -0.4642 0.3715 0.8040
vn -0.0000 1.0000 -0.0000
vn -0.9202 0.3902 0.0307
vn -0.4335 0.3902 -0.8123
vn -1.0000 -0.0000 -0.0000
vn -0.0000 -1.0000 -0.0000
vn -0.0000 -0.9872 0.1593
vn 0.1380 -0.9872 -0.0797
vn -0.0000 -0.9907 -0.1364
vn -0.1181 -0.9907 0.0682
vn 1.0000 -0.0000 -0.0000
vn -0.5000 -0.0000 -0.8660
vn -0.5000 -0.0000 0.8660
vn 0.5000 -0.0000 0.8660
vn 0.5000 -0.0000 -0.8660
vt 1.000000 0.500000
vt 1.000000 1.000000
vt 0.833333 1.000000
vt 0.833333 0.500000
vt 0.666667 1.000000
vt 0.666667 0.500000
vt 0.500000 1.000000
vt 0.500000 0.500000
vt 0.333333 1.000000
vt 0.333333 0.500000
vt 0.457846 0.370000
vt 0.250000 0.490000
vt 0.042154 0.370000
vt 0.042154 0.130000
vt 0.250000 0.010000
vt 0.457846 0.130000
vt 0.166667 1.000000
vt 0.166667 0.500000
vt -0.000000 1.000000
vt -0.000000 0.500000
vt 0.901116 0.337247
vt 0.901116 0.162753
vt 0.750000 0.424494
vt 0.750000 0.490000
vt 0.957846 0.370000
vt 0.957846 0.130000
vt 0.750000 0.075506
vt 0.750000 0.010000
vt 0.598884 0.162753
vt 0.542154 0.130000
vt 0.598884 0.337247
vt 0.542154 0.370000
s 0
usemtl Material.002
f 151/209/109 152/207/109 153/208/109 154/213/109 155/215/109 156/217/109
f 133/209/116 135/207/116 152/207/116 151/209/116
usemtl Material.003
f 145/187/101 134/188/101 136/189/101 146/190/101
f 146/190/102 136/189/102 138/191/102 147/192/102
f 147/192/103 138/191/103 140/193/103 148/194/103
f 148/194/104 140/193/104 142/195/104 149/196/104
f 136/197/105 134/198/105 144/199/105 142/200/105 140/201/105 138/202/105
f 149/196/106 142/195/106 144/203/106 150/204/106
f 150/204/107 144/203/107 134/205/107 145/206/107
f 135/207/108 137/208/108 153/208/108 152/207/108
f 135/207/109 133/209/109 145/210/109 146/211/109
f 137/208/110 135/207/110 146/211/110 147/212/110
f 139/213/111 137/208/111 147/212/111 148/214/111
f 141/215/109 139/213/109 148/214/109 149/216/109
f 143/217/112 141/215/112 149/216/112 150/218/112
f 133/209/113 143/217/113 150/218/113 145/210/113
f 141/215/114 143/217/114 156/217/114 155/215/114
f 137/208/115 139/213/115 154/213/115 153/208/115
f 143/217/117 133/209/117 151/209/117 156/217/117
f 139/213/118 141/215/118 155/215/118 154/213/118
